<svg width="18" height="19" viewBox="0 0 18 19" fill="none" xmlns="http://www.w3.org/2000/svg">
<path d="M11.0101 3.2778L10.5176 3.77025C10.3939 3.89391 10.3939 4.09441 10.5176 4.21807L15.1349 8.83523H0.765873C0.59099 8.83523 0.449219 8.977 0.449219 9.15188V9.84844C0.449219 10.0233 0.59099 10.1651 0.765873 10.1651H15.1349L10.5176 14.7824C10.3939 14.9061 10.3939 15.1066 10.5176 15.2302L11.01 15.7227C11.1337 15.8463 11.3342 15.8463 11.4579 15.7227L17.4565 9.72407C17.5801 9.60041 17.5801 9.39992 17.4565 9.27626L11.4579 3.2778C11.3342 3.15414 11.1337 3.15414 11.0101 3.2778Z" fill="#1928F0"/>
</svg>
