<svg width="165" height="167" viewBox="0 0 165 167" fill="none" xmlns="http://www.w3.org/2000/svg">
<path d="M23.5352 82.1215L23.5979 84.758L23.849 87.3317L24.1629 89.9054L24.6023 92.4791L25.1673 95.0528L25.9205 97.5637L26.7366 100.012L27.6782 102.46L28.8081 104.783L30.0008 107.105L31.319 109.365L32.7001 111.562L34.2694 113.696L35.9015 115.705L37.5964 117.651L39.4796 119.472L41.3628 121.292L43.3715 122.924L45.5058 124.493L47.6401 125.937L49.8999 127.255L52.1598 128.511L54.5451 129.641L56.9305 130.582L59.4415 131.461L61.8896 132.215L64.4633 132.842L67.037 133.344L69.6107 133.658L72.1844 133.909L74.8209 134.035L77.3946 133.972L80.0311 133.847L82.6048 133.533L85.1785 133.093L87.7522 132.528L90.2631 131.838L92.7113 131.085L95.1595 130.143L97.5448 129.076L99.8674 127.883L102.127 126.628L104.387 125.247L106.459 123.74L108.53 122.108L110.476 120.413L112.359 118.593L114.18 116.71L115.875 114.701L117.444 112.629L118.951 110.495L120.269 108.235L121.524 105.975L122.717 103.653L123.721 101.205L124.6 98.7564L125.416 96.3083L126.044 93.7346L126.546 91.2236L126.923 88.6499L127.237 86.0134L127.362 83.4397V80.8033L127.237 78.2296L126.923 75.5931L126.546 73.0194L126.044 70.5084L125.416 67.9347L124.6 65.4866L123.721 63.0384L122.717 60.5903L121.524 58.2677L120.269 56.0078L118.951 53.748L117.444 51.6137L115.875 49.5422L114.18 47.5334L112.359 45.6502L110.476 43.8298L108.53 42.1349L106.459 40.5028L104.387 38.9963L102.127 37.6153L99.8674 36.3598L97.5448 35.1671L95.1595 34.1L92.7113 33.1584L90.2631 32.3423L87.7522 31.7146L85.1785 31.1496L82.6048 30.7102L80.0311 30.3963L77.3946 30.2708L74.8209 30.208L72.1844 30.3336L69.6107 30.5219L67.037 30.8985L64.4633 31.4007L61.8896 32.0284L59.4415 32.7817L56.9305 33.5978L54.5451 34.6021L52.1598 35.7321L49.8999 36.9875L47.6401 38.3058L45.5058 39.7495L43.3715 41.3189L41.3628 42.951L39.4796 44.7086L37.5964 46.5918L35.9015 48.5378L34.2694 50.5465L32.7001 52.6808L31.319 54.8779L30.0008 57.1377L28.8081 59.4604L27.6782 61.783L26.7366 64.2311L25.9205 66.6793L25.1673 69.1902L24.6023 71.7639L24.1629 74.3376L23.849 76.9113L23.5979 79.485L23.5352 82.1215Z" stroke="#374365" stroke-width="0.690506" stroke-miterlimit="10" stroke-linecap="round" stroke-linejoin="round"/>
<path d="M21.7148 82.1216L21.7776 79.4851L21.9659 76.7859L22.2798 74.1494L22.782 71.5757L23.3469 68.9392L24.0375 66.3655L24.9163 63.8546L25.8579 61.4064L26.925 58.9583L28.1805 56.5729L29.4987 54.3131L30.8797 52.0532L32.4491 49.8562L34.0812 47.7846L35.8388 45.7759L37.6593 43.8927L39.6052 42.0723L41.6767 40.3146L43.7483 38.6825L45.9453 37.176L48.2052 35.7949L50.5278 34.4767L52.9132 33.3468L55.3613 32.2796L57.8095 31.338L60.3832 30.522L62.9569 29.8315L65.5306 29.2665L68.1671 28.8899L70.8035 28.576L73.44 28.3877H76.1393L78.7757 28.4505L81.4122 28.7016L84.0487 29.0782L86.6852 29.5804L89.2589 30.1454L91.8326 30.8986L94.3435 31.7775L96.7917 32.7818L99.177 33.9117L101.562 35.1044L103.822 36.4854L106.082 37.9292L108.216 39.4986L110.288 41.1934L112.297 42.9511L114.18 44.8343L115.938 46.7803L117.632 48.8518L119.264 50.9861L120.771 53.1831L122.089 55.443L123.408 57.7656L124.537 60.151L125.542 62.5991L126.483 65.1101L127.237 67.6838L127.864 70.2575L128.429 72.8312L128.806 75.4676L129.057 78.1041L129.183 80.8034V83.4398L129.057 86.0763L128.806 88.7756L128.429 91.3493L127.864 93.9858L127.237 96.5595L126.483 99.1332L125.542 101.581L124.537 104.092L123.408 106.478L122.089 108.8L120.771 111.06L119.264 113.257L117.632 115.391L115.938 117.463L114.18 119.409L112.297 121.292L110.288 123.05L108.216 124.745L106.082 126.314L103.822 127.758L101.562 129.076L99.177 130.331L96.7917 131.461L94.3435 132.466L91.8326 133.345L89.2589 134.098L86.6852 134.663L84.0487 135.165L81.4122 135.542L78.7757 135.793L76.1393 135.856H73.44L70.8035 135.667L68.1671 135.353L65.5306 134.977L62.9569 134.412L60.3832 133.721L57.8095 132.905L55.3613 131.964L52.9132 130.896L50.5278 129.767L48.2052 128.448L45.9453 127.067L43.7483 125.498L41.6767 123.929L39.6052 122.171L37.6593 120.351L35.8388 118.467L34.0812 116.459L32.4491 114.387L30.8797 112.19L29.4987 109.93L28.1805 107.67L26.925 105.285L25.8579 102.837L24.9163 100.389L24.0375 97.8149L23.3469 95.304L22.782 92.6675L22.2798 90.0938L21.9659 87.4573L21.7776 84.7581L21.7148 82.1216Z" stroke="#374365" stroke-width="0.690506" stroke-miterlimit="10" stroke-linecap="round" stroke-linejoin="round"/>
<path d="M38.2246 82.121L38.2874 79.924L38.4757 77.7269L38.7896 75.5298L39.2918 73.3955L39.8567 71.2613L40.5472 69.127L41.3633 67.1182L42.3049 65.1095L43.372 63.1635L44.5647 61.3431L45.8829 59.5227L47.264 57.8278L48.7705 56.1957L50.3398 54.6263L51.972 53.1826L53.7296 51.8643L55.55 50.6089L57.496 49.4789L59.442 48.4746L61.4507 47.5957L63.5222 46.8425L65.6565 46.2147L67.7908 45.6498L69.9879 45.2731L72.1222 45.022L74.382 44.8965H76.5791L78.7761 45.022L80.9732 45.2731L83.1075 45.6498L85.2418 46.2147L87.3761 46.8425L89.4476 47.5957L91.4563 48.4746L93.4651 49.4789L95.3483 50.6089L97.1687 51.8643L98.9264 53.1826L100.621 54.6263L102.191 56.1957L103.634 57.8278L105.078 59.5227L106.334 61.3431L107.526 63.1635L108.593 65.1095L109.535 67.1182L110.351 69.127L111.042 71.2613L111.669 73.3955L112.109 75.5298L112.423 77.7269L112.611 79.924L112.674 82.121L112.611 84.3181L112.423 86.5152L112.109 88.7122L111.669 90.8465L111.042 92.9808L110.351 95.1151L109.535 97.1238L108.593 99.1326L107.526 101.079L106.334 102.899L105.078 104.719L103.634 106.414L102.191 108.046L100.621 109.616L98.9264 111.06L97.1687 112.378L95.3483 113.633L93.4651 114.7L91.4563 115.705L89.4476 116.646L87.3761 117.4L85.2418 118.027L83.1075 118.53L80.9732 118.969L78.7761 119.22L76.5791 119.346H74.382L72.1222 119.22L69.9879 118.969L67.7908 118.53L65.6565 118.027L63.5222 117.4L61.4507 116.646L59.442 115.705L57.496 114.7L55.55 113.633L53.7296 112.378L51.972 111.06L50.3398 109.616L48.7705 108.046L47.264 106.414L45.8829 104.719L44.5647 102.899L43.372 101.079L42.3049 99.1326L41.3633 97.1238L40.5472 95.1151L39.8567 92.9808L39.2918 90.8465L38.7896 88.7122L38.4757 86.5152L38.2874 84.3181L38.2246 82.121Z" stroke="#374365" stroke-width="0.690506" stroke-miterlimit="10" stroke-linecap="round" stroke-linejoin="round"/>
<path d="M40.1699 82.1223L40.2327 84.2566L40.421 86.3909L40.7349 88.5252L41.1743 90.6595L41.802 92.731L42.4925 94.7398L43.3086 96.7485L44.2502 98.6945L45.3173 100.578L46.51 102.335L47.8283 104.093L49.2093 105.725L50.6531 107.294L52.2852 108.738L53.9173 110.119L55.6749 111.375L57.4953 112.505L59.3785 113.572L61.3245 114.451L63.3333 115.267L65.342 115.957L67.4763 116.522L69.5478 116.961L71.6821 117.213L73.8164 117.401H76.0135L78.1478 117.338L80.282 117.087L82.4163 116.71L84.4879 116.271L86.5594 115.643L88.5681 114.89L90.5769 114.011L92.4601 113.07L94.3433 111.94L96.1009 110.747L97.8586 109.429L99.4279 108.048L100.997 106.541L102.441 104.909L103.759 103.214L105.015 101.456L106.145 99.6361L107.149 97.6901L108.028 95.7441L108.781 93.7354L109.472 91.6639L109.974 89.5924L110.35 87.4581L110.602 85.3238L110.727 83.1895V81.0552L110.602 78.9209L110.35 76.7866L109.974 74.6523L109.472 72.518L108.781 70.5093L108.028 68.5005L107.149 66.4918L106.145 64.6086L105.015 62.7882L103.759 61.0305L102.441 59.3356L100.997 57.7035L99.4279 56.197L97.8586 54.816L96.1009 53.4977L94.3433 52.305L92.4601 51.1751L90.5769 50.2335L88.5681 49.3547L86.5594 48.6014L84.4879 47.9737L82.4163 47.4715L80.282 47.1576L78.1478 46.9065L76.0135 46.8438H73.8164L71.6821 47.0321L69.5478 47.2832L67.4763 47.7226L65.342 48.2875L63.3333 48.978L61.3245 49.7313L59.3785 50.6729L57.4953 51.7401L55.6749 52.87L53.9173 54.1254L52.2852 55.5065L50.6531 56.9502L49.2093 58.5196L47.8283 60.1517L46.51 61.9093L45.3173 63.667L44.2502 65.5502L43.3086 67.4962L42.4925 69.5049L41.802 71.5136L41.1743 73.5852L40.7349 75.7195L40.421 77.8537L40.2327 79.988L40.1699 82.1223Z" stroke="#374365" stroke-width="0.690506" stroke-miterlimit="10" stroke-linecap="round" stroke-linejoin="round"/>
<path d="M19.832 82.122L19.8948 79.4227L20.0831 76.7235L20.4598 74.087L20.8992 71.4505L21.4641 68.8141L22.1546 66.2404L23.0335 63.6666L23.9751 61.1557L25.0422 58.7076L26.2349 56.2594L27.5531 53.9368L28.9342 51.677L30.4407 49.4171L32.0728 47.2828L33.8305 45.2741L35.6509 43.2653L37.5969 41.3821L39.6056 39.6245L41.6771 37.9296L43.8742 36.3603L46.134 34.8537L48.4566 33.5355L50.842 32.28L53.2274 31.1501L55.7383 30.1457L58.2493 29.2041L60.823 28.4509L63.4594 27.8231L66.0959 27.3209L68.7324 26.9443L71.4316 26.6304L74.1309 26.5049H76.8301L79.4666 26.6304L82.1659 26.9443L84.8023 27.3209L87.4388 27.8231L90.0753 28.4509L92.649 29.2041L95.1599 30.1457L97.6709 31.1501L100.119 32.28L102.504 33.5355L104.827 34.8537L107.024 36.3603L109.221 37.9296L111.293 39.6245L113.301 41.3821L115.247 43.2653L117.068 45.2741L118.825 47.2828L120.458 49.4171L121.964 51.677L123.408 53.9368L124.663 56.2594L125.856 58.7076L126.986 61.1557L127.928 63.6666L128.744 66.2404L129.434 68.8141L129.999 71.4505L130.501 74.087L130.815 76.7235L131.003 79.4227L131.066 82.122L131.003 84.8212L130.815 87.4577L130.501 90.157L129.999 92.7934L129.434 95.4299L128.744 98.0036L127.928 100.577L126.986 103.088L125.856 105.536L124.663 107.985L123.408 110.307L121.964 112.567L120.458 114.827L118.825 116.961L117.068 118.97L115.247 120.979L113.301 122.862L111.293 124.619L109.221 126.314L107.024 127.884L104.827 129.327L102.504 130.708L100.119 131.964L97.6709 133.094L95.1599 134.098L92.649 134.977L90.0753 135.793L87.4388 136.421L84.8023 136.923L82.1659 137.3L79.4666 137.551L76.8301 137.739H74.1309L71.4316 137.551L68.7324 137.3L66.0959 136.923L63.4594 136.421L60.823 135.793L58.2493 134.977L55.7383 134.098L53.2274 133.094L50.842 131.964L48.4566 130.708L46.134 129.327L43.8742 127.884L41.6771 126.314L39.6056 124.619L37.5969 122.862L35.6509 120.979L33.8305 118.97L32.0728 116.961L30.4407 114.827L28.9342 112.567L27.5531 110.307L26.2349 107.985L25.0422 105.536L23.9751 103.088L23.0335 100.577L22.1546 98.0036L21.4641 95.4299L20.8992 92.7934L20.4598 90.157L20.0831 87.4577L19.8948 84.8212L19.832 82.122Z" stroke="#374365" stroke-width="0.690506" stroke-miterlimit="10" stroke-linecap="round" stroke-linejoin="round"/>
<path d="M16.0964 50.9983C16.0764 50.7391 16.0764 50.4788 16.0964 50.2196L16.0977 50.2025C16.1186 49.9299 16.1625 49.6596 16.2288 49.3944L16.2365 49.3635C16.2904 49.1479 16.3604 48.9366 16.4459 48.7314L16.4683 48.6776C16.5767 48.4175 16.7129 48.1699 16.8744 47.9391V47.9391C17.0051 47.7524 17.1518 47.5776 17.3129 47.4165L17.6357 47.0936L17.9583 46.8356C18.1614 46.6731 18.3783 46.5288 18.6066 46.4043V46.4043C18.8377 46.2782 19.0796 46.1729 19.3294 46.0897L19.7073 45.9637L20.0493 45.8782C20.3224 45.8099 20.6029 45.7754 20.8844 45.7754V45.7754C21.145 45.7754 21.4048 45.805 21.6587 45.8636L22.0926 45.9637L22.4705 46.0897C22.7203 46.1729 22.9622 46.2782 23.1933 46.4043V46.4043C23.4216 46.5288 23.6385 46.6731 23.8416 46.8356L23.8558 46.8469C24.061 47.0111 24.2519 47.1924 24.4265 47.3888L24.6663 47.6586L24.8292 47.8913C25.013 48.1539 25.1679 48.4356 25.2912 48.7314V48.7314C25.3767 48.9366 25.4467 49.1479 25.5006 49.3635L25.5083 49.3944C25.5746 49.6596 25.6185 49.9299 25.6394 50.2025L25.6408 50.2196C25.6607 50.4788 25.6607 50.7391 25.6408 50.9983L25.6394 51.0154C25.6185 51.288 25.5746 51.5583 25.5083 51.8235L25.5006 51.8544C25.4467 52.07 25.3767 52.2813 25.2912 52.4864V52.4864C25.1679 52.7823 25.013 53.064 24.8292 53.3266L24.6663 53.5593L24.4265 53.8291C24.2519 54.0255 24.061 54.2068 23.8558 54.3709L23.8416 54.3823C23.6385 54.5447 23.4216 54.689 23.1933 54.8136V54.8136C22.9622 54.9396 22.7203 55.0449 22.4705 55.1282L22.0926 55.2542L21.6587 55.3543C21.4048 55.4129 21.145 55.4425 20.8844 55.4425V55.4425C20.6029 55.4425 20.3224 55.4079 20.0493 55.3397L19.7073 55.2542L19.3294 55.1282C19.0796 55.0449 18.8377 54.9396 18.6066 54.8136V54.8136C18.3783 54.689 18.1614 54.5447 17.9583 54.3823L17.6357 54.1242L17.3129 53.8014C17.1518 53.6403 17.0051 53.4654 16.8744 53.2788V53.2788C16.7129 53.048 16.5767 52.8004 16.4683 52.5403L16.4459 52.4864C16.3604 52.2813 16.2904 52.07 16.2365 51.8544L16.2288 51.8235C16.1625 51.5583 16.1186 51.288 16.0977 51.0154L16.0964 50.9983Z" stroke="#374365" stroke-width="0.690506" stroke-miterlimit="10" stroke-linecap="round" stroke-linejoin="round"/>
<path d="M16.0964 114.024C16.0764 113.764 16.0764 113.504 16.0964 113.245L16.0977 113.228C16.1186 112.955 16.1625 112.685 16.2288 112.42L16.2365 112.389C16.2904 112.173 16.3604 111.962 16.4459 111.757V111.757C16.5692 111.461 16.7241 111.179 16.9079 110.917L17.0708 110.684L17.1231 110.626C17.4638 110.247 17.8463 109.909 18.2635 109.617V109.617V109.617C18.7229 109.366 19.2108 109.155 19.7073 108.989V108.989L20.0493 108.904C20.3224 108.835 20.6029 108.801 20.8844 108.801V108.801C21.145 108.801 21.4048 108.83 21.6587 108.889L22.0926 108.989V108.989C22.5891 109.155 23.077 109.366 23.5364 109.617V109.617V109.617C23.9528 109.908 24.3253 110.258 24.6428 110.655L24.6663 110.684L24.8292 110.917C25.013 111.179 25.1679 111.461 25.2912 111.757V111.757C25.3767 111.962 25.4467 112.173 25.5006 112.389L25.5083 112.42C25.5746 112.685 25.6185 112.955 25.6394 113.228L25.6408 113.245C25.6607 113.504 25.6607 113.764 25.6408 114.024L25.6366 114.078C25.6175 114.326 25.5777 114.572 25.5174 114.812V114.812C25.4524 115.073 25.3638 115.327 25.2528 115.571L25.1058 115.894L24.8634 116.275C24.7322 116.481 24.5848 116.676 24.4225 116.859V116.859C24.2506 117.052 24.0626 117.231 23.8605 117.393L23.8416 117.408C23.6385 117.57 23.4216 117.714 23.1933 117.839V117.839C22.9622 117.965 22.7203 118.07 22.4705 118.154L22.46 118.157C22.2155 118.239 21.9646 118.299 21.7099 118.338L21.6637 118.346C21.406 118.385 21.1457 118.405 20.885 118.405H20.8526C20.5917 118.405 20.3312 118.384 20.0738 118.341V118.341C19.8298 118.3 19.5894 118.24 19.3547 118.162L19.3294 118.154C19.0796 118.07 18.8377 117.965 18.6066 117.839V117.839C18.3783 117.714 18.1614 117.57 17.9583 117.408L17.6357 117.15V117.15C17.2602 116.774 16.9269 116.359 16.6418 115.911L16.6314 115.894L16.4844 115.571C16.3733 115.327 16.2848 115.073 16.2197 114.812V114.812C16.1595 114.572 16.1196 114.326 16.1006 114.078L16.0964 114.024Z" stroke="#374365" stroke-width="0.690506" stroke-miterlimit="10" stroke-linecap="round" stroke-linejoin="round"/>
<path d="M70.6061 145.356C70.5862 145.097 70.5862 144.836 70.6061 144.577L70.6074 144.56C70.6284 144.287 70.6723 144.017 70.7386 143.752L70.7463 143.721C70.8002 143.505 70.8702 143.294 70.9557 143.089V143.089C71.079 142.793 71.2338 142.511 71.4176 142.249L71.5805 142.016L71.6329 141.958C71.9735 141.579 72.3561 141.241 72.7732 140.949V140.949V140.949C73.2327 140.698 73.7205 140.487 74.217 140.321V140.321L74.5591 140.236C74.8322 140.167 75.1127 140.133 75.3942 140.133V140.133C75.6548 140.133 75.9145 140.162 76.1685 140.221L76.6024 140.321V140.321C77.0989 140.487 77.5868 140.698 78.0462 140.949V140.949V140.949C78.4625 141.24 78.8351 141.59 79.1526 141.987L79.1761 142.016L79.339 142.249C79.5228 142.511 79.6777 142.793 79.801 143.089V143.089C79.8865 143.294 79.9565 143.505 80.0104 143.721L80.0181 143.752C80.0844 144.017 80.1282 144.287 80.1492 144.56L80.1505 144.577C80.1705 144.836 80.1705 145.097 80.1505 145.356L80.1463 145.41C80.1273 145.658 80.0874 145.904 80.0272 146.145V146.145C79.9621 146.405 79.8735 146.659 79.7625 146.903L79.6155 147.226L79.3731 147.607C79.242 147.813 79.0946 148.008 78.9323 148.191V148.191C78.7604 148.384 78.5723 148.563 78.3702 148.725L78.3514 148.74C78.1483 148.902 77.9314 149.046 77.7031 149.171V149.171C77.4719 149.297 77.23 149.402 76.9803 149.486L76.9698 149.489C76.7253 149.571 76.4744 149.631 76.2197 149.67L76.1734 149.678C75.9158 149.717 75.6554 149.737 75.3947 149.737H75.3623C75.1014 149.737 74.841 149.716 74.5836 149.673V149.673C74.3396 149.632 74.0991 149.572 73.8644 149.494L73.8392 149.486C73.5894 149.402 73.3475 149.297 73.1163 149.171V149.171C72.888 149.046 72.6711 148.902 72.4681 148.74L72.1455 148.482V148.482C71.77 148.106 71.4367 147.691 71.1516 147.243L71.1411 147.226L70.9941 146.903C70.8831 146.659 70.7945 146.405 70.7295 146.145V146.145C70.6692 145.904 70.6294 145.658 70.6103 145.41L70.6061 145.356Z" stroke="#374365" stroke-width="0.690506" stroke-miterlimit="10" stroke-linecap="round" stroke-linejoin="round"/>
<path d="M125.258 114.024C125.239 113.764 125.239 113.504 125.258 113.245L125.26 113.228C125.281 112.955 125.325 112.685 125.391 112.42L125.399 112.389C125.453 112.173 125.523 111.962 125.608 111.757V111.757C125.731 111.461 125.886 111.179 126.07 110.917L126.233 110.684L126.285 110.626C126.626 110.247 127.008 109.909 127.426 109.617V109.617V109.617C127.885 109.366 128.373 109.155 128.869 108.989V108.989L129.227 108.9C129.49 108.834 129.76 108.801 130.031 108.801V108.801C130.302 108.801 130.572 108.834 130.835 108.9L131.192 108.989L131.553 109.109C131.814 109.196 132.069 109.302 132.315 109.425L132.466 109.501C132.621 109.578 132.77 109.667 132.911 109.766V109.766C133.187 109.958 133.433 110.189 133.643 110.452L133.828 110.684L133.991 110.917C134.175 111.179 134.33 111.461 134.453 111.757V111.757C134.539 111.962 134.609 112.173 134.663 112.389L134.67 112.42C134.737 112.685 134.781 112.955 134.802 113.228L134.803 113.245C134.823 113.504 134.823 113.764 134.803 114.024L134.799 114.078C134.78 114.326 134.74 114.572 134.68 114.812V114.812C134.614 115.073 134.526 115.327 134.415 115.571L134.268 115.894L134.025 116.275C133.894 116.481 133.747 116.676 133.585 116.859L133.564 116.882C133.406 117.06 133.233 117.224 133.047 117.373V117.373C132.815 117.558 132.565 117.719 132.299 117.851L132.248 117.877C132.046 117.978 131.838 118.064 131.624 118.135L131.545 118.162C131.31 118.24 131.069 118.3 130.825 118.341V118.341C130.568 118.384 130.308 118.405 130.047 118.405H130.015C129.754 118.405 129.493 118.384 129.236 118.341V118.341C128.992 118.3 128.751 118.24 128.517 118.162L128.492 118.154C128.242 118.07 128 117.965 127.769 117.839V117.839C127.54 117.714 127.323 117.57 127.12 117.408L126.798 117.15V117.15C126.422 116.774 126.089 116.359 125.804 115.911L125.793 115.894L125.646 115.571C125.535 115.327 125.447 115.073 125.382 114.812V114.812C125.322 114.572 125.282 114.326 125.263 114.078L125.258 114.024Z" stroke="#374365" stroke-width="0.690506" stroke-miterlimit="10" stroke-linecap="round" stroke-linejoin="round"/>
<path d="M125.258 50.9983C125.239 50.7391 125.239 50.4788 125.258 50.2196L125.26 50.2025C125.281 49.9299 125.325 49.6596 125.391 49.3944L125.399 49.3635C125.453 49.1479 125.523 48.9366 125.608 48.7314L125.63 48.6776C125.739 48.4175 125.875 48.1699 126.037 47.9391V47.9391C126.167 47.7524 126.314 47.5776 126.475 47.4165L126.798 47.0936L127.12 46.8356C127.323 46.6731 127.54 46.5288 127.769 46.4043V46.4043C128 46.2782 128.242 46.1729 128.492 46.0897L128.869 45.9637L129.227 45.8744C129.49 45.8086 129.76 45.7754 130.031 45.7754V45.7754C130.302 45.7754 130.572 45.8086 130.835 45.8744L131.192 45.9637L131.624 46.1079C131.838 46.1791 132.046 46.2653 132.248 46.366L132.299 46.3919C132.565 46.5246 132.815 46.6849 133.047 46.8702V46.8702C133.233 47.0189 133.406 47.1831 133.564 47.3609L133.828 47.6586L133.991 47.8913C134.175 48.1539 134.33 48.4356 134.453 48.7314V48.7314C134.539 48.9366 134.609 49.1479 134.663 49.3635L134.67 49.3944C134.737 49.6596 134.781 49.9299 134.802 50.2025L134.803 50.2196C134.823 50.4788 134.823 50.7391 134.803 50.9983L134.802 51.0154C134.781 51.288 134.737 51.5583 134.67 51.8235L134.663 51.8544C134.609 52.07 134.539 52.2813 134.453 52.4864V52.4864C134.33 52.7823 134.175 53.064 133.991 53.3266L133.828 53.5593L133.564 53.8569C133.406 54.0348 133.233 54.199 133.047 54.3477V54.3477C132.815 54.533 132.565 54.6933 132.299 54.826L132.248 54.8518C132.046 54.9525 131.838 55.0388 131.624 55.11L131.192 55.2542L130.835 55.3435C130.572 55.4092 130.302 55.4425 130.031 55.4425V55.4425C129.76 55.4425 129.49 55.4092 129.227 55.3435L128.869 55.2542L128.492 55.1282C128.242 55.0449 128 54.9396 127.769 54.8136V54.8136C127.54 54.689 127.323 54.5447 127.12 54.3823L126.798 54.1242L126.475 53.8014C126.314 53.6403 126.167 53.4654 126.037 53.2788V53.2788C125.875 53.048 125.739 52.8004 125.63 52.5403L125.608 52.4864C125.523 52.2813 125.453 52.07 125.399 51.8544L125.391 51.8235C125.325 51.5583 125.281 51.288 125.26 51.0154L125.258 50.9983Z" stroke="#374365" stroke-width="0.690506" stroke-miterlimit="10" stroke-linecap="round" stroke-linejoin="round"/>
<path d="M70.6061 19.5159C70.5862 19.2567 70.5862 18.9963 70.6061 18.7372L70.6074 18.72C70.6284 18.4475 70.6723 18.1771 70.7386 17.9119L70.7463 17.8811C70.8002 17.6654 70.8702 17.4542 70.9557 17.249L70.9781 17.1951C71.0865 16.9351 71.2226 16.6875 71.3842 16.4567V16.4567C71.5148 16.27 71.6616 16.0952 71.8227 15.9341L72.1455 15.6112L72.4681 15.3532C72.6711 15.1907 72.888 15.0464 73.1163 14.9219V14.9219C73.3475 14.7958 73.5894 14.6905 73.8392 14.6072L74.217 14.4813L74.5745 14.3919C74.8374 14.3262 75.1073 14.293 75.3783 14.293V14.293C75.6493 14.293 75.9193 14.3262 76.1822 14.3919L76.5396 14.4813L76.9721 14.6255C77.1857 14.6966 77.394 14.7829 77.5953 14.8836L77.6471 14.9095C77.9124 15.0421 78.163 15.2025 78.3946 15.3878V15.3878C78.5805 15.5365 78.7534 15.7006 78.9115 15.8785L79.1761 16.1762L79.339 16.4089C79.5228 16.6715 79.6777 16.9531 79.801 17.249V17.249C79.8865 17.4542 79.9565 17.6654 80.0104 17.8811L80.0181 17.9119C80.0844 18.1771 80.1282 18.4475 80.1492 18.72L80.1505 18.7372C80.1705 18.9963 80.1705 19.2567 80.1505 19.5159L80.1492 19.533C80.1282 19.8056 80.0844 20.0759 80.0181 20.3411L80.0104 20.3719C79.9565 20.5876 79.8865 20.7989 79.801 21.004V21.004C79.6777 21.2999 79.5228 21.5816 79.339 21.8441L79.1761 22.0769L78.9115 22.3745C78.7534 22.5524 78.5805 22.7166 78.3946 22.8652V22.8652C78.163 23.0506 77.9124 23.2109 77.6471 23.3436L77.5954 23.3694C77.394 23.4701 77.1857 23.5564 76.9721 23.6276L76.5396 23.7717L76.1822 23.8611C75.9193 23.9268 75.6493 23.9601 75.3783 23.9601V23.9601C75.1073 23.9601 74.8374 23.9268 74.5745 23.8611L74.217 23.7717L73.8392 23.6458C73.5894 23.5625 73.3475 23.4572 73.1163 23.3311V23.3311C72.888 23.2066 72.6711 23.0623 72.4681 22.8999L72.1455 22.6418L71.8227 22.319C71.6616 22.1579 71.5148 21.983 71.3842 21.7964V21.7964C71.2226 21.5655 71.0865 21.3179 70.9781 21.0579L70.9557 21.004C70.8702 20.7989 70.8002 20.5876 70.7463 20.3719L70.7386 20.3411C70.6723 20.0759 70.6284 19.8056 70.6074 19.533L70.6061 19.5159Z" stroke="#374365" stroke-width="0.690506" stroke-miterlimit="10" stroke-linecap="round" stroke-linejoin="round"/>
<path d="M145.504 82.1214L145.442 79.1083L145.253 76.0324L144.94 73.0193L144.5 70.0061L143.872 67.0558L143.182 64.1054L142.303 61.2179L141.361 58.3303L140.232 55.5055L139.039 52.6807L137.721 49.9815L136.277 47.2822L134.707 44.7085L133.013 42.1976L131.255 39.7494L129.372 37.364L127.363 35.0414L125.291 32.8444L123.094 30.7101L120.835 28.7013L118.449 26.8181L116.001 24.9977L113.49 23.3028L110.916 21.6707L108.28 20.2269L105.581 18.8459L102.819 17.5905L99.9938 16.4605L97.1063 15.4562L94.2187 14.6401L91.2684 13.8868L88.318 13.2591L85.3049 12.7569L82.2918 12.3803L79.2787 12.1292L76.2028 12.0664H73.1897L70.1765 12.2547L67.1007 12.5686L64.1503 13.008L61.1372 13.5102L58.1869 14.2007L55.2365 15.0168L52.3489 15.9583L49.5241 17.0255L46.6993 18.2182L44.0001 19.5364L41.3008 20.9174L38.6644 22.4868L36.1534 24.1189L33.6425 25.8765L31.2571 27.7597L28.9345 29.7057L26.7374 31.7772L24.6031 33.9115L22.5316 36.1713L20.5857 38.494L18.7652 40.9421L17.0704 43.453L15.4383 46.0267L13.9317 48.6632L12.5507 51.2997L11.2324 54.0617L10.1025 56.8865L9.03538 59.7741L8.15656 62.6617L7.40327 65.5492L6.71276 68.5623L6.21058 71.5127L5.83394 74.5258L5.52008 77.5389L5.39453 80.6148V83.6279L5.52008 86.6411L5.83394 89.7169L6.21058 92.7301L6.71276 95.6804L7.40327 98.6307L8.15656 101.581L9.03538 104.469L10.1025 107.356L11.2324 110.181L12.5507 112.88L13.9317 115.58L15.4383 118.216L17.0704 120.79L18.7652 123.301L20.5857 125.749L22.5316 128.071L24.6031 130.331L26.7374 132.466L28.9345 134.537L31.2571 136.483L33.6425 138.366L36.1534 140.124L38.6644 141.756L41.3008 143.325L44.0001 144.706L46.6993 146.025L49.5241 147.217L52.3489 148.284L55.2365 149.226L58.1869 150.042L61.1372 150.733L64.1503 151.235L67.1007 151.674L70.1765 151.988L73.1897 152.176H76.2028L79.2787 152.051L82.2918 151.862L85.3049 151.486L88.318 150.984L91.2684 150.356L94.2187 149.603L97.1063 148.724L99.9938 147.782L102.819 146.652L105.581 145.397L108.28 144.016L110.916 142.572L113.49 140.94L116.001 139.245L118.449 137.425L120.835 135.541L123.094 133.533L125.291 131.398L127.363 129.201L129.372 126.879L131.255 124.493L133.013 122.045L134.707 119.534L136.277 116.961L137.721 114.261L139.039 111.562L140.232 108.737L141.361 105.912L142.303 103.025L143.182 100.137L143.872 97.187L144.5 94.1738L144.94 91.2235L145.253 88.2104L145.442 85.1345L145.504 82.1214Z" stroke="#374365" stroke-width="0.690506" stroke-miterlimit="10" stroke-linecap="round" stroke-linejoin="round"/>
<path d="M75.4494 82.1215L62.832 74.8398" stroke="#374365" stroke-width="0.251093" stroke-miterlimit="10" stroke-linecap="round" stroke-linejoin="round"/>
<path d="M61.2002 73.8984L59.5684 72.957" stroke="#374365" stroke-width="0.251093" stroke-miterlimit="10" stroke-linecap="round" stroke-linejoin="round"/>
<path d="M57.9349 72.0153L38.3496 60.6533" stroke="#374365" stroke-width="0.251093" stroke-miterlimit="10" stroke-linecap="round" stroke-linejoin="round"/>
<path d="M36.7177 59.7109L35.0859 58.7695" stroke="#374365" stroke-width="0.251093" stroke-miterlimit="10" stroke-linecap="round" stroke-linejoin="round"/>
<path d="M33.4534 57.8286L20.8359 50.5469" stroke="#374365" stroke-width="0.251093" stroke-miterlimit="10" stroke-linecap="round" stroke-linejoin="round"/>
<path d="M27.6157 15.7079L23.4727 8.99121" stroke="#374365" stroke-width="0.251093" stroke-miterlimit="10" stroke-linecap="round" stroke-linejoin="round"/>
<path d="M23.4727 8.99108L33.2025 2.96484" stroke="#374365" stroke-width="0.251093" stroke-miterlimit="10" stroke-linecap="round" stroke-linejoin="round"/>
<path d="M33.2031 2.96484L37.3461 9.68158" stroke="#374365" stroke-width="0.251093" stroke-miterlimit="10" stroke-linecap="round" stroke-linejoin="round"/>
<path d="M37.3451 9.68164L27.6152 15.7079" stroke="#374365" stroke-width="0.251093" stroke-miterlimit="10" stroke-linecap="round" stroke-linejoin="round"/>
<path d="M29.469 12.2128C29.3239 12.3009 29.1649 12.359 28.9922 12.3871C28.8188 12.4141 28.6375 12.398 28.4485 12.3388C28.2588 12.2784 28.0666 12.1631 27.8718 11.9927C27.677 11.8224 27.4847 11.5836 27.295 11.2766C27.1194 10.9922 26.9835 10.7163 26.8874 10.4489C26.7913 10.1814 26.7399 9.93032 26.7332 9.69562C26.7265 9.46093 26.7691 9.25001 26.8609 9.06288C26.952 8.8746 27.0982 8.71829 27.2995 8.59393C27.4883 8.47731 27.6791 8.41362 27.872 8.40287C28.0643 8.39098 28.2481 8.42666 28.4237 8.5099C28.5993 8.59315 28.7543 8.71817 28.8887 8.88495L28.5748 9.07886C28.4292 8.91428 28.2597 8.80917 28.0666 8.76353C27.8734 8.71788 27.6767 8.75688 27.4765 8.88054C27.1899 9.05758 27.0504 9.32765 27.0578 9.69073C27.0646 10.0527 27.2181 10.478 27.5183 10.9666L27.5405 10.9529C27.5323 10.8149 27.5488 10.6814 27.59 10.5522C27.6316 10.4212 27.6958 10.2999 27.7824 10.1883C27.8682 10.0755 27.9732 9.98084 28.0971 9.90426C28.2916 9.78412 28.5002 9.72364 28.7228 9.72282C28.9447 9.72086 29.1571 9.77589 29.3598 9.88791C29.5619 9.99879 29.7307 10.164 29.8663 10.3835C29.9949 10.5916 30.0672 10.8117 30.0833 11.0437C30.1005 11.2751 30.058 11.4938 29.9559 11.6999C29.8549 11.9052 29.6926 12.0762 29.469 12.2128ZM29.292 11.9262C29.4444 11.832 29.5564 11.7094 29.628 11.5583C29.7008 11.4065 29.7318 11.2443 29.7211 11.0718C29.7097 10.8982 29.6552 10.7323 29.5575 10.5742C29.4599 10.4161 29.3366 10.2943 29.1879 10.2086C29.0391 10.1229 28.8809 10.0793 28.7133 10.0775C28.5468 10.0751 28.3874 10.121 28.235 10.2151C28.119 10.2868 28.0257 10.3774 27.9551 10.487C27.8838 10.5954 27.8365 10.7134 27.8132 10.841C27.7903 10.9667 27.7918 11.0938 27.8178 11.2223C27.8449 11.3502 27.8984 11.4687 27.9785 11.5779C28.0901 11.7306 28.2205 11.8488 28.3697 11.9326C28.5193 12.0146 28.674 12.0565 28.8339 12.0583C28.9948 12.0594 29.1475 12.0154 29.292 11.9262ZM32.3282 10.4465C32.0826 10.5982 31.8292 10.6574 31.5681 10.6238C31.3074 10.5884 31.0475 10.4654 30.7884 10.2546C30.5305 10.0431 30.2853 9.74911 30.0527 9.37266C29.8209 8.99735 29.6685 8.64761 29.5955 8.32343C29.5229 7.99742 29.5297 7.70958 29.6159 7.45993C29.7025 7.20843 29.8676 7.00751 30.1109 6.85716C30.3543 6.70681 30.6073 6.64954 30.8698 6.68534C31.1328 6.71931 31.3932 6.84204 31.6511 7.05354C31.9095 7.26319 32.1546 7.55568 32.3865 7.93099C32.619 8.30743 32.7716 8.65866 32.8441 8.98468C32.9178 9.30999 32.9115 9.59748 32.8254 9.84713C32.7396 10.0949 32.5739 10.2947 32.3282 10.4465ZM32.1512 10.1599C32.4207 9.99338 32.55 9.73204 32.539 9.37589C32.5272 9.01859 32.3735 8.60054 32.0777 8.12173C31.881 7.80329 31.6784 7.5529 31.4699 7.37057C31.2618 7.1864 31.0567 7.07431 30.8544 7.03428C30.6532 6.99355 30.4634 7.02834 30.2848 7.13864C30.0176 7.30374 29.8899 7.56643 29.9019 7.92671C29.9132 8.28584 30.0664 8.70424 30.3615 9.18191C30.5582 9.50036 30.7602 9.7511 30.9676 9.93413C31.1761 10.1165 31.3805 10.2274 31.581 10.267C31.7826 10.3059 31.9726 10.2702 32.1512 10.1599ZM33.5696 6.83951C33.4297 6.92593 33.2812 6.9705 33.1242 6.97322C32.9672 6.97594 32.8191 6.94094 32.6799 6.86823C32.54 6.79438 32.4268 6.68751 32.3404 6.54762C32.254 6.40773 32.2094 6.25928 32.2067 6.10226C32.204 5.94523 32.239 5.79712 32.3117 5.65793C32.3844 5.51873 32.4907 5.40592 32.6306 5.31951C32.7705 5.23309 32.9189 5.18852 33.0759 5.1858C33.233 5.18308 33.3811 5.21807 33.5203 5.29079C33.6595 5.3635 33.7723 5.4698 33.8587 5.60969C33.9451 5.74958 33.99 5.8986 33.9934 6.05676C33.9962 6.21378 33.9612 6.36189 33.8885 6.50109C33.8157 6.64029 33.7094 6.7531 33.5696 6.83951ZM33.4062 6.57509C33.4983 6.51818 33.5677 6.44472 33.6142 6.35469C33.6618 6.26397 33.6847 6.16738 33.6826 6.06491C33.6818 5.96175 33.6529 5.86411 33.596 5.77198C33.5398 5.681 33.4657 5.61203 33.3739 5.56507C33.2831 5.51741 33.1866 5.49458 33.0841 5.4966C32.9828 5.49791 32.886 5.52702 32.7939 5.58393C32.7029 5.64013 32.6336 5.7136 32.586 5.80432C32.5383 5.89505 32.5149 5.99199 32.5158 6.09516C32.5178 6.19762 32.5469 6.29434 32.6031 6.38533C32.66 6.47745 32.7338 6.54734 32.8246 6.595C32.9164 6.64196 33.0136 6.66443 33.116 6.66242C33.2185 6.66041 33.3152 6.63129 33.4062 6.57509Z" fill="#374365"/>
<path d="M75.4492 6.41701V0.579102" stroke="#374365" stroke-width="0.251093" stroke-miterlimit="10" stroke-linecap="round" stroke-linejoin="round"/>
<path d="M20.8373 50.6105L4.83008 41.3828" stroke="#374365" stroke-width="0.251093" stroke-miterlimit="10" stroke-linecap="round" stroke-linejoin="round"/>
<path d="M75.4482 2.08594L70.803 2.21148L66.1577 2.58812L61.5753 3.27863L56.9928 4.22023L52.4732 5.41292L48.079 6.91948L43.7477 8.61436L39.5419 10.5603L35.4616 12.8202L31.4441 15.2683L27.6777 17.9048L23.9741 20.7924L20.5216 23.8683L17.2574 27.1952L14.1187 30.6478L11.2311 34.3514L8.59464 38.1178L6.14648 42.0725" stroke="#374365" stroke-width="0.251093" stroke-miterlimit="10" stroke-linecap="round" stroke-linejoin="round"/>
<path d="M75.4492 80.9919V60.6533" stroke="#374365" stroke-width="0.251093" stroke-miterlimit="10" stroke-linecap="round" stroke-linejoin="round"/>
<path d="M75.4492 58.7699V56.8867" stroke="#374365" stroke-width="0.251093" stroke-miterlimit="10" stroke-linecap="round" stroke-linejoin="round"/>
<path d="M75.4492 55.0036V32.4053" stroke="#374365" stroke-width="0.251093" stroke-miterlimit="10" stroke-linecap="round" stroke-linejoin="round"/>
<path d="M75.4492 30.5219V28.6387" stroke="#374365" stroke-width="0.251093" stroke-miterlimit="10" stroke-linecap="round" stroke-linejoin="round"/>
<path d="M75.4492 26.7555V6.41699" stroke="#374365" stroke-width="0.251093" stroke-miterlimit="10" stroke-linecap="round" stroke-linejoin="round"/>
<path d="M74.3182 82.1211H54.6074" stroke="#374365" stroke-width="0.251093" stroke-miterlimit="10" stroke-linecap="round" stroke-linejoin="round"/>
<path d="M52.725 82.1221H50.8418" stroke="#374365" stroke-width="0.251093" stroke-miterlimit="10" stroke-linecap="round" stroke-linejoin="round"/>
<path d="M48.9597 82.1211H26.3613" stroke="#374365" stroke-width="0.251093" stroke-miterlimit="10" stroke-linecap="round" stroke-linejoin="round"/>
<path d="M24.477 82.1221H22.5938" stroke="#374365" stroke-width="0.251093" stroke-miterlimit="10" stroke-linecap="round" stroke-linejoin="round"/>
<path d="M20.7108 82.1221H1" stroke="#374365" stroke-width="0.251093" stroke-miterlimit="10" stroke-linecap="round" stroke-linejoin="round"/>
<path d="M75.4492 83.252V103.465" stroke="#374365" stroke-width="0.251093" stroke-miterlimit="10" stroke-linecap="round" stroke-linejoin="round"/>
<path d="M75.4492 105.348V107.231" stroke="#374365" stroke-width="0.251093" stroke-miterlimit="10" stroke-linecap="round" stroke-linejoin="round"/>
<path d="M75.4492 109.114V131.713" stroke="#374365" stroke-width="0.251093" stroke-miterlimit="10" stroke-linecap="round" stroke-linejoin="round"/>
<path d="M75.4492 133.597V135.48" stroke="#374365" stroke-width="0.251093" stroke-miterlimit="10" stroke-linecap="round" stroke-linejoin="round"/>
<path d="M75.4492 137.361V157.574" stroke="#374365" stroke-width="0.251093" stroke-miterlimit="10" stroke-linecap="round" stroke-linejoin="round"/>
<path d="M76.5781 82.1211H96.8539" stroke="#374365" stroke-width="0.251093" stroke-miterlimit="10" stroke-linecap="round" stroke-linejoin="round"/>
<path d="M98.7383 82.1211H100.621" stroke="#374365" stroke-width="0.251093" stroke-miterlimit="10" stroke-linecap="round" stroke-linejoin="round"/>
<path d="M102.504 82.1211H125.102" stroke="#374365" stroke-width="0.251093" stroke-miterlimit="10" stroke-linecap="round" stroke-linejoin="round"/>
<path d="M126.986 82.1211H128.869" stroke="#374365" stroke-width="0.251093" stroke-miterlimit="10" stroke-linecap="round" stroke-linejoin="round"/>
<path d="M130.752 82.1211H151.09" stroke="#374365" stroke-width="0.251093" stroke-miterlimit="10" stroke-linecap="round" stroke-linejoin="round"/>
<path d="M75.4492 127.319V126.314" stroke="#374365" stroke-width="0.251093" stroke-miterlimit="10" stroke-linecap="round" stroke-linejoin="round"/>
<path d="M74.3186 128.448H73.3145" stroke="#374365" stroke-width="0.251093" stroke-miterlimit="10" stroke-linecap="round" stroke-linejoin="round"/>
<path d="M75.4492 129.577V130.581" stroke="#374365" stroke-width="0.251093" stroke-miterlimit="10" stroke-linecap="round" stroke-linejoin="round"/>
<path d="M76.5781 128.448H77.5823" stroke="#374365" stroke-width="0.251093" stroke-miterlimit="10" stroke-linecap="round" stroke-linejoin="round"/>
<path d="M75.4492 34.6653V33.6611" stroke="#374365" stroke-width="0.251093" stroke-miterlimit="10" stroke-linecap="round" stroke-linejoin="round"/>
<path d="M74.3186 35.7949H73.3145" stroke="#374365" stroke-width="0.251093" stroke-miterlimit="10" stroke-linecap="round" stroke-linejoin="round"/>
<path d="M75.4492 36.8623V37.9292" stroke="#374365" stroke-width="0.251093" stroke-miterlimit="10" stroke-linecap="round" stroke-linejoin="round"/>
<path d="M76.5781 35.7949H77.5823" stroke="#374365" stroke-width="0.251093" stroke-miterlimit="10" stroke-linecap="round" stroke-linejoin="round"/>
<path d="M19.8947 50.0444L16.2539 47.9102" stroke="#374365" stroke-width="0.251093" stroke-miterlimit="10" stroke-linecap="round" stroke-linejoin="round"/>
<path d="M21.8398 51.1738L25.5435 53.3081" stroke="#374365" stroke-width="0.251093" stroke-miterlimit="10" stroke-linecap="round" stroke-linejoin="round"/>
<path d="M75.4492 17.9668V13.6982" stroke="#374365" stroke-width="0.251093" stroke-miterlimit="10" stroke-linecap="round" stroke-linejoin="round"/>
<path d="M75.4492 20.2275V24.4961" stroke="#374365" stroke-width="0.251093" stroke-miterlimit="10" stroke-linecap="round" stroke-linejoin="round"/>
<path d="M131.004 50.0444L134.708 47.9102" stroke="#374365" stroke-width="0.251093" stroke-miterlimit="10" stroke-linecap="round" stroke-linejoin="round"/>
<path d="M129.057 51.1738L125.354 53.3081" stroke="#374365" stroke-width="0.251093" stroke-miterlimit="10" stroke-linecap="round" stroke-linejoin="round"/>
<path d="M75.4492 80.9919V56.8242" stroke="#374365" stroke-width="0.251093" stroke-miterlimit="10" stroke-linecap="round" stroke-linejoin="round"/>
<path d="M75.4492 54.9408V53.0576" stroke="#374365" stroke-width="0.251093" stroke-miterlimit="10" stroke-linecap="round" stroke-linejoin="round"/>
<path d="M75.4492 51.1745V28.5762" stroke="#374365" stroke-width="0.251093" stroke-miterlimit="10" stroke-linecap="round" stroke-linejoin="round"/>
<path d="M75.4492 28.5759V27.0068" stroke="#374365" stroke-width="0.251093" stroke-miterlimit="10" stroke-linecap="round" stroke-linejoin="round"/>
<path d="M74.32 82.1211H50.1523" stroke="#374365" stroke-width="0.251093" stroke-miterlimit="10" stroke-linecap="round" stroke-linejoin="round"/>
<path d="M48.268 82.1211H46.3848" stroke="#374365" stroke-width="0.251093" stroke-miterlimit="10" stroke-linecap="round" stroke-linejoin="round"/>
<path d="M44.5027 82.1211H21.9043" stroke="#374365" stroke-width="0.251093" stroke-miterlimit="10" stroke-linecap="round" stroke-linejoin="round"/>
<path d="M21.903 82.1221H20.334" stroke="#374365" stroke-width="0.251093" stroke-miterlimit="10" stroke-linecap="round" stroke-linejoin="round"/>
<path d="M75.4492 83.252V107.42" stroke="#374365" stroke-width="0.251093" stroke-miterlimit="10" stroke-linecap="round" stroke-linejoin="round"/>
<path d="M75.4492 109.303V111.186" stroke="#374365" stroke-width="0.251093" stroke-miterlimit="10" stroke-linecap="round" stroke-linejoin="round"/>
<path d="M75.4492 113.068V135.667" stroke="#374365" stroke-width="0.251093" stroke-miterlimit="10" stroke-linecap="round" stroke-linejoin="round"/>
<path d="M75.4492 135.667V137.236" stroke="#374365" stroke-width="0.251093" stroke-miterlimit="10" stroke-linecap="round" stroke-linejoin="round"/>
<path d="M76.5781 82.1211H100.746" stroke="#374365" stroke-width="0.251093" stroke-miterlimit="10" stroke-linecap="round" stroke-linejoin="round"/>
<path d="M102.631 82.1211H104.514" stroke="#374365" stroke-width="0.251093" stroke-miterlimit="10" stroke-linecap="round" stroke-linejoin="round"/>
<path d="M106.396 82.1211H128.995" stroke="#374365" stroke-width="0.251093" stroke-miterlimit="10" stroke-linecap="round" stroke-linejoin="round"/>
<path d="M128.994 82.1211H130.563" stroke="#374365" stroke-width="0.251093" stroke-miterlimit="10" stroke-linecap="round" stroke-linejoin="round"/>
<path d="M131.004 114.199L134.708 116.334" stroke="#374365" stroke-width="0.251093" stroke-miterlimit="10" stroke-linecap="round" stroke-linejoin="round"/>
<path d="M129.057 113.07L125.354 110.936" stroke="#374365" stroke-width="0.251093" stroke-miterlimit="10" stroke-linecap="round" stroke-linejoin="round"/>
<path d="M75.4492 146.275V150.544" stroke="#374365" stroke-width="0.251093" stroke-miterlimit="10" stroke-linecap="round" stroke-linejoin="round"/>
<path d="M75.4492 144.016V139.747" stroke="#374365" stroke-width="0.251093" stroke-miterlimit="10" stroke-linecap="round" stroke-linejoin="round"/>
<path d="M19.8947 114.199L16.2539 116.334" stroke="#374365" stroke-width="0.251093" stroke-miterlimit="10" stroke-linecap="round" stroke-linejoin="round"/>
<path d="M21.8398 113.07L25.5435 110.936" stroke="#374365" stroke-width="0.251093" stroke-miterlimit="10" stroke-linecap="round" stroke-linejoin="round"/>
<path d="M129.498 49.6681L127.301 46.2783" stroke="#374365" stroke-width="0.251093" stroke-miterlimit="10" stroke-linecap="round" stroke-linejoin="round"/>
<path d="M127.299 46.2776L124.914 43.0762" stroke="#374365" stroke-width="0.251093" stroke-miterlimit="10" stroke-linecap="round" stroke-linejoin="round"/>
<path d="M124.915 43.0766L122.404 40.0635" stroke="#374365" stroke-width="0.251093" stroke-miterlimit="10" stroke-linecap="round" stroke-linejoin="round"/>
<path d="M122.404 40.0633L120.332 37.8662" stroke="#374365" stroke-width="0.251093" stroke-miterlimit="10" stroke-linecap="round" stroke-linejoin="round"/>
<path d="M118.951 36.5482L117.57 35.293" stroke="#374365" stroke-width="0.251093" stroke-miterlimit="10" stroke-linecap="round" stroke-linejoin="round"/>
<path d="M116.189 34.0373L113.615 31.9658" stroke="#374365" stroke-width="0.251093" stroke-miterlimit="10" stroke-linecap="round" stroke-linejoin="round"/>
<path d="M113.616 31.9662L110.352 29.6436" stroke="#374365" stroke-width="0.251093" stroke-miterlimit="10" stroke-linecap="round" stroke-linejoin="round"/>
<path d="M110.351 29.6438L106.961 27.5723" stroke="#374365" stroke-width="0.251093" stroke-miterlimit="10" stroke-linecap="round" stroke-linejoin="round"/>
<path d="M106.961 27.5717L103.445 25.6885" stroke="#374365" stroke-width="0.251093" stroke-miterlimit="10" stroke-linecap="round" stroke-linejoin="round"/>
<path d="M103.446 25.688L99.8047 23.9932" stroke="#374365" stroke-width="0.251093" stroke-miterlimit="10" stroke-linecap="round" stroke-linejoin="round"/>
<path d="M99.8044 23.9937L96.7285 22.7383" stroke="#374365" stroke-width="0.251093" stroke-miterlimit="10" stroke-linecap="round" stroke-linejoin="round"/>
<path d="M94.9081 22.1724L93.1504 21.6074" stroke="#374365" stroke-width="0.251093" stroke-miterlimit="10" stroke-linecap="round" stroke-linejoin="round"/>
<path d="M91.331 21.169L88.4434 20.4785" stroke="#374365" stroke-width="0.251093" stroke-miterlimit="10" stroke-linecap="round" stroke-linejoin="round"/>
<path d="M88.443 20.4779L84.4883 19.7246" stroke="#374365" stroke-width="0.251093" stroke-miterlimit="10" stroke-linecap="round" stroke-linejoin="round"/>
<path d="M84.4879 19.7246L80.5332 19.2852" stroke="#374365" stroke-width="0.251093" stroke-miterlimit="10" stroke-linecap="round" stroke-linejoin="round"/>
<path d="M80.5329 19.286L76.5781 19.0977" stroke="#374365" stroke-width="0.251093" stroke-miterlimit="10" stroke-linecap="round" stroke-linejoin="round"/>
<path d="M74.3199 19.0977L70.3652 19.286" stroke="#374365" stroke-width="0.251093" stroke-miterlimit="10" stroke-linecap="round" stroke-linejoin="round"/>
<path d="M70.3649 19.2852L66.4102 19.7246" stroke="#374365" stroke-width="0.251093" stroke-miterlimit="10" stroke-linecap="round" stroke-linejoin="round"/>
<path d="M66.4098 19.7246L62.4551 20.4779" stroke="#374365" stroke-width="0.251093" stroke-miterlimit="10" stroke-linecap="round" stroke-linejoin="round"/>
<path d="M62.4559 20.4785L59.5684 21.169" stroke="#374365" stroke-width="0.251093" stroke-miterlimit="10" stroke-linecap="round" stroke-linejoin="round"/>
<path d="M57.7462 21.6709L55.9258 22.1731" stroke="#374365" stroke-width="0.251093" stroke-miterlimit="10" stroke-linecap="round" stroke-linejoin="round"/>
<path d="M54.1696 22.7383L51.0938 23.9937" stroke="#374365" stroke-width="0.251093" stroke-miterlimit="10" stroke-linecap="round" stroke-linejoin="round"/>
<path d="M51.094 23.9932L47.4531 25.688" stroke="#374365" stroke-width="0.251093" stroke-miterlimit="10" stroke-linecap="round" stroke-linejoin="round"/>
<path d="M47.4528 25.6885L43.9375 27.5717" stroke="#374365" stroke-width="0.251093" stroke-miterlimit="10" stroke-linecap="round" stroke-linejoin="round"/>
<path d="M43.9366 27.5723L40.5469 29.6438" stroke="#374365" stroke-width="0.251093" stroke-miterlimit="10" stroke-linecap="round" stroke-linejoin="round"/>
<path d="M40.5474 29.6436L37.2832 31.9662" stroke="#374365" stroke-width="0.251093" stroke-miterlimit="10" stroke-linecap="round" stroke-linejoin="round"/>
<path d="M37.2827 31.9658L34.709 34.0373" stroke="#374365" stroke-width="0.251093" stroke-miterlimit="10" stroke-linecap="round" stroke-linejoin="round"/>
<path d="M33.2655 35.293L31.8848 36.5482" stroke="#374365" stroke-width="0.251093" stroke-miterlimit="10" stroke-linecap="round" stroke-linejoin="round"/>
<path d="M30.5654 37.8662L28.5566 40.0633" stroke="#374365" stroke-width="0.251093" stroke-miterlimit="10" stroke-linecap="round" stroke-linejoin="round"/>
<path d="M28.5581 40.0635L25.9844 43.0766" stroke="#374365" stroke-width="0.251093" stroke-miterlimit="10" stroke-linecap="round" stroke-linejoin="round"/>
<path d="M25.983 43.0762L23.5977 46.2776" stroke="#374365" stroke-width="0.251093" stroke-miterlimit="10" stroke-linecap="round" stroke-linejoin="round"/>
<path d="M23.5991 46.2783L21.4648 49.6681" stroke="#374365" stroke-width="0.251093" stroke-miterlimit="10" stroke-linecap="round" stroke-linejoin="round"/>
<path d="M130.564 112.693L132.385 109.115" stroke="#374365" stroke-width="0.251093" stroke-miterlimit="10" stroke-linecap="round" stroke-linejoin="round"/>
<path d="M132.385 109.114L134.017 105.473" stroke="#374365" stroke-width="0.251093" stroke-miterlimit="10" stroke-linecap="round" stroke-linejoin="round"/>
<path d="M134.016 105.474L135.334 101.708" stroke="#374365" stroke-width="0.251093" stroke-miterlimit="10" stroke-linecap="round" stroke-linejoin="round"/>
<path d="M135.334 101.708L136.15 98.8203" stroke="#374365" stroke-width="0.251093" stroke-miterlimit="10" stroke-linecap="round" stroke-linejoin="round"/>
<path d="M136.652 96.9991L137.029 95.1787" stroke="#374365" stroke-width="0.251093" stroke-miterlimit="10" stroke-linecap="round" stroke-linejoin="round"/>
<path d="M137.406 93.358L137.971 90.0938" stroke="#374365" stroke-width="0.251093" stroke-miterlimit="10" stroke-linecap="round" stroke-linejoin="round"/>
<path d="M137.971 90.0937L138.347 86.0762" stroke="#374365" stroke-width="0.251093" stroke-miterlimit="10" stroke-linecap="round" stroke-linejoin="round"/>
<path d="M138.348 86.0768L138.473 82.1221" stroke="#374365" stroke-width="0.251093" stroke-miterlimit="10" stroke-linecap="round" stroke-linejoin="round"/>
<path d="M138.473 82.1217L138.348 78.167" stroke="#374365" stroke-width="0.251093" stroke-miterlimit="10" stroke-linecap="round" stroke-linejoin="round"/>
<path d="M138.347 78.1669L137.971 74.1494" stroke="#374365" stroke-width="0.251093" stroke-miterlimit="10" stroke-linecap="round" stroke-linejoin="round"/>
<path d="M137.971 74.1502L137.406 70.8232" stroke="#374365" stroke-width="0.251093" stroke-miterlimit="10" stroke-linecap="round" stroke-linejoin="round"/>
<path d="M137.029 69.0021L136.652 67.1816" stroke="#374365" stroke-width="0.251093" stroke-miterlimit="10" stroke-linecap="round" stroke-linejoin="round"/>
<path d="M136.15 65.3609L135.334 62.5361" stroke="#374365" stroke-width="0.251093" stroke-miterlimit="10" stroke-linecap="round" stroke-linejoin="round"/>
<path d="M135.334 62.5359L134.016 58.7695" stroke="#374365" stroke-width="0.251093" stroke-miterlimit="10" stroke-linecap="round" stroke-linejoin="round"/>
<path d="M134.017 58.7707L132.385 55.1299" stroke="#374365" stroke-width="0.251093" stroke-miterlimit="10" stroke-linecap="round" stroke-linejoin="round"/>
<path d="M132.385 55.1289L130.564 51.5508" stroke="#374365" stroke-width="0.251093" stroke-miterlimit="10" stroke-linecap="round" stroke-linejoin="round"/>
<path d="M76.5781 145.146L80.5329 144.958" stroke="#374365" stroke-width="0.251093" stroke-miterlimit="10" stroke-linecap="round" stroke-linejoin="round"/>
<path d="M80.5332 144.957L84.4879 144.455" stroke="#374365" stroke-width="0.251093" stroke-miterlimit="10" stroke-linecap="round" stroke-linejoin="round"/>
<path d="M84.4883 144.455L88.443 143.765" stroke="#374365" stroke-width="0.251093" stroke-miterlimit="10" stroke-linecap="round" stroke-linejoin="round"/>
<path d="M88.4434 143.765L91.331 143.012" stroke="#374365" stroke-width="0.251093" stroke-miterlimit="10" stroke-linecap="round" stroke-linejoin="round"/>
<path d="M93.0879 142.51L94.9083 141.945" stroke="#374365" stroke-width="0.251093" stroke-miterlimit="10" stroke-linecap="round" stroke-linejoin="round"/>
<path d="M96.7285 141.38L99.8044 140.25" stroke="#374365" stroke-width="0.251093" stroke-miterlimit="10" stroke-linecap="round" stroke-linejoin="round"/>
<path d="M99.8047 140.25L103.446 138.555" stroke="#374365" stroke-width="0.251093" stroke-miterlimit="10" stroke-linecap="round" stroke-linejoin="round"/>
<path d="M103.445 138.555L106.961 136.672" stroke="#374365" stroke-width="0.251093" stroke-miterlimit="10" stroke-linecap="round" stroke-linejoin="round"/>
<path d="M106.961 136.672L110.351 134.601" stroke="#374365" stroke-width="0.251093" stroke-miterlimit="10" stroke-linecap="round" stroke-linejoin="round"/>
<path d="M110.352 134.601L113.616 132.278" stroke="#374365" stroke-width="0.251093" stroke-miterlimit="10" stroke-linecap="round" stroke-linejoin="round"/>
<path d="M113.615 132.278L116.189 130.144" stroke="#374365" stroke-width="0.251093" stroke-miterlimit="10" stroke-linecap="round" stroke-linejoin="round"/>
<path d="M117.57 128.888L118.951 127.633" stroke="#374365" stroke-width="0.251093" stroke-miterlimit="10" stroke-linecap="round" stroke-linejoin="round"/>
<path d="M120.332 126.314L122.404 124.18" stroke="#374365" stroke-width="0.251093" stroke-miterlimit="10" stroke-linecap="round" stroke-linejoin="round"/>
<path d="M122.404 124.179L124.915 121.166" stroke="#374365" stroke-width="0.251093" stroke-miterlimit="10" stroke-linecap="round" stroke-linejoin="round"/>
<path d="M124.914 121.166L127.299 117.965" stroke="#374365" stroke-width="0.251093" stroke-miterlimit="10" stroke-linecap="round" stroke-linejoin="round"/>
<path d="M127.301 117.965L129.498 114.575" stroke="#374365" stroke-width="0.251093" stroke-miterlimit="10" stroke-linecap="round" stroke-linejoin="round"/>
<path d="M20.3341 51.5508L18.5137 55.1289" stroke="#374365" stroke-width="0.251093" stroke-miterlimit="10" stroke-linecap="round" stroke-linejoin="round"/>
<path d="M18.5146 55.1299L16.9453 58.7707" stroke="#374365" stroke-width="0.251093" stroke-miterlimit="10" stroke-linecap="round" stroke-linejoin="round"/>
<path d="M16.9435 58.7695L15.5625 62.5359" stroke="#374365" stroke-width="0.251093" stroke-miterlimit="10" stroke-linecap="round" stroke-linejoin="round"/>
<path d="M15.5624 62.5361L14.6836 65.3609" stroke="#374365" stroke-width="0.251093" stroke-miterlimit="10" stroke-linecap="round" stroke-linejoin="round"/>
<path d="M14.1833 67.1816L13.8066 69.0021" stroke="#374365" stroke-width="0.251093" stroke-miterlimit="10" stroke-linecap="round" stroke-linejoin="round"/>
<path d="M13.4299 70.8223L12.9277 74.1492" stroke="#374365" stroke-width="0.251093" stroke-miterlimit="10" stroke-linecap="round" stroke-linejoin="round"/>
<path d="M12.9274 74.1494L12.5508 78.1669" stroke="#374365" stroke-width="0.251093" stroke-miterlimit="10" stroke-linecap="round" stroke-linejoin="round"/>
<path d="M12.5494 78.166L12.4238 82.1207" stroke="#374365" stroke-width="0.251093" stroke-miterlimit="10" stroke-linecap="round" stroke-linejoin="round"/>
<path d="M12.4238 82.1211L12.5494 86.0758" stroke="#374365" stroke-width="0.251093" stroke-miterlimit="10" stroke-linecap="round" stroke-linejoin="round"/>
<path d="M12.5508 86.0762L12.9274 90.0937" stroke="#374365" stroke-width="0.251093" stroke-miterlimit="10" stroke-linecap="round" stroke-linejoin="round"/>
<path d="M12.9277 90.0938L13.4299 93.358" stroke="#374365" stroke-width="0.251093" stroke-miterlimit="10" stroke-linecap="round" stroke-linejoin="round"/>
<path d="M13.8066 95.1787L14.1833 96.9991" stroke="#374365" stroke-width="0.251093" stroke-miterlimit="10" stroke-linecap="round" stroke-linejoin="round"/>
<path d="M14.6836 98.8203L15.5624 101.708" stroke="#374365" stroke-width="0.251093" stroke-miterlimit="10" stroke-linecap="round" stroke-linejoin="round"/>
<path d="M15.5625 101.708L16.9435 105.474" stroke="#374365" stroke-width="0.251093" stroke-miterlimit="10" stroke-linecap="round" stroke-linejoin="round"/>
<path d="M16.9453 105.473L18.5146 109.114" stroke="#374365" stroke-width="0.251093" stroke-miterlimit="10" stroke-linecap="round" stroke-linejoin="round"/>
<path d="M18.5137 109.114L20.3341 112.692" stroke="#374365" stroke-width="0.251093" stroke-miterlimit="10" stroke-linecap="round" stroke-linejoin="round"/>
<path d="M21.4648 114.575L23.5991 117.965" stroke="#374365" stroke-width="0.251093" stroke-miterlimit="10" stroke-linecap="round" stroke-linejoin="round"/>
<path d="M23.5977 117.965L25.983 121.166" stroke="#374365" stroke-width="0.251093" stroke-miterlimit="10" stroke-linecap="round" stroke-linejoin="round"/>
<path d="M25.9844 121.166L28.5581 124.179" stroke="#374365" stroke-width="0.251093" stroke-miterlimit="10" stroke-linecap="round" stroke-linejoin="round"/>
<path d="M28.5566 124.18L30.5654 126.314" stroke="#374365" stroke-width="0.251093" stroke-miterlimit="10" stroke-linecap="round" stroke-linejoin="round"/>
<path d="M31.8848 127.633L33.2655 128.888" stroke="#374365" stroke-width="0.251093" stroke-miterlimit="10" stroke-linecap="round" stroke-linejoin="round"/>
<path d="M34.709 130.144L37.2827 132.278" stroke="#374365" stroke-width="0.251093" stroke-miterlimit="10" stroke-linecap="round" stroke-linejoin="round"/>
<path d="M37.2832 132.278L40.5474 134.601" stroke="#374365" stroke-width="0.251093" stroke-miterlimit="10" stroke-linecap="round" stroke-linejoin="round"/>
<path d="M40.5469 134.601L43.9366 136.672" stroke="#374365" stroke-width="0.251093" stroke-miterlimit="10" stroke-linecap="round" stroke-linejoin="round"/>
<path d="M43.9375 136.672L47.4528 138.555" stroke="#374365" stroke-width="0.251093" stroke-miterlimit="10" stroke-linecap="round" stroke-linejoin="round"/>
<path d="M47.4531 138.555L51.094 140.25" stroke="#374365" stroke-width="0.251093" stroke-miterlimit="10" stroke-linecap="round" stroke-linejoin="round"/>
<path d="M51.0938 140.25L54.1696 141.38" stroke="#374365" stroke-width="0.251093" stroke-miterlimit="10" stroke-linecap="round" stroke-linejoin="round"/>
<path d="M55.9258 141.945L57.7462 142.51" stroke="#374365" stroke-width="0.251093" stroke-miterlimit="10" stroke-linecap="round" stroke-linejoin="round"/>
<path d="M59.5684 143.012L62.4559 143.765" stroke="#374365" stroke-width="0.251093" stroke-miterlimit="10" stroke-linecap="round" stroke-linejoin="round"/>
<path d="M62.4551 143.765L66.4098 144.455" stroke="#374365" stroke-width="0.251093" stroke-miterlimit="10" stroke-linecap="round" stroke-linejoin="round"/>
<path d="M66.4102 144.455L70.3649 144.957" stroke="#374365" stroke-width="0.251093" stroke-miterlimit="10" stroke-linecap="round" stroke-linejoin="round"/>
<path d="M70.3652 144.958L74.3199 145.146" stroke="#374365" stroke-width="0.251093" stroke-miterlimit="10" stroke-linecap="round" stroke-linejoin="round"/>
<path d="M75.4492 82.1215V81.5566" stroke="#374365" stroke-width="0.251093" stroke-miterlimit="10" stroke-linecap="round" stroke-linejoin="round"/>
<path d="M130.062 113.634L130.502 113.885" stroke="#374365" stroke-width="0.251093" stroke-miterlimit="10" stroke-linecap="round" stroke-linejoin="round"/>
<path d="M75.4492 145.146V144.581" stroke="#374365" stroke-width="0.251093" stroke-miterlimit="10" stroke-linecap="round" stroke-linejoin="round"/>
<path d="M75.4492 82.1215V81.5566" stroke="#374365" stroke-width="0.251093" stroke-miterlimit="10" stroke-linecap="round" stroke-linejoin="round"/>
<path d="M75.4496 82.1211H74.8848" stroke="#374365" stroke-width="0.251093" stroke-miterlimit="10" stroke-linecap="round" stroke-linejoin="round"/>
<path d="M75.4492 82.1221V82.6869" stroke="#374365" stroke-width="0.251093" stroke-miterlimit="10" stroke-linecap="round" stroke-linejoin="round"/>
<path d="M75.4492 82.1221H76.0141" stroke="#374365" stroke-width="0.251093" stroke-miterlimit="10" stroke-linecap="round" stroke-linejoin="round"/>
<path d="M75.4492 128.448V127.883" stroke="#374365" stroke-width="0.251093" stroke-miterlimit="10" stroke-linecap="round" stroke-linejoin="round"/>
<path d="M75.4496 128.448H74.8848" stroke="#374365" stroke-width="0.251093" stroke-miterlimit="10" stroke-linecap="round" stroke-linejoin="round"/>
<path d="M75.4492 128.448V129.013" stroke="#374365" stroke-width="0.251093" stroke-miterlimit="10" stroke-linecap="round" stroke-linejoin="round"/>
<path d="M75.4492 128.448H76.0141" stroke="#374365" stroke-width="0.251093" stroke-miterlimit="10" stroke-linecap="round" stroke-linejoin="round"/>
<path d="M75.4492 82.1221V82.6869" stroke="#374365" stroke-width="0.251093" stroke-miterlimit="10" stroke-linecap="round" stroke-linejoin="round"/>
<path d="M75.4492 145.146H76.0141" stroke="#374365" stroke-width="0.251093" stroke-miterlimit="10" stroke-linecap="round" stroke-linejoin="round"/>
<path d="M75.4496 145.146H74.8848" stroke="#374365" stroke-width="0.251093" stroke-miterlimit="10" stroke-linecap="round" stroke-linejoin="round"/>
<path d="M20.8984 113.634L21.3378 113.383" stroke="#374365" stroke-width="0.251093" stroke-miterlimit="10" stroke-linecap="round" stroke-linejoin="round"/>
<path d="M20.8986 113.634L20.3965 113.885" stroke="#374365" stroke-width="0.251093" stroke-miterlimit="10" stroke-linecap="round" stroke-linejoin="round"/>
<path d="M130.062 50.6094V50.6721L130.125 50.7349V50.7977L130.188 50.8604V50.9232L130.251 50.9859V51.0487L130.314 51.1115" stroke="#374365" stroke-width="0.251093" stroke-miterlimit="10" stroke-linecap="round" stroke-linejoin="round"/>
<path d="M75.4496 82.1211H74.8848" stroke="#374365" stroke-width="0.251093" stroke-miterlimit="10" stroke-linecap="round" stroke-linejoin="round"/>
<path d="M75.4492 35.7953V35.2305" stroke="#374365" stroke-width="0.251093" stroke-miterlimit="10" stroke-linecap="round" stroke-linejoin="round"/>
<path d="M75.4496 35.7949H74.8848" stroke="#374365" stroke-width="0.251093" stroke-miterlimit="10" stroke-linecap="round" stroke-linejoin="round"/>
<path d="M75.4492 35.7949V36.3598" stroke="#374365" stroke-width="0.251093" stroke-miterlimit="10" stroke-linecap="round" stroke-linejoin="round"/>
<path d="M75.4492 35.7949H76.0141" stroke="#374365" stroke-width="0.251093" stroke-miterlimit="10" stroke-linecap="round" stroke-linejoin="round"/>
<path d="M130.061 113.634L129.559 113.383" stroke="#374365" stroke-width="0.251093" stroke-miterlimit="10" stroke-linecap="round" stroke-linejoin="round"/>
<path d="M20.8997 113.634L20.837 113.571V113.508L20.7742 113.446L20.7115 113.383V113.32L20.6487 113.257V113.195L20.5859 113.132" stroke="#374365" stroke-width="0.251093" stroke-miterlimit="10" stroke-linecap="round" stroke-linejoin="round"/>
<path d="M130.062 113.634L129.999 113.697L129.936 113.759V113.822L129.874 113.885V113.948L129.811 114.01V114.073L129.748 114.136" stroke="#374365" stroke-width="0.251093" stroke-miterlimit="10" stroke-linecap="round" stroke-linejoin="round"/>
<path d="M75.4492 145.146V145.71" stroke="#374365" stroke-width="0.251093" stroke-miterlimit="10" stroke-linecap="round" stroke-linejoin="round"/>
<path d="M20.8984 113.634V113.697L20.9612 113.759V113.822L21.024 113.885V113.948L21.0867 114.01L21.1495 114.073V114.136" stroke="#374365" stroke-width="0.251093" stroke-miterlimit="10" stroke-linecap="round" stroke-linejoin="round"/>
<path d="M130.062 113.634V113.571L130.125 113.508V113.446L130.188 113.383V113.32L130.251 113.257V113.195L130.314 113.132" stroke="#374365" stroke-width="0.251093" stroke-miterlimit="10" stroke-linecap="round" stroke-linejoin="round"/>
<path d="M75.4492 82.1221H76.0141" stroke="#374365" stroke-width="0.251093" stroke-miterlimit="10" stroke-linecap="round" stroke-linejoin="round"/>
<path d="M20.8986 50.6104L20.3965 50.3594" stroke="#374365" stroke-width="0.251093" stroke-miterlimit="10" stroke-linecap="round" stroke-linejoin="round"/>
<path d="M20.8997 50.6094L20.837 50.6721V50.7349L20.7742 50.7977L20.7115 50.8604V50.9232L20.6487 50.9859V51.0487L20.5859 51.1115" stroke="#374365" stroke-width="0.251093" stroke-miterlimit="10" stroke-linecap="round" stroke-linejoin="round"/>
<path d="M20.8984 50.6094L21.3378 50.8604" stroke="#374365" stroke-width="0.251093" stroke-miterlimit="10" stroke-linecap="round" stroke-linejoin="round"/>
<path d="M75.4492 19.0971V18.5322" stroke="#374365" stroke-width="0.251093" stroke-miterlimit="10" stroke-linecap="round" stroke-linejoin="round"/>
<path d="M75.4496 19.0977H74.8848" stroke="#374365" stroke-width="0.251093" stroke-miterlimit="10" stroke-linecap="round" stroke-linejoin="round"/>
<path d="M75.4492 19.0967V19.6615" stroke="#374365" stroke-width="0.251093" stroke-miterlimit="10" stroke-linecap="round" stroke-linejoin="round"/>
<path d="M75.4492 19.0967H76.0141" stroke="#374365" stroke-width="0.251093" stroke-miterlimit="10" stroke-linecap="round" stroke-linejoin="round"/>
<path d="M130.062 50.6104L130.502 50.3594" stroke="#374365" stroke-width="0.251093" stroke-miterlimit="10" stroke-linecap="round" stroke-linejoin="round"/>
<path d="M130.062 50.6095L129.999 50.5467L129.936 50.484V50.4212L129.874 50.3585V50.2957L129.811 50.2329V50.1702L129.748 50.1074" stroke="#374365" stroke-width="0.251093" stroke-miterlimit="10" stroke-linecap="round" stroke-linejoin="round"/>
<path d="M130.061 50.6094L129.559 50.8604" stroke="#374365" stroke-width="0.251093" stroke-miterlimit="10" stroke-linecap="round" stroke-linejoin="round"/>
<path d="M109.096 155.064V165.485" stroke="#374365" stroke-width="0.251093" stroke-miterlimit="10" stroke-linecap="round" stroke-linejoin="round"/>
<path d="M109.096 165.484H160.884" stroke="#374365" stroke-width="0.251093" stroke-miterlimit="10" stroke-linecap="round" stroke-linejoin="round"/>
<path d="M160.884 155.064H109.096" stroke="#374365" stroke-width="0.251093" stroke-miterlimit="10" stroke-linecap="round" stroke-linejoin="round"/>
<path d="M109.096 155.064V165.485" stroke="#374365" stroke-width="0.251093" stroke-miterlimit="10" stroke-linecap="round" stroke-linejoin="round"/>
<path d="M109.096 165.484H119.453" stroke="#374365" stroke-width="0.251093" stroke-miterlimit="10" stroke-linecap="round" stroke-linejoin="round"/>
<path d="M119.453 155.064H109.096" stroke="#374365" stroke-width="0.251093" stroke-miterlimit="10" stroke-linecap="round" stroke-linejoin="round"/>
<path d="M119.453 155.064V165.485" stroke="#374365" stroke-width="0.251093" stroke-miterlimit="10" stroke-linecap="round" stroke-linejoin="round"/>
<path d="M140.168 155.064V165.485" stroke="#374365" stroke-width="0.251093" stroke-miterlimit="10" stroke-linecap="round" stroke-linejoin="round"/>
<path d="M123.533 162.912L125.542 157.89" stroke="#374365" stroke-width="0.251093" stroke-miterlimit="10" stroke-linecap="round" stroke-linejoin="round"/>
<path d="M130.186 162.122C129.897 162.122 129.65 162.039 129.446 161.873C129.243 161.706 129.086 161.465 128.976 161.149C128.868 160.834 128.814 160.455 128.814 160.012C128.814 159.571 128.868 159.193 128.976 158.879C129.086 158.564 129.243 158.322 129.448 158.155C129.654 157.987 129.9 157.903 130.186 157.903C130.472 157.903 130.717 157.987 130.922 158.155C131.127 158.322 131.284 158.564 131.393 158.879C131.502 159.193 131.557 159.571 131.557 160.012C131.557 160.455 131.502 160.834 131.393 161.149C131.284 161.465 131.128 161.706 130.924 161.873C130.72 162.039 130.474 162.122 130.186 162.122ZM130.186 161.785C130.502 161.785 130.75 161.63 130.928 161.321C131.105 161.011 131.194 160.575 131.194 160.012C131.194 159.638 131.153 159.318 131.072 159.054C130.992 158.788 130.876 158.584 130.725 158.444C130.575 158.304 130.396 158.233 130.186 158.233C129.871 158.233 129.625 158.39 129.446 158.703C129.267 159.014 129.177 159.451 129.177 160.012C129.177 160.386 129.217 160.706 129.297 160.971C129.379 161.235 129.495 161.437 129.644 161.576C129.795 161.715 129.976 161.785 130.186 161.785ZM132.748 161.504L132.712 161.719C132.689 161.863 132.657 162.022 132.616 162.196C132.574 162.37 132.531 162.535 132.487 162.691C132.443 162.847 132.405 162.973 132.373 163.068H132.098C132.116 162.977 132.138 162.862 132.164 162.721C132.192 162.581 132.221 162.425 132.251 162.254C132.28 162.084 132.307 161.909 132.331 161.729L132.359 161.504H132.748ZM133.617 162.065V161.791L134.958 160.283C135.133 160.085 135.274 159.916 135.381 159.775C135.488 159.635 135.566 159.505 135.614 159.386C135.663 159.267 135.688 159.144 135.688 159.015C135.688 158.859 135.651 158.723 135.578 158.606C135.506 158.489 135.406 158.397 135.279 158.332C135.152 158.266 135.009 158.233 134.85 158.233C134.681 158.233 134.534 158.27 134.407 158.342C134.281 158.414 134.183 158.513 134.114 158.639C134.044 158.764 134.01 158.909 134.01 159.072H133.651C133.651 158.844 133.703 158.643 133.807 158.468C133.913 158.292 134.056 158.153 134.238 158.053C134.421 157.953 134.629 157.903 134.86 157.903C135.088 157.903 135.292 157.952 135.469 158.051C135.647 158.149 135.787 158.282 135.889 158.45C135.99 158.618 136.041 158.807 136.041 159.015C136.041 159.167 136.014 159.313 135.961 159.455C135.909 159.596 135.818 159.754 135.69 159.928C135.562 160.102 135.384 160.314 135.157 160.566L134.138 161.702V161.729H136.169V162.065H133.617Z" fill="#374365"/>
<path d="M140.168 155.064V165.485" stroke="#374365" stroke-width="0.251093" stroke-miterlimit="10" stroke-linecap="round" stroke-linejoin="round"/>
<path d="M150.525 155.064V165.485" stroke="#374365" stroke-width="0.251093" stroke-miterlimit="10" stroke-linecap="round" stroke-linejoin="round"/>
<path d="M144.124 162.267V158.16H145.509C145.777 158.16 145.999 158.207 146.177 158.3C146.356 158.394 146.49 158.522 146.58 158.683C146.67 158.845 146.714 159.029 146.714 159.235C146.714 159.406 146.686 159.552 146.628 159.674C146.571 159.796 146.492 159.894 146.393 159.969C146.295 160.043 146.184 160.098 146.063 160.131V160.163C146.195 160.172 146.323 160.219 146.448 160.303C146.572 160.386 146.674 160.503 146.754 160.652C146.835 160.802 146.875 160.981 146.875 161.19C146.875 161.397 146.829 161.582 146.736 161.745C146.644 161.907 146.502 162.035 146.311 162.128C146.121 162.22 145.879 162.267 145.585 162.267H144.124ZM144.499 161.93H145.585C145.902 161.93 146.136 161.86 146.287 161.719C146.44 161.579 146.516 161.402 146.516 161.19C146.516 161.033 146.478 160.892 146.401 160.765C146.327 160.636 146.22 160.535 146.083 160.46C145.946 160.385 145.786 160.348 145.601 160.348H144.499V161.93ZM144.499 160.015H145.543C145.705 160.015 145.847 159.981 145.968 159.914C146.09 159.848 146.185 159.755 146.253 159.638C146.321 159.52 146.355 159.386 146.355 159.235C146.355 159.017 146.284 158.84 146.143 158.703C146.001 158.566 145.79 158.497 145.509 158.497H144.499V160.015Z" fill="#374365"/>
<path d="M160.883 155.064V165.485" stroke="#374365" stroke-width="0.251093" stroke-miterlimit="10" stroke-linecap="round" stroke-linejoin="round"/>
<path d="M157.614 158.16V158.497H155.59V162.267H155.215V158.16H157.614Z" fill="#374365"/>
<path d="M160.883 155.064V165.485" stroke="#374365" stroke-width="0.251093" stroke-miterlimit="10" stroke-linecap="round" stroke-linejoin="round"/>
<path d="M161.26 35.7949V128.448" stroke="#374365" stroke-width="0.251093" stroke-miterlimit="10" stroke-linecap="round" stroke-linejoin="round"/>
<path d="M71.3066 142.698L79.6555 147.532" stroke="#374365" stroke-width="0.251093" stroke-miterlimit="10" stroke-linecap="round" stroke-linejoin="round"/>
<path d="M79.6543 147.531L101.688 160.274" stroke="#374365" stroke-width="0.251093" stroke-miterlimit="10" stroke-linecap="round" stroke-linejoin="round"/>
<path d="M129.953 152.789V152.514L131.295 151.006C131.47 150.809 131.611 150.639 131.718 150.499C131.825 150.359 131.902 150.229 131.95 150.11C132 149.991 132.025 149.867 132.025 149.739C132.025 149.583 131.988 149.446 131.914 149.33C131.842 149.212 131.743 149.121 131.616 149.055C131.489 148.99 131.346 148.957 131.186 148.957C131.018 148.957 130.87 148.993 130.743 149.065C130.618 149.138 130.52 149.236 130.451 149.362C130.381 149.488 130.346 149.632 130.346 149.795H129.987C129.987 149.568 130.04 149.367 130.144 149.192C130.249 149.015 130.393 148.877 130.575 148.777C130.758 148.676 130.965 148.626 131.197 148.626C131.425 148.626 131.628 148.676 131.806 148.775C131.984 148.872 132.124 149.005 132.225 149.174C132.327 149.342 132.378 149.531 132.378 149.739C132.378 149.89 132.351 150.037 132.297 150.178C132.245 150.32 132.155 150.478 132.027 150.652C131.898 150.825 131.721 151.038 131.493 151.289L130.475 152.426V152.452H132.506V152.789H129.953ZM134.631 152.845C134.461 152.844 134.295 152.81 134.134 152.743C133.972 152.675 133.826 152.566 133.697 152.416C133.567 152.265 133.464 152.066 133.388 151.819C133.312 151.571 133.273 151.267 133.273 150.906C133.273 150.572 133.303 150.266 133.362 149.988C133.421 149.71 133.509 149.469 133.626 149.266C133.744 149.063 133.891 148.906 134.068 148.795C134.244 148.682 134.451 148.626 134.687 148.626C134.909 148.626 135.105 148.672 135.275 148.765C135.444 148.855 135.582 148.982 135.688 149.146C135.793 149.309 135.86 149.496 135.886 149.709H135.517C135.48 149.492 135.391 149.314 135.251 149.174C135.11 149.033 134.922 148.963 134.687 148.963C134.35 148.963 134.09 149.12 133.905 149.432C133.721 149.744 133.628 150.186 133.626 150.76H133.652C133.718 150.638 133.802 150.533 133.905 150.445C134.009 150.355 134.128 150.286 134.26 150.236C134.392 150.186 134.531 150.16 134.677 150.16C134.906 150.16 135.115 150.218 135.305 150.335C135.495 150.45 135.646 150.608 135.76 150.81C135.874 151.01 135.93 151.24 135.93 151.498C135.93 151.742 135.876 151.968 135.768 152.173C135.661 152.379 135.51 152.543 135.315 152.665C135.121 152.786 134.893 152.847 134.631 152.845ZM134.631 152.508C134.81 152.508 134.97 152.463 135.11 152.372C135.252 152.281 135.364 152.159 135.445 152.007C135.527 151.853 135.567 151.684 135.567 151.498C135.567 151.312 135.527 151.143 135.445 150.992C135.364 150.841 135.252 150.721 135.11 150.631C134.97 150.542 134.81 150.497 134.631 150.497C134.495 150.497 134.368 150.525 134.25 150.581C134.132 150.636 134.03 150.712 133.943 150.808C133.858 150.903 133.792 151.012 133.747 151.135C133.703 151.258 133.686 151.387 133.697 151.522C133.711 151.71 133.76 151.879 133.843 152.029C133.927 152.177 134.037 152.294 134.172 152.38C134.308 152.466 134.461 152.508 134.631 152.508Z" fill="#374365"/>
<path d="M124.664 154.311L127.238 147.971" stroke="#374365" stroke-width="0.251093" stroke-miterlimit="10" stroke-linecap="round" stroke-linejoin="round"/>
<path d="M128.126 151.428C128.162 151.217 128.162 151.001 128.126 150.79V150.79C128.079 150.504 127.968 150.232 127.802 149.995L127.764 149.942C127.665 149.8 127.549 149.67 127.419 149.554L127.335 149.48C127.147 149.312 126.928 149.181 126.69 149.095V149.095C126.471 149.015 126.24 148.975 126.007 148.975H125.923C125.672 148.975 125.422 149.019 125.186 149.104V149.104C124.965 149.185 124.759 149.301 124.576 149.447L124.503 149.506C124.319 149.653 124.163 149.831 124.042 150.033V150.033C123.914 150.246 123.827 150.481 123.786 150.727L123.781 150.757C123.742 150.99 123.742 151.228 123.781 151.461L123.789 151.508C123.828 151.743 123.906 151.969 124.02 152.177V152.177C124.155 152.425 124.338 152.644 124.559 152.82L124.576 152.833C124.759 152.98 124.965 153.096 125.186 153.176V153.176C125.422 153.262 125.672 153.306 125.923 153.306H126.007C126.24 153.306 126.471 153.265 126.69 153.186V153.186C126.928 153.099 127.147 152.969 127.335 152.801L127.376 152.765C127.534 152.624 127.672 152.462 127.786 152.284L127.829 152.216C127.977 151.983 128.077 151.721 128.123 151.448L128.126 151.428Z" stroke="#374365" stroke-width="0.251093" stroke-miterlimit="10" stroke-linecap="round" stroke-linejoin="round"/>
<path d="M126.198 160.604C126.223 160.455 126.223 160.303 126.198 160.155V160.155C126.163 159.956 126.084 159.768 125.966 159.605L125.934 159.562C125.863 159.464 125.781 159.375 125.689 159.296L125.629 159.245C125.49 159.125 125.329 159.033 125.156 158.972V158.972C124.999 158.917 124.833 158.889 124.667 158.889H124.6C124.42 158.889 124.241 158.919 124.071 158.979V158.979C123.91 159.035 123.759 159.117 123.624 159.221L123.57 159.263C123.44 159.363 123.329 159.486 123.242 159.625V159.625C123.149 159.776 123.085 159.943 123.055 160.117L123.052 160.132C123.024 160.296 123.024 160.463 123.052 160.626L123.057 160.653C123.086 160.82 123.143 160.981 123.227 161.128V161.128C123.323 161.299 123.454 161.45 123.609 161.57L123.626 161.583C123.76 161.686 123.91 161.767 124.07 161.823V161.823C124.239 161.883 124.42 161.914 124.6 161.914H124.667C124.833 161.914 124.999 161.885 125.156 161.83V161.83C125.329 161.77 125.49 161.677 125.629 161.557L125.653 161.538C125.769 161.438 125.87 161.323 125.954 161.195L125.985 161.149C126.091 160.988 126.162 160.807 126.195 160.617L126.198 160.604Z" stroke="#374365" stroke-width="0.251093" stroke-miterlimit="10" stroke-linecap="round" stroke-linejoin="round"/>
<path d="M110.1 160.212H118.574" stroke="#374365" stroke-width="0.251093" stroke-miterlimit="10" stroke-linecap="round" stroke-linejoin="round"/>
<path d="M114.369 164.417V156.006" stroke="#374365" stroke-width="0.251093" stroke-miterlimit="10" stroke-linecap="round" stroke-linejoin="round"/>
<path d="M116.511 160.499C116.546 160.288 116.546 160.072 116.511 159.861V159.861C116.463 159.575 116.353 159.304 116.186 159.066L116.149 159.013C116.05 158.871 115.934 158.741 115.804 158.626L115.72 158.551C115.531 158.383 115.312 158.253 115.075 158.166V158.166C114.856 158.087 114.625 158.046 114.392 158.046H114.308C114.056 158.046 113.807 158.09 113.571 158.176V158.176C113.35 158.256 113.144 158.372 112.96 158.519L112.888 158.577C112.704 158.724 112.548 158.903 112.426 159.104V159.104C112.299 159.318 112.212 159.553 112.171 159.798L112.166 159.828C112.127 160.061 112.127 160.299 112.166 160.532L112.174 160.579C112.213 160.814 112.291 161.04 112.405 161.249V161.249C112.54 161.496 112.723 161.715 112.944 161.891L112.96 161.905C113.144 162.051 113.35 162.167 113.571 162.247V162.247C113.807 162.333 114.056 162.377 114.308 162.377H114.392C114.625 162.377 114.856 162.337 115.075 162.257V162.257C115.312 162.171 115.531 162.04 115.72 161.872L115.761 161.836C115.919 161.695 116.057 161.533 116.171 161.355L116.213 161.288C116.362 161.054 116.462 160.793 116.508 160.519L116.511 160.499Z" stroke="#374365" stroke-width="0.251093" stroke-miterlimit="10" stroke-linecap="round" stroke-linejoin="round"/>
<path d="M71.3051 142.698L63.584 138.304" stroke="#374365" stroke-width="0.251093" stroke-miterlimit="10" stroke-linecap="round" stroke-linejoin="round"/>
<path d="M101.688 160.274H109.095" stroke="#374365" stroke-width="0.251093" stroke-miterlimit="10" stroke-linecap="round" stroke-linejoin="round"/>
<path d="M158.043 86.5227H157.768L156.26 85.1812C156.062 85.006 155.893 84.865 155.753 84.7581C155.613 84.6511 155.483 84.5736 155.364 84.5255C155.245 84.476 155.121 84.4513 154.993 84.4513C154.837 84.4513 154.7 84.488 154.584 84.5616C154.466 84.6337 154.375 84.7333 154.309 84.8603C154.244 84.9873 154.211 85.1304 154.211 85.2894C154.211 85.4579 154.247 85.6056 154.319 85.7326C154.391 85.8583 154.49 85.9558 154.616 86.0254C154.742 86.0949 154.886 86.1296 155.049 86.1296V86.4886C154.822 86.4886 154.621 86.4364 154.446 86.3322C154.269 86.2265 154.131 86.0828 154.031 85.901C153.93 85.7179 153.88 85.5107 153.88 85.2794C153.88 85.0508 153.93 84.8476 154.029 84.6698C154.126 84.492 154.259 84.3523 154.428 84.2507C154.596 84.1491 154.784 84.0983 154.993 84.0983C155.144 84.0983 155.29 84.1251 155.432 84.1786C155.574 84.2307 155.732 84.3209 155.905 84.4493C156.079 84.5776 156.292 84.7554 156.543 84.9826L157.68 86.0013H157.706V83.97H158.043V86.5227ZM158.099 81.9372C158.099 82.1658 158.053 82.3703 157.961 82.5508C157.867 82.7299 157.739 82.8729 157.576 82.9799C157.413 83.0855 157.226 83.1416 157.016 83.1483V82.7854C157.234 82.7734 157.413 82.6878 157.554 82.5287C157.693 82.3696 157.762 82.1725 157.762 81.9372C157.762 81.754 157.719 81.5909 157.632 81.4479C157.544 81.3049 157.423 81.1932 157.271 81.113C157.117 81.0315 156.944 80.9907 156.752 80.9907C156.551 80.992 156.375 81.0355 156.222 81.1211C156.068 81.2066 155.948 81.3229 155.861 81.47C155.774 81.6157 155.731 81.7794 155.731 81.9612C155.73 82.0989 155.752 82.2339 155.799 82.3663C155.846 82.4986 155.906 82.6089 155.98 82.6972L155.931 83.0721L153.936 82.8255V80.7962H154.273V82.5107L155.647 82.6751V82.655C155.571 82.5641 155.508 82.4539 155.46 82.3242C155.412 82.1932 155.388 82.0548 155.388 81.9091C155.388 81.6671 155.446 81.4499 155.563 81.2574C155.679 81.0636 155.839 80.9105 156.044 80.7982C156.247 80.6846 156.481 80.6278 156.746 80.6278C157.005 80.6278 157.237 80.6846 157.441 80.7982C157.645 80.9105 157.805 81.0656 157.923 81.2634C158.04 81.4599 158.099 81.6845 158.099 81.9372ZM158.099 78.5613C158.099 78.8501 158.016 79.0967 157.85 79.3013C157.683 79.5045 157.442 79.6609 157.127 79.7705C156.811 79.8788 156.432 79.9329 155.99 79.9329C155.548 79.9329 155.171 79.8788 154.857 79.7705C154.541 79.6609 154.3 79.5038 154.133 79.2993C153.964 79.0934 153.88 78.8474 153.88 78.5613C153.88 78.2753 153.964 78.03 154.133 77.8254C154.3 77.6196 154.541 77.4625 154.857 77.3542C155.171 77.2446 155.548 77.1898 155.99 77.1898C156.432 77.1898 156.811 77.2446 157.127 77.3542C157.442 77.4625 157.683 77.6189 157.85 77.8234C158.016 78.0266 158.099 78.2726 158.099 78.5613ZM157.762 78.5613C157.762 78.2445 157.608 77.9972 157.299 77.8194C156.989 77.6416 156.552 77.5527 155.99 77.5527C155.615 77.5527 155.296 77.5935 155.031 77.675C154.765 77.7552 154.562 77.8709 154.422 78.0219C154.281 78.1717 154.211 78.3515 154.211 78.5613C154.211 78.8755 154.367 79.1221 154.68 79.3013C154.992 79.4804 155.428 79.57 155.99 79.57C156.364 79.57 156.683 79.5299 156.948 79.4497C157.213 79.3681 157.415 79.2525 157.554 79.1028C157.693 78.9517 157.762 78.7712 157.762 78.5613Z" fill="#374365"/>
<path d="M75.4492 35.7949H162.767" stroke="#374365" stroke-width="0.251093" stroke-miterlimit="10" stroke-linecap="round" stroke-linejoin="round"/>
<path d="M75.4492 128.448H162.767" stroke="#374365" stroke-width="0.251093" stroke-miterlimit="10" stroke-linecap="round" stroke-linejoin="round"/>
<path d="M112.37 152.845C112.201 152.844 112.035 152.81 111.873 152.743C111.711 152.675 111.566 152.566 111.436 152.416C111.306 152.265 111.203 152.066 111.127 151.819C111.051 151.571 111.013 151.267 111.013 150.906C111.013 150.572 111.042 150.266 111.101 149.988C111.16 149.71 111.248 149.469 111.366 149.266C111.483 149.063 111.63 148.906 111.807 148.795C111.983 148.682 112.19 148.626 112.426 148.626C112.648 148.626 112.844 148.672 113.014 148.765C113.184 148.855 113.321 148.982 113.427 149.146C113.533 149.309 113.599 149.496 113.626 149.709H113.257C113.219 149.492 113.13 149.314 112.99 149.174C112.85 149.033 112.662 148.963 112.426 148.963C112.09 148.963 111.829 149.12 111.644 149.432C111.46 149.744 111.367 150.186 111.366 150.76H111.392C111.457 150.638 111.541 150.533 111.644 150.445C111.749 150.355 111.867 150.286 111.999 150.236C112.132 150.186 112.271 150.16 112.416 150.16C112.645 150.16 112.854 150.218 113.044 150.335C113.234 150.45 113.386 150.608 113.499 150.81C113.613 151.01 113.67 151.24 113.67 151.498C113.67 151.742 113.616 151.968 113.507 152.173C113.4 152.379 113.249 152.543 113.054 152.665C112.86 152.786 112.632 152.847 112.37 152.845ZM112.37 152.508C112.549 152.508 112.709 152.463 112.85 152.372C112.991 152.281 113.103 152.159 113.184 152.007C113.266 151.853 113.307 151.684 113.307 151.498C113.307 151.312 113.266 151.143 113.184 150.992C113.103 150.841 112.991 150.721 112.85 150.631C112.709 150.542 112.549 150.497 112.37 150.497C112.234 150.497 112.107 150.525 111.989 150.581C111.872 150.636 111.769 150.712 111.683 150.808C111.597 150.903 111.531 151.012 111.486 151.135C111.442 151.258 111.425 151.387 111.436 151.522C111.451 151.71 111.499 151.879 111.582 152.029C111.666 152.177 111.776 152.294 111.911 152.38C112.047 152.466 112.201 152.508 112.37 152.508ZM116.216 149.709L117.01 151.022L117.805 149.709H118.22L117.229 151.249L118.22 152.789H117.805L117.01 151.518L116.216 152.789H115.803L116.782 151.249L115.803 149.709H116.216Z" fill="#374365"/>
<path d="M135.523 28.011L138.097 21.6709" stroke="#374365" stroke-width="0.251093" stroke-miterlimit="10" stroke-linecap="round" stroke-linejoin="round"/>
<path d="M139.039 24.8101L138.913 24.0568L138.537 23.4291L137.909 22.9269L137.219 22.6758H136.402L135.712 22.9269L135.147 23.4291L134.708 24.0568L134.582 24.8101L134.708 25.5634L135.147 26.2539L135.712 26.756L136.402 27.0071H137.219L137.909 26.756L138.537 26.2539L138.913 25.5634L139.039 24.8101Z" stroke="#374365" stroke-width="0.251093" stroke-miterlimit="10" stroke-linecap="round" stroke-linejoin="round"/>
<path d="M142.148 26.6001C141.895 26.6001 141.67 26.5546 141.47 26.4637C141.271 26.3715 141.113 26.2438 140.997 26.0807C140.881 25.9176 140.819 25.7298 140.813 25.5173H141.192C141.198 25.667 141.244 25.798 141.33 25.9103C141.416 26.0213 141.529 26.1081 141.671 26.171C141.813 26.2325 141.97 26.2632 142.144 26.2632C142.334 26.2632 142.501 26.2278 142.645 26.1569C142.791 26.0861 142.905 25.9892 142.986 25.8662C143.069 25.7419 143.111 25.6015 143.111 25.4451C143.111 25.2793 143.068 25.1329 142.984 25.0059C142.9 24.8789 142.779 24.78 142.621 24.7092C142.465 24.6383 142.278 24.6029 142.06 24.6029H141.819V24.266H142.06C142.238 24.266 142.395 24.2339 142.531 24.1698C142.669 24.1043 142.777 24.0127 142.856 23.8951C142.935 23.7774 142.974 23.6391 142.974 23.48C142.974 23.3289 142.94 23.1959 142.872 23.0809C142.804 22.966 142.708 22.8757 142.583 22.8102C142.46 22.7447 142.317 22.712 142.152 22.712C141.993 22.712 141.847 22.7427 141.715 22.8042C141.583 22.8657 141.476 22.9526 141.394 23.0649C141.314 23.1772 141.271 23.3102 141.266 23.4639H140.903C140.908 23.25 140.967 23.0622 141.079 22.9005C141.193 22.7374 141.343 22.6104 141.53 22.5195C141.719 22.4272 141.928 22.3811 142.156 22.3811C142.398 22.3811 142.607 22.4306 142.784 22.5295C142.96 22.6284 143.097 22.7601 143.193 22.9245C143.29 23.0876 143.339 23.2674 143.339 23.4639C143.339 23.6979 143.276 23.8984 143.149 24.0655C143.022 24.2313 142.851 24.3462 142.635 24.4104V24.4365C142.897 24.4886 143.103 24.6049 143.253 24.7854C143.404 24.9645 143.48 25.1844 143.48 25.4451C143.48 25.6643 143.422 25.8615 143.307 26.0366C143.192 26.2104 143.034 26.3481 142.834 26.4497C142.635 26.55 142.406 26.6001 142.148 26.6001ZM144.422 26.5439L146.293 22.8002V22.7741H144.137V22.4373H146.686V22.7902L144.817 26.5439H144.422ZM148.61 26.6001C148.348 26.6001 148.115 26.5506 147.91 26.4517C147.706 26.3528 147.545 26.2178 147.429 26.0467C147.313 25.8742 147.254 25.6797 147.254 25.4631C147.254 25.2934 147.29 25.1349 147.361 24.9879C147.432 24.8395 147.529 24.7152 147.653 24.6149C147.778 24.5133 147.918 24.4472 148.073 24.4164V24.3944C147.871 24.3355 147.708 24.2199 147.585 24.0475C147.462 23.8737 147.402 23.6765 147.403 23.4559C147.402 23.2514 147.454 23.0682 147.559 22.9065C147.665 22.7447 147.809 22.6171 147.99 22.5235C148.174 22.4286 148.38 22.3811 148.61 22.3811C148.839 22.3811 149.044 22.4286 149.226 22.5235C149.407 22.6171 149.551 22.7447 149.657 22.9065C149.764 23.0682 149.818 23.2514 149.819 23.4559C149.818 23.6751 149.756 23.8723 149.633 24.0475C149.51 24.2212 149.348 24.3369 149.147 24.3944V24.4164C149.302 24.4458 149.441 24.5113 149.564 24.6129C149.687 24.7145 149.785 24.8395 149.857 24.9879C149.929 25.1349 149.966 25.2934 149.966 25.4631C149.966 25.6797 149.907 25.8742 149.789 26.0467C149.673 26.2178 149.512 26.3528 149.308 26.4517C149.105 26.5506 148.872 26.6001 148.61 26.6001ZM148.61 26.2632C148.805 26.2632 148.976 26.2285 149.123 26.1589C149.272 26.0881 149.387 25.9912 149.47 25.8682C149.554 25.7452 149.597 25.6042 149.597 25.4451C149.597 25.2807 149.553 25.1343 149.466 25.0059C149.379 24.8763 149.262 24.774 149.113 24.6991C148.965 24.6229 148.797 24.5848 148.61 24.5848C148.423 24.5848 148.254 24.6229 148.105 24.6991C147.956 24.774 147.839 24.8763 147.752 25.0059C147.666 25.1343 147.623 25.2807 147.623 25.4451C147.623 25.6042 147.664 25.7452 147.746 25.8682C147.829 25.9912 147.944 26.0881 148.093 26.1589C148.242 26.2285 148.415 26.2632 148.61 26.2632ZM148.61 24.264C148.77 24.264 148.914 24.2299 149.041 24.1617C149.168 24.0936 149.268 24.0007 149.342 23.883C149.417 23.764 149.455 23.629 149.456 23.478C149.455 23.3282 149.417 23.1959 149.344 23.0809C149.27 22.9646 149.17 22.8744 149.043 22.8102C148.917 22.7447 148.773 22.712 148.61 22.712C148.447 22.712 148.301 22.7447 148.173 22.8102C148.046 22.8744 147.946 22.9646 147.872 23.0809C147.8 23.1959 147.764 23.3282 147.766 23.478C147.764 23.629 147.801 23.764 147.874 23.883C147.949 24.0007 148.05 24.0936 148.177 24.1617C148.305 24.2299 148.45 24.264 148.61 24.264Z" fill="#374365"/>
<path d="M124.977 32.5938L128.806 28.7646" stroke="#374365" stroke-width="0.251093" stroke-miterlimit="10" stroke-linecap="round" stroke-linejoin="round"/>
<path d="M25.9219 131.65L124.978 32.5938" stroke="#374365" stroke-width="0.251093" stroke-miterlimit="10" stroke-linecap="round" stroke-linejoin="round"/>
<path d="M128.807 28.7646H152.158" stroke="#374365" stroke-width="0.251093" stroke-miterlimit="10" stroke-linecap="round" stroke-linejoin="round"/>
<circle cx="75.4156" cy="128.436" r="1.76459" stroke="#374365" stroke-width="0.705836"/>
<circle cx="75.4156" cy="35.8716" r="1.76459" stroke="#374365" stroke-width="0.705836"/>
<path d="M8.23992 38.8858L9.06487 38.8859C9.24418 38.8859 9.33432 39.1024 9.20799 39.2296L6.38608 42.0721C6.23522 42.2241 5.98277 42.0672 6.05218 41.8646L7.34021 38.1062C7.39813 37.9372 7.63097 37.9214 7.71118 38.0811L8.05973 38.7747C8.09396 38.8428 8.16368 38.8858 8.23992 38.8858Z" fill="#374365"/>
<path d="M28.8832 128.764L29.686 128.954C29.8604 128.996 29.8983 129.227 29.746 129.322L26.345 131.437C26.1631 131.551 25.9536 131.34 26.0679 131.159L28.1874 127.798C28.2827 127.647 28.5129 127.685 28.5542 127.859L28.7335 128.615C28.7511 128.689 28.809 128.747 28.8832 128.764Z" fill="#374365"/>
<path d="M122.013 35.4174L121.211 35.2273C121.036 35.1859 120.998 34.9545 121.15 34.8598L124.552 32.7442C124.733 32.6311 124.943 32.8419 124.829 33.023L122.709 36.3834C122.614 36.5345 122.384 36.4962 122.342 36.3224L122.163 35.5671C122.145 35.4929 122.087 35.435 122.013 35.4174Z" fill="#374365"/>
<path d="M83.1416 149.407L83.8701 149.02C84.0284 148.936 84.0065 148.702 83.8352 148.649L80.0095 147.463C79.8049 147.4 79.6556 147.657 79.812 147.803L82.7129 150.518C82.8434 150.64 83.0564 150.544 83.0523 150.366L83.0346 149.59C83.0329 149.513 83.0743 149.443 83.1416 149.407Z" fill="#374365"/>
<path d="M67.5615 140.603L66.833 140.99C66.6747 141.074 66.6967 141.308 66.8679 141.361L70.6937 142.547C70.8982 142.61 71.0475 142.353 70.8912 142.207L67.9902 139.492C67.8598 139.37 67.6467 139.465 67.6508 139.644L67.6685 140.42C67.6702 140.496 67.6288 140.567 67.5615 140.603Z" fill="#374365"/>
<path d="M71.515 2.06992L71.0684 1.37632C70.9713 1.22556 71.1045 1.03257 71.2799 1.06989L75.1976 1.90357C75.407 1.94814 75.4118 2.24532 75.2039 2.29662L71.3466 3.24845C71.1732 3.29125 71.0338 3.10404 71.1246 2.95017L71.5191 2.28159C71.5579 2.21592 71.5563 2.13403 71.515 2.06992Z" fill="#374365"/>
<path d="M161.126 124.51L160.421 124.081C160.267 123.988 160.078 124.126 160.12 124.301L161.054 128.196C161.104 128.404 161.402 128.401 161.448 128.192L162.299 124.311C162.338 124.137 162.147 124.002 161.995 124.097L161.337 124.509C161.273 124.549 161.191 124.55 161.126 124.51Z" fill="#374365"/>
<path d="M161.126 39.7069L160.421 40.1354C160.267 40.2285 160.078 40.0904 160.12 39.916L161.054 36.0212C161.104 35.813 161.402 35.8159 161.448 36.0251L162.299 39.9057C162.338 40.0802 162.147 40.2146 161.995 40.1199L161.337 39.7082C161.273 39.6678 161.191 39.6673 161.126 39.7069Z" fill="#374365"/>
</svg>
