<svg width="297" height="302" viewBox="0 0 297 302" fill="none" xmlns="http://www.w3.org/2000/svg">
<path d="M41.8018 148.636L41.9154 153.41L42.37 158.069L42.9383 162.729L43.7339 167.389L44.7568 172.049L46.1206 176.595L47.5981 181.027L49.3029 185.46L51.3487 189.665L53.5081 193.87L55.8948 197.962L58.3952 201.94L61.2365 205.804L64.1915 209.441L67.2602 212.964L70.6698 216.26L74.0794 219.556L77.7163 222.511L81.5806 225.352L85.4448 227.966L89.5363 230.353L93.6279 232.626L97.9467 234.672L102.266 236.377L106.812 237.968L111.244 239.332L115.904 240.468L120.564 241.378L125.224 241.946L129.883 242.4L134.657 242.628L139.317 242.514L144.09 242.287L148.75 241.719L153.41 240.923L158.07 239.9L162.616 238.65L167.048 237.286L171.481 235.581L175.799 233.649L180.005 231.49L184.096 229.217L188.188 226.716L191.938 223.989L195.689 221.034L199.212 217.965L202.622 214.669L205.918 211.259L208.986 207.622L211.828 203.872L214.555 200.008L216.942 195.916L219.215 191.825L221.375 187.619L223.193 183.187L224.784 178.754L226.262 174.322L227.398 169.662L228.308 165.116L228.989 160.456L229.558 155.683L229.785 151.023V146.249L229.558 141.59L228.989 136.816L228.308 132.156L227.398 127.61L226.262 122.95L224.784 118.518L223.193 114.085L221.375 109.653L219.215 105.448L216.942 101.356L214.555 97.2647L211.828 93.4005L208.986 89.6499L205.918 86.013L202.622 82.6034L199.212 79.3074L195.689 76.2387L191.938 73.2837L188.188 70.5561L184.096 68.0557L180.005 65.7826L175.799 63.6232L171.481 61.6911L167.048 59.9863L162.616 58.5088L158.07 57.3722L153.41 56.3493L148.75 55.5538L144.09 54.9855L139.317 54.7582L134.657 54.6445L129.883 54.8718L125.224 55.2128L120.564 55.8947L115.904 56.804L111.244 57.9405L106.812 59.3043L102.266 60.7818L97.9467 62.6003L93.6279 64.6461L89.5363 66.9191L85.4448 69.3059L81.5806 71.9199L77.7163 74.7612L74.0794 77.7162L70.6698 80.8985L67.2602 84.3082L64.1915 87.8314L61.2365 91.4683L58.3952 95.3326L55.8948 99.3104L53.5081 103.402L51.3487 107.607L49.3029 111.812L47.5981 116.245L46.1206 120.677L44.7568 125.223L43.7339 129.883L42.9383 134.543L42.37 139.203L41.9154 143.863L41.8018 148.636Z" stroke="#374365" stroke-width="1.25019" stroke-miterlimit="10" stroke-linecap="round" stroke-linejoin="round"/>
<path d="M38.5059 148.636L38.6195 143.862L38.9605 138.975L39.5287 134.202L40.438 129.542L41.4609 124.768L42.711 120.109L44.3022 115.563L46.007 111.13L47.9391 106.698L50.2122 102.379L52.5989 98.2871L55.0993 94.1956L57.9406 90.2177L60.8956 86.4672L64.0779 82.8302L67.3739 79.4206L70.8972 76.1247L74.6477 72.9424L78.3983 69.9874L82.3762 67.2597L86.4677 64.7593L90.6729 62.3726L94.9918 60.3268L99.4243 58.3947L103.857 56.6899L108.517 55.2124L113.176 53.9622L117.836 52.9393L122.61 52.2574L127.383 51.6891L132.157 51.3481H137.044L141.817 51.4618L146.591 51.9164L151.364 52.5983L156.137 53.5076L160.797 54.5305L165.457 55.8943L170.003 57.4854L174.436 59.3039L178.755 61.3497L183.073 63.5091L187.165 66.0095L191.256 68.6235L195.121 71.4649L198.871 74.5335L202.508 77.7158L205.918 81.1254L209.1 84.6487L212.169 88.3993L215.124 92.2635L217.851 96.2414L220.238 100.333L222.625 104.538L224.671 108.857L226.489 113.289L228.194 117.836L229.558 122.495L230.694 127.155L231.717 131.815L232.399 136.588L232.854 141.362L233.081 146.249V151.022L232.854 155.796L232.399 160.683L231.717 165.343L230.694 170.116L229.558 174.776L228.194 179.436L226.489 183.868L224.671 188.415L222.625 192.733L220.238 196.939L217.851 201.03L215.124 205.008L212.169 208.872L209.1 212.623L205.918 216.146L202.508 219.556L198.871 222.738L195.121 225.807L191.256 228.648L187.165 231.262L183.073 233.649L178.755 235.922L174.436 237.968L170.003 239.786L165.457 241.377L160.797 242.741L156.137 243.764L151.364 244.673L146.591 245.355L141.817 245.81L137.044 245.923H132.157L127.383 245.582L122.61 245.014L117.836 244.332L113.176 243.309L108.517 242.059L103.857 240.582L99.4243 238.877L94.9918 236.945L90.6729 234.899L86.4677 232.512L82.3762 230.012L78.3983 227.17L74.6477 224.329L70.8972 221.147L67.3739 217.851L64.0779 214.441L60.8956 210.804L57.9406 207.054L55.0993 203.076L52.5989 198.984L50.2122 194.893L47.9391 190.574L46.007 186.141L44.3022 181.709L42.711 177.049L41.4609 172.503L40.438 167.73L39.5287 163.07L38.9605 158.296L38.6195 153.409L38.5059 148.636Z" stroke="#374365" stroke-width="1.25019" stroke-miterlimit="10" stroke-linecap="round" stroke-linejoin="round"/>
<path d="M68.3965 148.635L68.5101 144.658L68.8511 140.68L69.4194 136.702L70.3286 132.838L71.3515 128.973L72.6017 125.109L74.0792 121.472L75.784 117.835L77.7161 114.312L79.8755 111.016L82.2622 107.72L84.7626 104.651L87.4903 101.696L90.3317 98.8551L93.2866 96.2411L96.469 93.8543L99.7649 91.5813L103.288 89.5355L106.811 87.717L110.448 86.1259L114.199 84.762L118.063 83.6255L121.927 82.6026L125.905 81.9207L129.769 81.4661L133.861 81.2388H137.839L141.817 81.4661L145.795 81.9207L149.659 82.6026L153.523 83.6255L157.387 84.762L161.138 86.1259L164.775 87.717L168.412 89.5355L171.821 91.5813L175.117 93.8543L178.3 96.2411L181.368 98.8551L184.21 101.696L186.824 104.651L189.438 107.72L191.711 111.016L193.87 114.312L195.802 117.835L197.507 121.472L198.985 125.109L200.235 128.973L201.371 132.838L202.167 136.702L202.735 140.68L203.076 144.658L203.19 148.635L203.076 152.613L202.735 156.591L202.167 160.569L201.371 164.433L200.235 168.298L198.985 172.162L197.507 175.799L195.802 179.436L193.87 182.959L191.711 186.255L189.438 189.551L186.824 192.619L184.21 195.574L181.368 198.416L178.3 201.03L175.117 203.417L171.821 205.69L168.412 207.622L164.775 209.44L161.138 211.145L157.387 212.509L153.523 213.645L149.659 214.555L145.795 215.35L141.817 215.805L137.839 216.032H133.861L129.769 215.805L125.905 215.35L121.927 214.555L118.063 213.645L114.199 212.509L110.448 211.145L106.811 209.44L103.288 207.622L99.7649 205.69L96.469 203.417L93.2866 201.03L90.3317 198.416L87.4903 195.574L84.7626 192.619L82.2622 189.551L79.8755 186.255L77.7161 182.959L75.784 179.436L74.0792 175.799L72.6017 172.162L71.3515 168.298L70.3286 164.433L69.4194 160.569L68.8511 156.591L68.5101 152.613L68.3965 148.635Z" stroke="#374365" stroke-width="1.25019" stroke-miterlimit="10" stroke-linecap="round" stroke-linejoin="round"/>
<path d="M71.9199 148.637L72.0336 152.501L72.3745 156.365L72.9428 160.229L73.7384 164.093L74.8749 167.844L76.1251 171.481L77.6026 175.118L79.3074 178.641L81.2395 182.051L83.399 185.233L85.7857 188.415L88.2861 191.37L90.9001 194.212L93.8551 196.826L96.8101 199.326L99.9924 201.599L103.288 203.645L106.698 205.577L110.221 207.168L113.858 208.646L117.495 209.896L121.359 210.919L125.11 211.714L128.974 212.169L132.838 212.51H136.816L140.68 212.396L144.545 211.942L148.409 211.26L152.159 210.464L155.91 209.328L159.547 207.964L163.184 206.373L166.593 204.668L170.003 202.622L173.185 200.463L176.368 198.076L179.209 195.576L182.05 192.848L184.664 189.893L187.051 186.824L189.324 183.642L191.37 180.346L193.188 176.823L194.78 173.299L196.143 169.663L197.394 165.912L198.303 162.161L198.985 158.297L199.439 154.433L199.667 150.569V146.704L199.439 142.84L198.985 138.976L198.303 135.112L197.394 131.248L196.143 127.611L194.78 123.974L193.188 120.337L191.37 116.927L189.324 113.631L187.051 110.449L184.664 107.38L182.05 104.425L179.209 101.698L176.368 99.1972L173.185 96.8105L170.003 94.6511L166.593 92.6053L163.184 90.9005L159.547 89.3093L155.91 87.9455L152.159 86.8089L148.409 85.8997L144.545 85.3314L140.68 84.8768L136.816 84.7632H132.838L128.974 85.1041L125.11 85.5588L121.359 86.3543L117.495 87.3772L113.858 88.6274L110.221 89.9913L106.698 91.6961L103.288 93.6282L99.9924 95.6739L96.8101 97.947L93.8551 100.447L90.9001 103.061L88.2861 105.903L85.7857 108.858L83.399 112.04L81.2395 115.222L79.3074 118.632L77.6026 122.155L76.1251 125.792L74.8749 129.429L73.7384 133.18L72.9428 137.044L72.3745 140.908L72.0336 144.772L71.9199 148.637Z" stroke="#374365" stroke-width="1.25019" stroke-miterlimit="10" stroke-linecap="round" stroke-linejoin="round"/>
<path d="M35.0957 148.636L35.2094 143.749L35.5503 138.861L36.2322 134.088L37.0278 129.315L38.0507 124.541L39.3009 119.881L40.892 115.221L42.5968 110.675L44.529 106.243L46.6884 101.81L49.0751 97.6051L51.5755 93.5136L54.3032 89.4221L57.2582 85.5579L60.4405 81.9209L63.7364 78.284L67.2597 74.8744L70.8966 71.6921L74.6472 68.6234L78.6251 65.7821L82.7166 63.0544L86.9218 60.6677L91.2406 58.3946L95.5595 56.3488L100.106 54.5304L104.652 52.8256L109.312 51.4617L114.085 50.3252L118.858 49.416L123.632 48.734L128.519 48.1658L133.406 47.9385H138.293L143.067 48.1658L147.954 48.734L152.727 49.416L157.501 50.3252L162.274 51.4617L166.934 52.8256L171.48 54.5304L176.026 56.3488L180.459 58.3946L184.778 60.6677L188.983 63.0544L192.961 65.7821L196.939 68.6234L200.689 71.6921L204.326 74.8744L207.849 78.284L211.145 81.9209L214.328 85.5579L217.283 89.4221L220.01 93.5136L222.624 97.6051L224.897 101.81L227.057 106.243L229.103 110.675L230.807 115.221L232.285 119.881L233.535 124.541L234.558 129.315L235.467 134.088L236.035 138.861L236.376 143.749L236.49 148.636L236.376 153.523L236.035 158.296L235.467 163.183L234.558 167.957L233.535 172.73L232.285 177.39L230.807 182.05L229.103 186.596L227.057 191.029L224.897 195.461L222.624 199.666L220.01 203.758L217.283 207.849L214.328 211.713L211.145 215.35L207.849 218.987L204.326 222.397L200.689 225.579L196.939 228.648L192.961 231.489L188.983 234.103L184.778 236.604L180.459 238.877L176.026 240.922L171.48 242.741L166.934 244.332L162.274 245.81L157.501 246.946L152.727 247.855L147.954 248.537L143.067 248.992L138.293 249.333H133.406L128.519 248.992L123.632 248.537L118.858 247.855L114.085 246.946L109.312 245.81L104.652 244.332L100.106 242.741L95.5595 240.922L91.2406 238.877L86.9218 236.604L82.7166 234.103L78.6251 231.489L74.6472 228.648L70.8966 225.579L67.2597 222.397L63.7364 218.987L60.4405 215.35L57.2582 211.713L54.3032 207.849L51.5755 203.758L49.0751 199.666L46.6884 195.461L44.529 191.029L42.5968 186.596L40.892 182.05L39.3009 177.39L38.0507 172.73L37.0278 167.957L36.2322 163.183L35.5503 158.296L35.2094 153.523L35.0957 148.636Z" stroke="#374365" stroke-width="1.25019" stroke-miterlimit="10" stroke-linecap="round" stroke-linejoin="round"/>
<path d="M28.3316 92.2868C28.2955 91.8176 28.2955 91.3462 28.3316 90.877L28.334 90.846C28.3719 90.3525 28.4513 89.863 28.5714 89.3829L28.5854 89.327C28.683 88.9366 28.8097 88.554 28.9644 88.1826L29.0051 88.0851C29.2013 87.6142 29.4478 87.1659 29.7403 86.748V86.748C29.9769 86.4101 30.2425 86.0935 30.5342 85.8018L31.1187 85.2173L31.7027 84.7501C32.0703 84.456 32.4631 84.1947 32.8764 83.9692V83.9692C33.2949 83.741 33.7329 83.5503 34.1852 83.3996L34.8693 83.1715L35.4885 83.0167C35.983 82.8931 36.4909 82.8306 37.0006 82.8306V82.8306C37.4724 82.8306 37.9427 82.8841 38.4024 82.9902L39.1881 83.1715L39.8722 83.3996C40.3245 83.5503 40.7624 83.741 41.181 83.9692V83.9692C41.5943 84.1947 41.987 84.456 42.3547 84.7501L42.3803 84.7706C42.7519 85.0679 43.0976 85.3961 43.4137 85.7517L43.8479 86.2402L44.1428 86.6615C44.4756 87.1369 44.7561 87.6469 44.9793 88.1826V88.1826C45.134 88.554 45.2608 88.9366 45.3584 89.327L45.3723 89.3829C45.4924 89.863 45.5718 90.3525 45.6098 90.846L45.6121 90.877C45.6482 91.3462 45.6482 91.8176 45.6121 92.2868L45.6098 92.3179C45.5718 92.8113 45.4924 93.3008 45.3723 93.7809L45.3584 93.8368C45.2608 94.2272 45.134 94.6098 44.9793 94.9812V94.9812C44.7561 95.5169 44.4756 96.0269 44.1428 96.5023L43.8479 96.9236L43.4137 97.4121C43.0976 97.7677 42.7519 98.0959 42.3803 98.3932L42.3547 98.4137C41.987 98.7078 41.5943 98.9691 41.181 99.1946V99.1946C40.7624 99.4228 40.3245 99.6135 39.8722 99.7642L39.1881 99.9923L38.4024 100.174C37.9427 100.28 37.4724 100.333 37.0006 100.333V100.333C36.4909 100.333 35.983 100.271 35.4885 100.147L34.8693 99.9923L34.1852 99.7642C33.7329 99.6135 33.2949 99.4228 32.8764 99.1946V99.1946C32.4631 98.9691 32.0703 98.7078 31.7027 98.4137L31.1187 97.9465L30.5342 97.362C30.2425 97.0703 29.9769 96.7537 29.7403 96.4158V96.4158C29.4478 95.9979 29.2013 95.5496 29.0051 95.0787L28.9644 94.9812C28.8097 94.6098 28.683 94.2272 28.5854 93.8368L28.5714 93.7809C28.4513 93.3008 28.3719 92.8113 28.334 92.3179L28.3316 92.2868Z" stroke="#374365" stroke-width="1.25019" stroke-miterlimit="10" stroke-linecap="round" stroke-linejoin="round"/>
<path d="M28.3316 206.395C28.2955 205.926 28.2955 205.455 28.3316 204.985L28.334 204.954C28.3719 204.461 28.4513 203.971 28.5714 203.491L28.5854 203.435C28.683 203.045 28.8097 202.662 28.9644 202.291V202.291C29.1876 201.755 29.4681 201.245 29.8009 200.77L30.0958 200.349L30.1906 200.243C30.8073 199.558 31.5 198.945 32.2552 198.416V198.416V198.416C33.087 197.963 33.9704 197.58 34.8693 197.28V197.28L35.4885 197.125C35.983 197.001 36.4909 196.939 37.0006 196.939V196.939C37.4724 196.939 37.9427 196.993 38.4024 197.099L39.1881 197.28V197.28C40.087 197.58 40.9703 197.963 41.8021 198.416V198.416V198.416C42.556 198.944 43.2305 199.577 43.8053 200.295L43.8479 200.349L44.1428 200.77C44.4756 201.245 44.7561 201.755 44.9793 202.291V202.291C45.134 202.662 45.2608 203.045 45.3584 203.435L45.3723 203.491C45.4924 203.971 45.5718 204.461 45.6098 204.954L45.6121 204.985C45.6482 205.455 45.6482 205.926 45.6121 206.395L45.6045 206.494C45.57 206.942 45.4979 207.387 45.3888 207.823V207.823C45.271 208.295 45.1106 208.754 44.9097 209.196L44.6435 209.782L44.2046 210.471C43.9672 210.845 43.7003 211.198 43.4065 211.529V211.529C43.0952 211.879 42.7547 212.202 42.3889 212.495L42.3547 212.522C41.987 212.816 41.5943 213.078 41.181 213.303V213.303C40.7624 213.531 40.3245 213.722 39.8722 213.873L39.8532 213.879C39.4106 214.027 38.9563 214.136 38.4951 214.207L38.4114 214.22C37.9449 214.292 37.4736 214.328 37.0015 214.328H36.9429C36.4705 214.328 35.9989 214.289 35.533 214.211V214.211C35.0912 214.138 34.6558 214.03 34.2309 213.888L34.1852 213.873C33.7329 213.722 33.2949 213.531 32.8764 213.303V213.303C32.4631 213.078 32.0703 212.816 31.7027 212.522L31.1187 212.055V212.055C30.4388 211.375 29.8354 210.623 29.3192 209.812L29.3002 209.782L29.0341 209.196C28.8331 208.754 28.6727 208.295 28.5549 207.823V207.823C28.4458 207.387 28.3737 206.942 28.3392 206.494L28.3316 206.395Z" stroke="#374365" stroke-width="1.25019" stroke-miterlimit="10" stroke-linecap="round" stroke-linejoin="round"/>
<path d="M127.023 263.125C126.987 262.655 126.987 262.184 127.023 261.715L127.025 261.684C127.063 261.19 127.143 260.701 127.263 260.221L127.277 260.165C127.374 259.774 127.501 259.392 127.656 259.02V259.02C127.879 258.485 128.159 257.975 128.492 257.499L128.787 257.078L128.882 256.973C129.499 256.287 130.191 255.675 130.947 255.146V255.146V255.146C131.778 254.692 132.662 254.309 133.561 254.009V254.009L134.18 253.855C134.674 253.731 135.182 253.668 135.692 253.668V253.668C136.164 253.668 136.634 253.722 137.094 253.828L137.88 254.009V254.009C138.778 254.309 139.662 254.692 140.494 255.146V255.146V255.146C141.247 255.674 141.922 256.306 142.497 257.025L142.539 257.078L142.834 257.499C143.167 257.975 143.447 258.485 143.671 259.02V259.02C143.825 259.392 143.952 259.774 144.05 260.165L144.064 260.221C144.184 260.701 144.263 261.19 144.301 261.684L144.304 261.715C144.34 262.184 144.34 262.655 144.304 263.125L144.296 263.224C144.261 263.672 144.189 264.117 144.08 264.553V264.553C143.962 265.024 143.802 265.484 143.601 265.926L143.335 266.511L142.896 267.201C142.659 267.574 142.392 267.928 142.098 268.258V268.258C141.787 268.608 141.446 268.932 141.08 269.224L141.046 269.252C140.678 269.546 140.286 269.807 139.872 270.032V270.032C139.454 270.261 139.016 270.451 138.564 270.602L138.545 270.608C138.102 270.756 137.648 270.866 137.187 270.937L137.103 270.95C136.636 271.021 136.165 271.057 135.693 271.057H135.634C135.162 271.057 134.69 271.018 134.224 270.941V270.941C133.783 270.867 133.347 270.759 132.922 270.617L132.877 270.602C132.424 270.451 131.986 270.261 131.568 270.032V270.032C131.154 269.807 130.762 269.546 130.394 269.252L129.81 268.784V268.784C129.13 268.105 128.527 267.352 128.011 266.541L127.992 266.511L127.725 265.926C127.524 265.484 127.364 265.024 127.246 264.553V264.553C127.137 264.117 127.065 263.672 127.031 263.224L127.023 263.125Z" stroke="#374365" stroke-width="1.25019" stroke-miterlimit="10" stroke-linecap="round" stroke-linejoin="round"/>
<path d="M225.974 206.395C225.938 205.926 225.938 205.455 225.974 204.985L225.977 204.954C226.014 204.461 226.094 203.971 226.214 203.491L226.228 203.435C226.326 203.045 226.452 202.662 226.607 202.291V202.291C226.83 201.755 227.111 201.245 227.443 200.77L227.738 200.349L227.833 200.243C228.45 199.558 229.143 198.945 229.898 198.416V198.416V198.416C230.73 197.963 231.613 197.58 232.512 197.28V197.28L233.159 197.118C233.635 196.999 234.124 196.939 234.614 196.939V196.939C235.105 196.939 235.594 196.999 236.07 197.118L236.717 197.28L237.371 197.498C237.844 197.655 238.305 197.846 238.751 198.069L239.024 198.206C239.304 198.346 239.573 198.507 239.83 198.686V198.686C240.328 199.035 240.774 199.453 241.154 199.928L241.49 200.349L241.785 200.77C242.118 201.245 242.399 201.755 242.622 202.291V202.291C242.777 202.662 242.903 203.045 243.001 203.435L243.015 203.491C243.135 203.971 243.214 204.461 243.252 204.954L243.255 204.985C243.291 205.455 243.291 205.926 243.255 206.395L243.247 206.494C243.213 206.942 243.14 207.387 243.031 207.823V207.823C242.914 208.295 242.753 208.754 242.552 209.196L242.286 209.782L241.847 210.471C241.61 210.845 241.343 211.198 241.049 211.529L241.011 211.571C240.725 211.893 240.412 212.19 240.076 212.459V212.459C239.656 212.795 239.202 213.085 238.722 213.325L238.628 213.372C238.264 213.555 237.887 213.711 237.5 213.84L237.355 213.888C236.93 214.03 236.495 214.138 236.053 214.211V214.211C235.587 214.289 235.116 214.328 234.643 214.328H234.585C234.113 214.328 233.642 214.289 233.176 214.211V214.211C232.734 214.138 232.298 214.03 231.873 213.888L231.828 213.873C231.375 213.722 230.937 213.531 230.519 213.303V213.303C230.106 213.078 229.713 212.816 229.345 212.522L228.761 212.055V212.055C228.081 211.375 227.478 210.623 226.962 209.812L226.943 209.782L226.677 209.196C226.476 208.754 226.315 208.295 226.197 207.823V207.823C226.088 207.387 226.016 206.942 225.982 206.494L225.974 206.395Z" stroke="#374365" stroke-width="1.25019" stroke-miterlimit="10" stroke-linecap="round" stroke-linejoin="round"/>
<path d="M225.974 92.2868C225.938 91.8176 225.938 91.3462 225.974 90.877L225.977 90.846C226.014 90.3525 226.094 89.863 226.214 89.3829L226.228 89.327C226.326 88.9366 226.452 88.554 226.607 88.1826L226.648 88.0851C226.844 87.6142 227.09 87.1659 227.383 86.748V86.748C227.619 86.4101 227.885 86.0935 228.177 85.8018L228.761 85.2173L229.345 84.7501C229.713 84.456 230.106 84.1947 230.519 83.9692V83.9692C230.937 83.741 231.375 83.5503 231.828 83.3996L232.512 83.1715L233.159 83.0097C233.635 82.8907 234.124 82.8306 234.614 82.8306V82.8306C235.105 82.8306 235.594 82.8907 236.07 83.0097L236.717 83.1715L237.5 83.4325C237.887 83.5614 238.264 83.7176 238.628 83.8999L238.722 83.9467C239.202 84.187 239.656 84.4772 240.076 84.8128V84.8128C240.412 85.082 240.725 85.3792 241.011 85.7013L241.49 86.2402L241.785 86.6615C242.118 87.1369 242.399 87.6469 242.622 88.1826V88.1826C242.777 88.554 242.903 88.9366 243.001 89.327L243.015 89.3829C243.135 89.863 243.214 90.3525 243.252 90.846L243.255 90.877C243.291 91.3462 243.291 91.8176 243.255 92.2868L243.252 92.3179C243.214 92.8113 243.135 93.3008 243.015 93.7809L243.001 93.8368C242.903 94.2272 242.777 94.6098 242.622 94.9812V94.9812C242.399 95.5169 242.118 96.0269 241.785 96.5023L241.49 96.9236L241.011 97.4625C240.725 97.7846 240.412 98.0818 240.076 98.351V98.351C239.656 98.6866 239.202 98.9769 238.722 99.2171L238.628 99.2639C238.264 99.4462 237.887 99.6024 237.5 99.7313L236.717 99.9923L236.07 100.154C235.594 100.273 235.105 100.333 234.614 100.333V100.333C234.124 100.333 233.635 100.273 233.159 100.154L232.512 99.9923L231.828 99.7642C231.375 99.6135 230.937 99.4228 230.519 99.1946V99.1946C230.106 98.9691 229.713 98.7078 229.345 98.4137L228.761 97.9465L228.177 97.362C227.885 97.0703 227.619 96.7537 227.383 96.4158V96.4158C227.09 95.9979 226.844 95.5496 226.648 95.0787L226.607 94.9812C226.452 94.6098 226.326 94.2272 226.228 93.8368L226.214 93.7809C226.094 93.3008 226.014 92.8113 225.977 92.3179L225.974 92.2868Z" stroke="#374365" stroke-width="1.25019" stroke-miterlimit="10" stroke-linecap="round" stroke-linejoin="round"/>
<path d="M127.023 35.2854C126.987 34.8161 126.987 34.3448 127.023 33.8755L127.025 33.8445C127.063 33.351 127.143 32.8616 127.263 32.3814L127.277 32.3255C127.374 31.9351 127.501 31.5526 127.656 31.1811L127.696 31.0836C127.893 30.6128 128.139 30.1645 128.432 29.7466V29.7466C128.668 29.4086 128.934 29.092 129.226 28.8004L129.81 28.2158L130.394 27.7486C130.762 27.4545 131.154 27.1932 131.568 26.9678V26.9678C131.986 26.7395 132.424 26.5489 132.877 26.3981L133.561 26.1701L134.208 26.0083C134.684 25.8893 135.173 25.8291 135.663 25.8291V25.8291C136.154 25.8291 136.643 25.8893 137.119 26.0083L137.766 26.1701L138.549 26.4311C138.936 26.56 139.313 26.7162 139.677 26.8985L139.771 26.9453C140.251 27.1855 140.705 27.4758 141.124 27.8113V27.8113C141.461 28.0805 141.774 28.3777 142.06 28.6998L142.539 29.2387L142.834 29.66C143.167 30.1355 143.447 30.6454 143.671 31.1811V31.1811C143.825 31.5526 143.952 31.9351 144.05 32.3255L144.064 32.3814C144.184 32.8616 144.263 33.351 144.301 33.8445L144.304 33.8755C144.34 34.3448 144.34 34.8161 144.304 35.2854L144.301 35.3164C144.263 35.8099 144.184 36.2993 144.064 36.7795L144.05 36.8354C143.952 37.2258 143.825 37.6083 143.671 37.9798V37.9798C143.447 38.5154 143.167 39.0254 142.834 39.5008L142.539 39.9222L142.06 40.4611C141.774 40.7831 141.461 41.0804 141.124 41.3496V41.3496C140.705 41.6851 140.251 41.9754 139.771 42.2156L139.677 42.2624C139.313 42.4447 138.936 42.6009 138.549 42.7298L137.766 42.9908L137.119 43.1526C136.643 43.2716 136.154 43.3318 135.663 43.3318V43.3318C135.173 43.3318 134.684 43.2716 134.208 43.1526L133.561 42.9908L132.877 42.7628C132.424 42.612 131.986 42.4214 131.568 42.1931V42.1931C131.154 41.9677 130.762 41.7064 130.394 41.4123L129.81 40.945L129.226 40.3605C128.934 40.0688 128.668 39.7522 128.432 39.4143V39.4143C128.139 38.9964 127.893 38.5481 127.696 38.0773L127.656 37.9798C127.501 37.6083 127.374 37.2258 127.277 36.8354L127.263 36.7795C127.143 36.2993 127.063 35.8099 127.025 35.3164L127.023 35.2854Z" stroke="#374365" stroke-width="1.25019" stroke-miterlimit="10" stroke-linecap="round" stroke-linejoin="round"/>
<path d="M262.631 148.636L262.518 143.181L262.177 137.612L261.608 132.157L260.813 126.701L259.676 121.36L258.426 116.018L256.835 110.79L255.13 105.562L253.084 100.447L250.925 95.3328L248.538 90.4457L245.924 85.5586L243.083 80.8988L240.014 76.3526L236.832 71.9201L233.422 67.6013L229.785 63.3961L226.035 59.4182L222.057 55.554L217.965 51.9171L213.646 48.5075L209.214 45.2115L204.668 42.1428L200.008 39.1878L195.235 36.5738L190.347 34.0734L185.347 31.8004L180.232 29.7546L175.004 27.9361L169.776 26.4586L164.434 25.0948L159.093 23.9582L153.637 23.049L148.182 22.3671L142.727 21.9125L137.157 21.7988H131.702L126.247 22.1398L120.678 22.7081L115.336 23.5036L109.881 24.4129L104.539 25.6631L99.1971 27.1406L93.9691 28.8454L88.8546 30.7775L83.7402 32.9369L78.8531 35.3236L73.966 37.824L69.1925 40.6653L64.6464 43.6203L60.1002 46.8027L55.7814 50.2123L51.5762 53.7355L47.5983 57.4861L43.7341 61.3503L39.9835 65.4419L36.4603 69.6471L33.1643 74.0796L30.0957 78.6257L27.1407 83.2855L24.413 88.059L21.9126 92.8324L19.5259 97.8332L17.4801 102.948L15.548 108.176L13.9568 113.404L12.593 118.632L11.3428 124.087L10.4335 129.429L9.75163 134.884L9.18337 140.34L8.95605 145.909V151.364L9.18337 156.819L9.75163 162.389L10.4335 167.844L11.3428 173.186L12.593 178.527L13.9568 183.869L15.548 189.097L17.4801 194.325L19.5259 199.44L21.9126 204.327L24.413 209.214L27.1407 213.987L30.0957 218.647L33.1643 223.193L36.4603 227.626L39.9835 231.831L43.7341 235.923L47.5983 239.787L51.5762 243.537L55.7814 247.061L60.1002 250.47L64.6464 253.652L69.1925 256.607L73.966 259.449L78.8531 261.949L83.7402 264.336L88.8546 266.495L93.9691 268.427L99.1971 270.132L104.539 271.61L109.881 272.86L115.336 273.769L120.678 274.565L126.247 275.133L131.702 275.474H137.157L142.727 275.247L148.182 274.906L153.637 274.224L159.093 273.315L164.434 272.178L169.776 270.814L175.004 269.223L180.232 267.518L185.347 265.472L190.347 263.199L195.235 260.699L200.008 258.085L204.668 255.13L209.214 252.061L213.646 248.765L217.965 245.356L222.057 241.719L226.035 237.855L229.785 233.877L233.422 229.672L236.832 225.353L240.014 220.92L243.083 216.374L245.924 211.714L248.538 206.827L250.925 201.94L253.084 196.826L255.13 191.711L256.835 186.483L258.426 181.255L259.676 175.913L260.813 170.458L261.608 165.116L262.177 159.661L262.518 154.092L262.631 148.636Z" stroke="#374365" stroke-width="1.25019" stroke-miterlimit="10" stroke-linecap="round" stroke-linejoin="round"/>
<path d="M135.794 148.635L112.949 135.451" stroke="#374365" stroke-width="0.454615" stroke-miterlimit="10" stroke-linecap="round" stroke-linejoin="round"/>
<path d="M109.993 133.747L107.039 132.042" stroke="#374365" stroke-width="0.454615" stroke-miterlimit="10" stroke-linecap="round" stroke-linejoin="round"/>
<path d="M104.084 130.338L68.624 109.767" stroke="#374365" stroke-width="0.454615" stroke-miterlimit="10" stroke-linecap="round" stroke-linejoin="round"/>
<path d="M65.6683 108.061L62.7139 106.357" stroke="#374365" stroke-width="0.454615" stroke-miterlimit="10" stroke-linecap="round" stroke-linejoin="round"/>
<path d="M59.7595 104.651L36.915 91.4673" stroke="#374365" stroke-width="0.454615" stroke-miterlimit="10" stroke-linecap="round" stroke-linejoin="round"/>
<path d="M49.1897 28.3904L41.6885 16.2295" stroke="#374365" stroke-width="0.454615" stroke-miterlimit="10" stroke-linecap="round" stroke-linejoin="round"/>
<path d="M41.6885 16.2296L59.3048 5.31885" stroke="#374365" stroke-width="0.454615" stroke-miterlimit="10" stroke-linecap="round" stroke-linejoin="round"/>
<path d="M59.3047 5.31885L66.8058 17.4798" stroke="#374365" stroke-width="0.454615" stroke-miterlimit="10" stroke-linecap="round" stroke-linejoin="round"/>
<path d="M66.8057 17.4795L49.1895 28.3903" stroke="#374365" stroke-width="0.454615" stroke-miterlimit="10" stroke-linecap="round" stroke-linejoin="round"/>
<path d="M52.6159 22.1795C52.3532 22.339 52.0654 22.4442 51.7526 22.4952C51.4386 22.5441 51.1105 22.5149 50.7683 22.4077C50.4248 22.2984 50.0767 22.0895 49.724 21.7811C49.3713 21.4726 49.0233 21.0404 48.6798 20.4845C48.3618 19.9697 48.1158 19.4702 47.9418 18.9859C47.7678 18.5016 47.6748 18.047 47.6626 17.6221C47.6505 17.1972 47.7275 16.8153 47.8938 16.4765C48.0587 16.1356 48.3234 15.8526 48.6879 15.6274C49.0297 15.4163 49.3753 15.301 49.7245 15.2815C50.0726 15.26 50.4055 15.3246 50.7233 15.4753C51.0412 15.626 51.3219 15.8524 51.5653 16.1543L50.997 16.5054C50.7332 16.2074 50.4265 16.0171 50.0767 15.9345C49.7269 15.8518 49.3709 15.9225 49.0084 16.1463C48.4895 16.4669 48.2368 16.9559 48.2503 17.6132C48.2626 18.2685 48.5405 19.0385 49.0841 19.9232L49.1243 19.8984C49.1094 19.6487 49.1393 19.4069 49.2139 19.173C49.2893 18.9358 49.4054 18.7162 49.5622 18.5141C49.7177 18.3099 49.9077 18.1385 50.1321 17.9998C50.4842 17.7823 50.8618 17.6728 51.2649 17.6713C51.6667 17.6678 52.0511 17.7674 52.4182 17.9702C52.7841 18.171 53.0897 18.4701 53.3352 18.8675C53.568 19.2443 53.6989 19.6428 53.728 20.0629C53.7592 20.4818 53.6824 20.8778 53.4975 21.2509C53.3147 21.6227 53.0208 21.9322 52.6159 22.1795ZM52.2954 21.6606C52.5713 21.4901 52.7741 21.2681 52.9038 20.9945C53.0356 20.7197 53.0918 20.4261 53.0724 20.1137C53.0517 19.7994 52.953 19.499 52.7762 19.2128C52.5994 18.9266 52.3763 18.706 52.1069 18.5509C51.8376 18.3958 51.5512 18.3167 51.2477 18.3135C50.9462 18.3091 50.6575 18.3922 50.3816 18.5626C50.1716 18.6924 50.0027 18.8565 49.8749 19.0549C49.7459 19.2512 49.6602 19.4649 49.6179 19.6958C49.5765 19.9234 49.5792 20.1536 49.6263 20.3863C49.6753 20.6177 49.7723 20.8323 49.9173 21.0301C50.1193 21.3064 50.3554 21.5205 50.6255 21.6723C50.8964 21.8207 51.1766 21.8965 51.466 21.8999C51.7574 21.9019 52.0339 21.8221 52.2954 21.6606ZM57.7927 18.9816C57.3479 19.2563 56.8891 19.3633 56.4164 19.3026C55.9444 19.2386 55.4738 19.0157 55.0048 18.6341C54.5378 18.2512 54.0938 17.7189 53.6728 17.0373C53.253 16.3578 52.977 15.7246 52.8449 15.1377C52.7135 14.5474 52.7259 14.0263 52.8819 13.5743C53.0388 13.1189 53.3375 12.7551 53.7782 12.4829C54.2188 12.2107 54.6768 12.107 55.1521 12.1718C55.6282 12.2333 56.0998 12.4556 56.5668 12.8385C57.0346 13.2181 57.4783 13.7476 57.8981 14.4271C58.3191 15.1087 58.5953 15.7446 58.7267 16.3349C58.8601 16.9239 58.8488 17.4444 58.6927 17.8964C58.5375 18.3451 58.2375 18.7068 57.7927 18.9816ZM57.4721 18.4627C57.9602 18.1612 58.1942 17.688 58.1742 17.0432C58.153 16.3963 57.8746 15.6394 57.339 14.7725C56.9829 14.1959 56.6161 13.7426 56.2386 13.4125C55.8619 13.079 55.4904 12.8761 55.1242 12.8036C54.76 12.7299 54.4163 12.7928 54.093 12.9926C53.6091 13.2915 53.378 13.7671 53.3997 14.4194C53.4202 15.0696 53.6976 15.8271 54.2318 16.692C54.588 17.2685 54.9538 17.7225 55.3292 18.0539C55.7066 18.384 56.0768 18.5849 56.4398 18.6566C56.8047 18.727 57.1489 18.6624 57.4721 18.4627ZM60.0401 12.451C59.7869 12.6074 59.5181 12.6881 59.2338 12.6931C58.9495 12.698 58.6813 12.6346 58.4293 12.503C58.176 12.3693 57.9711 12.1758 57.8147 11.9225C57.6582 11.6692 57.5775 11.4004 57.5726 11.1161C57.5677 10.8318 57.631 10.5637 57.7627 10.3117C57.8943 10.0596 58.0868 9.8554 58.3401 9.69894C58.5933 9.54248 58.8621 9.46178 59.1464 9.45685C59.4307 9.45193 59.6989 9.51529 59.9509 9.64694C60.2029 9.77859 60.4072 9.97105 60.5636 10.2243C60.7201 10.4776 60.8014 10.7474 60.8076 11.0338C60.8125 11.3181 60.7492 11.5862 60.6175 11.8382C60.4859 12.0903 60.2934 12.2945 60.0401 12.451ZM59.7444 11.9722C59.9112 11.8692 60.0367 11.7362 60.1209 11.5732C60.2072 11.4089 60.2486 11.234 60.2449 11.0485C60.2433 10.8617 60.191 10.685 60.088 10.5182C59.9862 10.3534 59.8522 10.2286 59.6858 10.1435C59.5216 10.0572 59.3467 10.0159 59.1612 10.0196C58.9777 10.0219 58.8026 10.0746 58.6358 10.1777C58.4711 10.2794 58.3456 10.4125 58.2593 10.5767C58.173 10.741 58.1306 10.9165 58.1322 11.1033C58.1359 11.2888 58.1886 11.4639 58.2903 11.6287C58.3934 11.7954 58.527 11.922 58.6913 12.0083C58.8576 12.0933 59.0335 12.134 59.219 12.1303C59.4045 12.1267 59.5797 12.074 59.7444 11.9722Z" fill="#374365"/>
<path d="M135.793 11.5698V1" stroke="#374365" stroke-width="0.454615" stroke-miterlimit="10" stroke-linecap="round" stroke-linejoin="round"/>
<path d="M36.9143 91.5821L7.93262 74.875" stroke="#374365" stroke-width="0.454615" stroke-miterlimit="10" stroke-linecap="round" stroke-linejoin="round"/>
<path d="M135.793 3.72754L127.383 3.95485L118.972 4.63677L110.676 5.88696L102.379 7.59177L94.1958 9.75119L86.24 12.4789L78.3979 15.5475L70.7831 19.0708L63.3956 23.1623L56.1218 27.5948L49.3026 32.3683L42.597 37.5964L36.346 43.1654L30.436 49.189L24.7534 55.44L19.5253 62.1456L14.7518 68.9648L10.3193 76.125" stroke="#374365" stroke-width="0.454615" stroke-miterlimit="10" stroke-linecap="round" stroke-linejoin="round"/>
<path d="M135.793 146.59V109.767" stroke="#374365" stroke-width="0.454615" stroke-miterlimit="10" stroke-linecap="round" stroke-linejoin="round"/>
<path d="M135.793 106.357V102.947" stroke="#374365" stroke-width="0.454615" stroke-miterlimit="10" stroke-linecap="round" stroke-linejoin="round"/>
<path d="M135.793 99.5374V58.6221" stroke="#374365" stroke-width="0.454615" stroke-miterlimit="10" stroke-linecap="round" stroke-linejoin="round"/>
<path d="M135.793 55.2128V51.8032" stroke="#374365" stroke-width="0.454615" stroke-miterlimit="10" stroke-linecap="round" stroke-linejoin="round"/>
<path d="M135.793 48.3931V11.5693" stroke="#374365" stroke-width="0.454615" stroke-miterlimit="10" stroke-linecap="round" stroke-linejoin="round"/>
<path d="M133.748 148.636H98.0605" stroke="#374365" stroke-width="0.454615" stroke-miterlimit="10" stroke-linecap="round" stroke-linejoin="round"/>
<path d="M94.6509 148.636H91.2412" stroke="#374365" stroke-width="0.454615" stroke-miterlimit="10" stroke-linecap="round" stroke-linejoin="round"/>
<path d="M87.8314 148.636H46.916" stroke="#374365" stroke-width="0.454615" stroke-miterlimit="10" stroke-linecap="round" stroke-linejoin="round"/>
<path d="M43.5063 148.636H40.0967" stroke="#374365" stroke-width="0.454615" stroke-miterlimit="10" stroke-linecap="round" stroke-linejoin="round"/>
<path d="M36.6873 148.636H1" stroke="#374365" stroke-width="0.454615" stroke-miterlimit="10" stroke-linecap="round" stroke-linejoin="round"/>
<path d="M135.793 150.682V187.279" stroke="#374365" stroke-width="0.454615" stroke-miterlimit="10" stroke-linecap="round" stroke-linejoin="round"/>
<path d="M135.793 190.688V194.098" stroke="#374365" stroke-width="0.454615" stroke-miterlimit="10" stroke-linecap="round" stroke-linejoin="round"/>
<path d="M135.793 197.507V238.423" stroke="#374365" stroke-width="0.454615" stroke-miterlimit="10" stroke-linecap="round" stroke-linejoin="round"/>
<path d="M135.793 241.832V245.242" stroke="#374365" stroke-width="0.454615" stroke-miterlimit="10" stroke-linecap="round" stroke-linejoin="round"/>
<path d="M135.793 248.651V285.247" stroke="#374365" stroke-width="0.454615" stroke-miterlimit="10" stroke-linecap="round" stroke-linejoin="round"/>
<path d="M137.839 148.636H174.549" stroke="#374365" stroke-width="0.454615" stroke-miterlimit="10" stroke-linecap="round" stroke-linejoin="round"/>
<path d="M177.959 148.636H181.369" stroke="#374365" stroke-width="0.454615" stroke-miterlimit="10" stroke-linecap="round" stroke-linejoin="round"/>
<path d="M184.777 148.636H225.693" stroke="#374365" stroke-width="0.454615" stroke-miterlimit="10" stroke-linecap="round" stroke-linejoin="round"/>
<path d="M229.104 148.636H232.513" stroke="#374365" stroke-width="0.454615" stroke-miterlimit="10" stroke-linecap="round" stroke-linejoin="round"/>
<path d="M235.922 148.636H272.746" stroke="#374365" stroke-width="0.454615" stroke-miterlimit="10" stroke-linecap="round" stroke-linejoin="round"/>
<path d="M135.793 230.466V228.648" stroke="#374365" stroke-width="0.454615" stroke-miterlimit="10" stroke-linecap="round" stroke-linejoin="round"/>
<path d="M133.747 232.513H131.929" stroke="#374365" stroke-width="0.454615" stroke-miterlimit="10" stroke-linecap="round" stroke-linejoin="round"/>
<path d="M135.793 234.558V236.376" stroke="#374365" stroke-width="0.454615" stroke-miterlimit="10" stroke-linecap="round" stroke-linejoin="round"/>
<path d="M137.839 232.513H139.657" stroke="#374365" stroke-width="0.454615" stroke-miterlimit="10" stroke-linecap="round" stroke-linejoin="round"/>
<path d="M135.793 62.7136V60.8955" stroke="#374365" stroke-width="0.454615" stroke-miterlimit="10" stroke-linecap="round" stroke-linejoin="round"/>
<path d="M133.747 64.7598H131.929" stroke="#374365" stroke-width="0.454615" stroke-miterlimit="10" stroke-linecap="round" stroke-linejoin="round"/>
<path d="M135.793 66.6919V68.6236" stroke="#374365" stroke-width="0.454615" stroke-miterlimit="10" stroke-linecap="round" stroke-linejoin="round"/>
<path d="M137.839 64.7598H139.657" stroke="#374365" stroke-width="0.454615" stroke-miterlimit="10" stroke-linecap="round" stroke-linejoin="round"/>
<path d="M35.2101 90.5591L28.6182 86.6948" stroke="#374365" stroke-width="0.454615" stroke-miterlimit="10" stroke-linecap="round" stroke-linejoin="round"/>
<path d="M38.7334 92.605L45.439 96.4692" stroke="#374365" stroke-width="0.454615" stroke-miterlimit="10" stroke-linecap="round" stroke-linejoin="round"/>
<path d="M135.793 32.4814V24.7529" stroke="#374365" stroke-width="0.454615" stroke-miterlimit="10" stroke-linecap="round" stroke-linejoin="round"/>
<path d="M135.793 36.5732V44.3017" stroke="#374365" stroke-width="0.454615" stroke-miterlimit="10" stroke-linecap="round" stroke-linejoin="round"/>
<path d="M236.377 90.5591L243.082 86.6948" stroke="#374365" stroke-width="0.454615" stroke-miterlimit="10" stroke-linecap="round" stroke-linejoin="round"/>
<path d="M232.854 92.605L226.148 96.4692" stroke="#374365" stroke-width="0.454615" stroke-miterlimit="10" stroke-linecap="round" stroke-linejoin="round"/>
<path d="M135.793 146.59V102.833" stroke="#374365" stroke-width="0.454615" stroke-miterlimit="10" stroke-linecap="round" stroke-linejoin="round"/>
<path d="M135.793 99.4238V96.0142" stroke="#374365" stroke-width="0.454615" stroke-miterlimit="10" stroke-linecap="round" stroke-linejoin="round"/>
<path d="M135.793 92.6053V51.6899" stroke="#374365" stroke-width="0.454615" stroke-miterlimit="10" stroke-linecap="round" stroke-linejoin="round"/>
<path d="M135.793 51.6889V48.8481" stroke="#374365" stroke-width="0.454615" stroke-miterlimit="10" stroke-linecap="round" stroke-linejoin="round"/>
<path d="M133.748 148.636H89.9912" stroke="#374365" stroke-width="0.454615" stroke-miterlimit="10" stroke-linecap="round" stroke-linejoin="round"/>
<path d="M86.5815 148.636H83.1719" stroke="#374365" stroke-width="0.454615" stroke-miterlimit="10" stroke-linecap="round" stroke-linejoin="round"/>
<path d="M79.762 148.636H38.8467" stroke="#374365" stroke-width="0.454615" stroke-miterlimit="10" stroke-linecap="round" stroke-linejoin="round"/>
<path d="M38.8457 148.636H36.0049" stroke="#374365" stroke-width="0.454615" stroke-miterlimit="10" stroke-linecap="round" stroke-linejoin="round"/>
<path d="M135.793 150.682V194.439" stroke="#374365" stroke-width="0.454615" stroke-miterlimit="10" stroke-linecap="round" stroke-linejoin="round"/>
<path d="M135.793 197.848V201.257" stroke="#374365" stroke-width="0.454615" stroke-miterlimit="10" stroke-linecap="round" stroke-linejoin="round"/>
<path d="M135.793 204.667V245.583" stroke="#374365" stroke-width="0.454615" stroke-miterlimit="10" stroke-linecap="round" stroke-linejoin="round"/>
<path d="M135.793 245.583V248.424" stroke="#374365" stroke-width="0.454615" stroke-miterlimit="10" stroke-linecap="round" stroke-linejoin="round"/>
<path d="M137.839 148.636H181.596" stroke="#374365" stroke-width="0.454615" stroke-miterlimit="10" stroke-linecap="round" stroke-linejoin="round"/>
<path d="M185.006 148.636H188.416" stroke="#374365" stroke-width="0.454615" stroke-miterlimit="10" stroke-linecap="round" stroke-linejoin="round"/>
<path d="M191.824 148.636H232.74" stroke="#374365" stroke-width="0.454615" stroke-miterlimit="10" stroke-linecap="round" stroke-linejoin="round"/>
<path d="M232.74 148.636H235.581" stroke="#374365" stroke-width="0.454615" stroke-miterlimit="10" stroke-linecap="round" stroke-linejoin="round"/>
<path d="M236.377 206.713L243.082 210.578" stroke="#374365" stroke-width="0.454615" stroke-miterlimit="10" stroke-linecap="round" stroke-linejoin="round"/>
<path d="M232.854 204.667L226.148 200.803" stroke="#374365" stroke-width="0.454615" stroke-miterlimit="10" stroke-linecap="round" stroke-linejoin="round"/>
<path d="M135.793 264.789V272.518" stroke="#374365" stroke-width="0.454615" stroke-miterlimit="10" stroke-linecap="round" stroke-linejoin="round"/>
<path d="M135.793 260.699V252.97" stroke="#374365" stroke-width="0.454615" stroke-miterlimit="10" stroke-linecap="round" stroke-linejoin="round"/>
<path d="M35.2101 206.713L28.6182 210.578" stroke="#374365" stroke-width="0.454615" stroke-miterlimit="10" stroke-linecap="round" stroke-linejoin="round"/>
<path d="M38.7334 204.667L45.439 200.803" stroke="#374365" stroke-width="0.454615" stroke-miterlimit="10" stroke-linecap="round" stroke-linejoin="round"/>
<path d="M233.65 89.8775L229.672 83.7402" stroke="#374365" stroke-width="0.454615" stroke-miterlimit="10" stroke-linecap="round" stroke-linejoin="round"/>
<path d="M229.67 83.7402L225.352 77.9438" stroke="#374365" stroke-width="0.454615" stroke-miterlimit="10" stroke-linecap="round" stroke-linejoin="round"/>
<path d="M225.353 77.9432L220.807 72.4878" stroke="#374365" stroke-width="0.454615" stroke-miterlimit="10" stroke-linecap="round" stroke-linejoin="round"/>
<path d="M220.805 72.4881L217.055 68.5103" stroke="#374365" stroke-width="0.454615" stroke-miterlimit="10" stroke-linecap="round" stroke-linejoin="round"/>
<path d="M214.554 66.1227L212.055 63.8501" stroke="#374365" stroke-width="0.454615" stroke-miterlimit="10" stroke-linecap="round" stroke-linejoin="round"/>
<path d="M209.554 61.5777L204.895 57.8271" stroke="#374365" stroke-width="0.454615" stroke-miterlimit="10" stroke-linecap="round" stroke-linejoin="round"/>
<path d="M204.894 57.8268L198.984 53.6216" stroke="#374365" stroke-width="0.454615" stroke-miterlimit="10" stroke-linecap="round" stroke-linejoin="round"/>
<path d="M198.985 53.6217L192.848 49.8711" stroke="#374365" stroke-width="0.454615" stroke-miterlimit="10" stroke-linecap="round" stroke-linejoin="round"/>
<path d="M192.847 49.871L186.482 46.4614" stroke="#374365" stroke-width="0.454615" stroke-miterlimit="10" stroke-linecap="round" stroke-linejoin="round"/>
<path d="M186.483 46.4607L179.891 43.3921" stroke="#374365" stroke-width="0.454615" stroke-miterlimit="10" stroke-linecap="round" stroke-linejoin="round"/>
<path d="M179.891 43.3922L174.322 41.1191" stroke="#374365" stroke-width="0.454615" stroke-miterlimit="10" stroke-linecap="round" stroke-linejoin="round"/>
<path d="M171.026 40.0961L167.844 39.0732" stroke="#374365" stroke-width="0.454615" stroke-miterlimit="10" stroke-linecap="round" stroke-linejoin="round"/>
<path d="M164.548 38.278L159.32 37.0278" stroke="#374365" stroke-width="0.454615" stroke-miterlimit="10" stroke-linecap="round" stroke-linejoin="round"/>
<path d="M159.32 37.0284L152.16 35.6646" stroke="#374365" stroke-width="0.454615" stroke-miterlimit="10" stroke-linecap="round" stroke-linejoin="round"/>
<path d="M152.159 35.6637L144.999 34.8682" stroke="#374365" stroke-width="0.454615" stroke-miterlimit="10" stroke-linecap="round" stroke-linejoin="round"/>
<path d="M144.999 34.8683L137.839 34.5273" stroke="#374365" stroke-width="0.454615" stroke-miterlimit="10" stroke-linecap="round" stroke-linejoin="round"/>
<path d="M133.747 34.5273L126.587 34.8683" stroke="#374365" stroke-width="0.454615" stroke-miterlimit="10" stroke-linecap="round" stroke-linejoin="round"/>
<path d="M126.587 34.8682L119.427 35.6637" stroke="#374365" stroke-width="0.454615" stroke-miterlimit="10" stroke-linecap="round" stroke-linejoin="round"/>
<path d="M119.427 35.6646L112.267 37.0284" stroke="#374365" stroke-width="0.454615" stroke-miterlimit="10" stroke-linecap="round" stroke-linejoin="round"/>
<path d="M112.267 37.0278L107.039 38.278" stroke="#374365" stroke-width="0.454615" stroke-miterlimit="10" stroke-linecap="round" stroke-linejoin="round"/>
<path d="M103.743 39.1875L100.447 40.0967" stroke="#374365" stroke-width="0.454615" stroke-miterlimit="10" stroke-linecap="round" stroke-linejoin="round"/>
<path d="M97.2643 41.1191L91.6953 43.3922" stroke="#374365" stroke-width="0.454615" stroke-miterlimit="10" stroke-linecap="round" stroke-linejoin="round"/>
<path d="M91.6955 43.3921L85.1035 46.4607" stroke="#374365" stroke-width="0.454615" stroke-miterlimit="10" stroke-linecap="round" stroke-linejoin="round"/>
<path d="M85.1038 46.4614L78.7393 49.871" stroke="#374365" stroke-width="0.454615" stroke-miterlimit="10" stroke-linecap="round" stroke-linejoin="round"/>
<path d="M78.7389 49.8711L72.6016 53.6217" stroke="#374365" stroke-width="0.454615" stroke-miterlimit="10" stroke-linecap="round" stroke-linejoin="round"/>
<path d="M72.6023 53.6216L66.6924 57.8268" stroke="#374365" stroke-width="0.454615" stroke-miterlimit="10" stroke-linecap="round" stroke-linejoin="round"/>
<path d="M66.6921 57.8271L62.0322 61.5777" stroke="#374365" stroke-width="0.454615" stroke-miterlimit="10" stroke-linecap="round" stroke-linejoin="round"/>
<path d="M59.4179 63.8501L56.918 66.1227" stroke="#374365" stroke-width="0.454615" stroke-miterlimit="10" stroke-linecap="round" stroke-linejoin="round"/>
<path d="M54.5305 68.5103L50.8936 72.4881" stroke="#374365" stroke-width="0.454615" stroke-miterlimit="10" stroke-linecap="round" stroke-linejoin="round"/>
<path d="M50.8942 72.4878L46.2344 77.9432" stroke="#374365" stroke-width="0.454615" stroke-miterlimit="10" stroke-linecap="round" stroke-linejoin="round"/>
<path d="M46.2339 77.9438L41.915 83.7402" stroke="#374365" stroke-width="0.454615" stroke-miterlimit="10" stroke-linecap="round" stroke-linejoin="round"/>
<path d="M41.915 83.7402L38.0508 89.8775" stroke="#374365" stroke-width="0.454615" stroke-miterlimit="10" stroke-linecap="round" stroke-linejoin="round"/>
<path d="M235.582 203.986L238.878 197.507" stroke="#374365" stroke-width="0.454615" stroke-miterlimit="10" stroke-linecap="round" stroke-linejoin="round"/>
<path d="M238.877 197.507L241.832 190.915" stroke="#374365" stroke-width="0.454615" stroke-miterlimit="10" stroke-linecap="round" stroke-linejoin="round"/>
<path d="M241.832 190.916L244.219 184.097" stroke="#374365" stroke-width="0.454615" stroke-miterlimit="10" stroke-linecap="round" stroke-linejoin="round"/>
<path d="M244.219 184.096L245.696 178.868" stroke="#374365" stroke-width="0.454615" stroke-miterlimit="10" stroke-linecap="round" stroke-linejoin="round"/>
<path d="M246.605 175.572L247.287 172.276" stroke="#374365" stroke-width="0.454615" stroke-miterlimit="10" stroke-linecap="round" stroke-linejoin="round"/>
<path d="M247.969 168.98L248.992 163.07" stroke="#374365" stroke-width="0.454615" stroke-miterlimit="10" stroke-linecap="round" stroke-linejoin="round"/>
<path d="M248.992 163.071L249.674 155.797" stroke="#374365" stroke-width="0.454615" stroke-miterlimit="10" stroke-linecap="round" stroke-linejoin="round"/>
<path d="M249.674 155.796L249.901 148.636" stroke="#374365" stroke-width="0.454615" stroke-miterlimit="10" stroke-linecap="round" stroke-linejoin="round"/>
<path d="M249.901 148.635L249.674 141.475" stroke="#374365" stroke-width="0.454615" stroke-miterlimit="10" stroke-linecap="round" stroke-linejoin="round"/>
<path d="M249.674 141.476L248.992 134.202" stroke="#374365" stroke-width="0.454615" stroke-miterlimit="10" stroke-linecap="round" stroke-linejoin="round"/>
<path d="M248.992 134.202L247.969 128.178" stroke="#374365" stroke-width="0.454615" stroke-miterlimit="10" stroke-linecap="round" stroke-linejoin="round"/>
<path d="M247.287 124.883L246.605 121.587" stroke="#374365" stroke-width="0.454615" stroke-miterlimit="10" stroke-linecap="round" stroke-linejoin="round"/>
<path d="M245.696 118.29L244.219 113.175" stroke="#374365" stroke-width="0.454615" stroke-miterlimit="10" stroke-linecap="round" stroke-linejoin="round"/>
<path d="M244.219 113.176L241.832 106.357" stroke="#374365" stroke-width="0.454615" stroke-miterlimit="10" stroke-linecap="round" stroke-linejoin="round"/>
<path d="M241.832 106.357L238.877 99.7651" stroke="#374365" stroke-width="0.454615" stroke-miterlimit="10" stroke-linecap="round" stroke-linejoin="round"/>
<path d="M238.878 99.7644L235.582 93.2861" stroke="#374365" stroke-width="0.454615" stroke-miterlimit="10" stroke-linecap="round" stroke-linejoin="round"/>
<path d="M137.839 262.745L144.999 262.404" stroke="#374365" stroke-width="0.454615" stroke-miterlimit="10" stroke-linecap="round" stroke-linejoin="round"/>
<path d="M144.999 262.403L152.159 261.494" stroke="#374365" stroke-width="0.454615" stroke-miterlimit="10" stroke-linecap="round" stroke-linejoin="round"/>
<path d="M152.16 261.493L159.32 260.243" stroke="#374365" stroke-width="0.454615" stroke-miterlimit="10" stroke-linecap="round" stroke-linejoin="round"/>
<path d="M159.32 260.244L164.548 258.88" stroke="#374365" stroke-width="0.454615" stroke-miterlimit="10" stroke-linecap="round" stroke-linejoin="round"/>
<path d="M167.73 257.97L171.026 256.947" stroke="#374365" stroke-width="0.454615" stroke-miterlimit="10" stroke-linecap="round" stroke-linejoin="round"/>
<path d="M174.322 255.925L179.891 253.879" stroke="#374365" stroke-width="0.454615" stroke-miterlimit="10" stroke-linecap="round" stroke-linejoin="round"/>
<path d="M179.891 253.88L186.483 250.811" stroke="#374365" stroke-width="0.454615" stroke-miterlimit="10" stroke-linecap="round" stroke-linejoin="round"/>
<path d="M186.482 250.811L192.847 247.401" stroke="#374365" stroke-width="0.454615" stroke-miterlimit="10" stroke-linecap="round" stroke-linejoin="round"/>
<path d="M192.848 247.402L198.985 243.651" stroke="#374365" stroke-width="0.454615" stroke-miterlimit="10" stroke-linecap="round" stroke-linejoin="round"/>
<path d="M198.984 243.651L204.894 239.446" stroke="#374365" stroke-width="0.454615" stroke-miterlimit="10" stroke-linecap="round" stroke-linejoin="round"/>
<path d="M204.895 239.446L209.554 235.582" stroke="#374365" stroke-width="0.454615" stroke-miterlimit="10" stroke-linecap="round" stroke-linejoin="round"/>
<path d="M212.055 233.308L214.554 231.036" stroke="#374365" stroke-width="0.454615" stroke-miterlimit="10" stroke-linecap="round" stroke-linejoin="round"/>
<path d="M217.055 228.648L220.805 224.784" stroke="#374365" stroke-width="0.454615" stroke-miterlimit="10" stroke-linecap="round" stroke-linejoin="round"/>
<path d="M220.807 224.784L225.353 219.329" stroke="#374365" stroke-width="0.454615" stroke-miterlimit="10" stroke-linecap="round" stroke-linejoin="round"/>
<path d="M225.352 219.329L229.67 213.532" stroke="#374365" stroke-width="0.454615" stroke-miterlimit="10" stroke-linecap="round" stroke-linejoin="round"/>
<path d="M229.672 213.532L233.65 207.395" stroke="#374365" stroke-width="0.454615" stroke-miterlimit="10" stroke-linecap="round" stroke-linejoin="round"/>
<path d="M36.0049 93.2861L32.709 99.7644" stroke="#374365" stroke-width="0.454615" stroke-miterlimit="10" stroke-linecap="round" stroke-linejoin="round"/>
<path d="M32.7095 99.7651L29.8682 106.357" stroke="#374365" stroke-width="0.454615" stroke-miterlimit="10" stroke-linecap="round" stroke-linejoin="round"/>
<path d="M29.8676 106.357L27.3672 113.176" stroke="#374365" stroke-width="0.454615" stroke-miterlimit="10" stroke-linecap="round" stroke-linejoin="round"/>
<path d="M27.3675 113.175L25.7764 118.29" stroke="#374365" stroke-width="0.454615" stroke-miterlimit="10" stroke-linecap="round" stroke-linejoin="round"/>
<path d="M24.8674 121.587L24.1855 124.883" stroke="#374365" stroke-width="0.454615" stroke-miterlimit="10" stroke-linecap="round" stroke-linejoin="round"/>
<path d="M23.5039 128.178L22.5947 134.202" stroke="#374365" stroke-width="0.454615" stroke-miterlimit="10" stroke-linecap="round" stroke-linejoin="round"/>
<path d="M22.594 134.202L21.9121 141.476" stroke="#374365" stroke-width="0.454615" stroke-miterlimit="10" stroke-linecap="round" stroke-linejoin="round"/>
<path d="M21.9119 141.475L21.6846 148.635" stroke="#374365" stroke-width="0.454615" stroke-miterlimit="10" stroke-linecap="round" stroke-linejoin="round"/>
<path d="M21.6846 148.636L21.9119 155.796" stroke="#374365" stroke-width="0.454615" stroke-miterlimit="10" stroke-linecap="round" stroke-linejoin="round"/>
<path d="M21.9121 155.797L22.594 163.071" stroke="#374365" stroke-width="0.454615" stroke-miterlimit="10" stroke-linecap="round" stroke-linejoin="round"/>
<path d="M22.5947 163.07L23.5039 168.98" stroke="#374365" stroke-width="0.454615" stroke-miterlimit="10" stroke-linecap="round" stroke-linejoin="round"/>
<path d="M24.1855 172.276L24.8674 175.572" stroke="#374365" stroke-width="0.454615" stroke-miterlimit="10" stroke-linecap="round" stroke-linejoin="round"/>
<path d="M25.7764 178.868L27.3675 184.096" stroke="#374365" stroke-width="0.454615" stroke-miterlimit="10" stroke-linecap="round" stroke-linejoin="round"/>
<path d="M27.3672 184.097L29.8676 190.916" stroke="#374365" stroke-width="0.454615" stroke-miterlimit="10" stroke-linecap="round" stroke-linejoin="round"/>
<path d="M29.8682 190.915L32.7095 197.507" stroke="#374365" stroke-width="0.454615" stroke-miterlimit="10" stroke-linecap="round" stroke-linejoin="round"/>
<path d="M32.709 197.507L36.0049 203.986" stroke="#374365" stroke-width="0.454615" stroke-miterlimit="10" stroke-linecap="round" stroke-linejoin="round"/>
<path d="M38.0508 207.395L41.915 213.532" stroke="#374365" stroke-width="0.454615" stroke-miterlimit="10" stroke-linecap="round" stroke-linejoin="round"/>
<path d="M41.915 213.532L46.2339 219.329" stroke="#374365" stroke-width="0.454615" stroke-miterlimit="10" stroke-linecap="round" stroke-linejoin="round"/>
<path d="M46.2344 219.329L50.8942 224.784" stroke="#374365" stroke-width="0.454615" stroke-miterlimit="10" stroke-linecap="round" stroke-linejoin="round"/>
<path d="M50.8936 224.784L54.5305 228.648" stroke="#374365" stroke-width="0.454615" stroke-miterlimit="10" stroke-linecap="round" stroke-linejoin="round"/>
<path d="M56.918 231.036L59.4179 233.308" stroke="#374365" stroke-width="0.454615" stroke-miterlimit="10" stroke-linecap="round" stroke-linejoin="round"/>
<path d="M62.0322 235.582L66.6921 239.446" stroke="#374365" stroke-width="0.454615" stroke-miterlimit="10" stroke-linecap="round" stroke-linejoin="round"/>
<path d="M66.6924 239.446L72.6023 243.651" stroke="#374365" stroke-width="0.454615" stroke-miterlimit="10" stroke-linecap="round" stroke-linejoin="round"/>
<path d="M72.6016 243.651L78.7389 247.402" stroke="#374365" stroke-width="0.454615" stroke-miterlimit="10" stroke-linecap="round" stroke-linejoin="round"/>
<path d="M78.7393 247.401L85.1038 250.811" stroke="#374365" stroke-width="0.454615" stroke-miterlimit="10" stroke-linecap="round" stroke-linejoin="round"/>
<path d="M85.1035 250.811L91.6955 253.88" stroke="#374365" stroke-width="0.454615" stroke-miterlimit="10" stroke-linecap="round" stroke-linejoin="round"/>
<path d="M91.6953 253.879L97.2643 255.925" stroke="#374365" stroke-width="0.454615" stroke-miterlimit="10" stroke-linecap="round" stroke-linejoin="round"/>
<path d="M100.447 256.947L103.743 257.97" stroke="#374365" stroke-width="0.454615" stroke-miterlimit="10" stroke-linecap="round" stroke-linejoin="round"/>
<path d="M107.039 258.88L112.267 260.244" stroke="#374365" stroke-width="0.454615" stroke-miterlimit="10" stroke-linecap="round" stroke-linejoin="round"/>
<path d="M112.267 260.243L119.427 261.493" stroke="#374365" stroke-width="0.454615" stroke-miterlimit="10" stroke-linecap="round" stroke-linejoin="round"/>
<path d="M119.427 261.494L126.587 262.403" stroke="#374365" stroke-width="0.454615" stroke-miterlimit="10" stroke-linecap="round" stroke-linejoin="round"/>
<path d="M126.587 262.404L133.747 262.745" stroke="#374365" stroke-width="0.454615" stroke-miterlimit="10" stroke-linecap="round" stroke-linejoin="round"/>
<path d="M135.793 148.636V147.613" stroke="#374365" stroke-width="0.454615" stroke-miterlimit="10" stroke-linecap="round" stroke-linejoin="round"/>
<path d="M234.672 205.69L235.467 206.144" stroke="#374365" stroke-width="0.454615" stroke-miterlimit="10" stroke-linecap="round" stroke-linejoin="round"/>
<path d="M135.793 262.744V261.721" stroke="#374365" stroke-width="0.454615" stroke-miterlimit="10" stroke-linecap="round" stroke-linejoin="round"/>
<path d="M135.793 148.636V147.613" stroke="#374365" stroke-width="0.454615" stroke-miterlimit="10" stroke-linecap="round" stroke-linejoin="round"/>
<path d="M135.793 148.636H134.771" stroke="#374365" stroke-width="0.454615" stroke-miterlimit="10" stroke-linecap="round" stroke-linejoin="round"/>
<path d="M135.793 148.636V149.658" stroke="#374365" stroke-width="0.454615" stroke-miterlimit="10" stroke-linecap="round" stroke-linejoin="round"/>
<path d="M135.793 148.636H136.816" stroke="#374365" stroke-width="0.454615" stroke-miterlimit="10" stroke-linecap="round" stroke-linejoin="round"/>
<path d="M135.793 232.512V231.489" stroke="#374365" stroke-width="0.454615" stroke-miterlimit="10" stroke-linecap="round" stroke-linejoin="round"/>
<path d="M135.793 232.513H134.771" stroke="#374365" stroke-width="0.454615" stroke-miterlimit="10" stroke-linecap="round" stroke-linejoin="round"/>
<path d="M135.793 232.513V233.535" stroke="#374365" stroke-width="0.454615" stroke-miterlimit="10" stroke-linecap="round" stroke-linejoin="round"/>
<path d="M135.793 232.513H136.816" stroke="#374365" stroke-width="0.454615" stroke-miterlimit="10" stroke-linecap="round" stroke-linejoin="round"/>
<path d="M135.793 148.636V149.658" stroke="#374365" stroke-width="0.454615" stroke-miterlimit="10" stroke-linecap="round" stroke-linejoin="round"/>
<path d="M135.793 262.745H136.816" stroke="#374365" stroke-width="0.454615" stroke-miterlimit="10" stroke-linecap="round" stroke-linejoin="round"/>
<path d="M135.793 262.745H134.771" stroke="#374365" stroke-width="0.454615" stroke-miterlimit="10" stroke-linecap="round" stroke-linejoin="round"/>
<path d="M37.0283 205.69L37.8238 205.236" stroke="#374365" stroke-width="0.454615" stroke-miterlimit="10" stroke-linecap="round" stroke-linejoin="round"/>
<path d="M37.0282 205.69L36.1191 206.144" stroke="#374365" stroke-width="0.454615" stroke-miterlimit="10" stroke-linecap="round" stroke-linejoin="round"/>
<path d="M234.672 91.582V91.6957L234.786 91.8093V91.9229L234.899 92.0366V92.1502L235.013 92.2638V92.3774L235.126 92.4911" stroke="#374365" stroke-width="0.454615" stroke-miterlimit="10" stroke-linecap="round" stroke-linejoin="round"/>
<path d="M135.793 148.636H134.771" stroke="#374365" stroke-width="0.454615" stroke-miterlimit="10" stroke-linecap="round" stroke-linejoin="round"/>
<path d="M135.793 64.7595V63.7368" stroke="#374365" stroke-width="0.454615" stroke-miterlimit="10" stroke-linecap="round" stroke-linejoin="round"/>
<path d="M135.793 64.7598H134.771" stroke="#374365" stroke-width="0.454615" stroke-miterlimit="10" stroke-linecap="round" stroke-linejoin="round"/>
<path d="M135.793 64.7598V65.7824" stroke="#374365" stroke-width="0.454615" stroke-miterlimit="10" stroke-linecap="round" stroke-linejoin="round"/>
<path d="M135.793 64.7598H136.816" stroke="#374365" stroke-width="0.454615" stroke-miterlimit="10" stroke-linecap="round" stroke-linejoin="round"/>
<path d="M234.673 205.69L233.764 205.236" stroke="#374365" stroke-width="0.454615" stroke-miterlimit="10" stroke-linecap="round" stroke-linejoin="round"/>
<path d="M37.0281 205.69L36.9145 205.577V205.463L36.8009 205.349L36.6872 205.236V205.122L36.5736 205.009V204.895L36.46 204.781" stroke="#374365" stroke-width="0.454615" stroke-miterlimit="10" stroke-linecap="round" stroke-linejoin="round"/>
<path d="M234.672 205.69L234.558 205.804L234.444 205.917V206.031L234.331 206.144V206.258L234.217 206.372V206.485L234.104 206.599" stroke="#374365" stroke-width="0.454615" stroke-miterlimit="10" stroke-linecap="round" stroke-linejoin="round"/>
<path d="M135.793 262.745V263.767" stroke="#374365" stroke-width="0.454615" stroke-miterlimit="10" stroke-linecap="round" stroke-linejoin="round"/>
<path d="M37.0283 205.69V205.804L37.142 205.917V206.031L37.2556 206.144V206.258L37.3692 206.372L37.4828 206.485V206.599" stroke="#374365" stroke-width="0.454615" stroke-miterlimit="10" stroke-linecap="round" stroke-linejoin="round"/>
<path d="M234.672 205.69V205.577L234.786 205.463V205.349L234.899 205.236V205.122L235.013 205.009V204.895L235.126 204.781" stroke="#374365" stroke-width="0.454615" stroke-miterlimit="10" stroke-linecap="round" stroke-linejoin="round"/>
<path d="M135.793 148.636H136.816" stroke="#374365" stroke-width="0.454615" stroke-miterlimit="10" stroke-linecap="round" stroke-linejoin="round"/>
<path d="M37.0282 91.582L36.1191 91.1274" stroke="#374365" stroke-width="0.454615" stroke-miterlimit="10" stroke-linecap="round" stroke-linejoin="round"/>
<path d="M37.0281 91.582L36.9145 91.6957V91.8093L36.8009 91.9229L36.6872 92.0366V92.1502L36.5736 92.2638V92.3774L36.46 92.4911" stroke="#374365" stroke-width="0.454615" stroke-miterlimit="10" stroke-linecap="round" stroke-linejoin="round"/>
<path d="M37.0283 91.582L37.8238 92.0366" stroke="#374365" stroke-width="0.454615" stroke-miterlimit="10" stroke-linecap="round" stroke-linejoin="round"/>
<path d="M135.793 34.5276V33.5049" stroke="#374365" stroke-width="0.454615" stroke-miterlimit="10" stroke-linecap="round" stroke-linejoin="round"/>
<path d="M135.793 34.5273H134.771" stroke="#374365" stroke-width="0.454615" stroke-miterlimit="10" stroke-linecap="round" stroke-linejoin="round"/>
<path d="M135.793 34.5273V35.55" stroke="#374365" stroke-width="0.454615" stroke-miterlimit="10" stroke-linecap="round" stroke-linejoin="round"/>
<path d="M135.793 34.5273H136.816" stroke="#374365" stroke-width="0.454615" stroke-miterlimit="10" stroke-linecap="round" stroke-linejoin="round"/>
<path d="M234.672 91.582L235.467 91.1274" stroke="#374365" stroke-width="0.454615" stroke-miterlimit="10" stroke-linecap="round" stroke-linejoin="round"/>
<path d="M234.672 91.5814L234.558 91.4678L234.444 91.3541V91.2405L234.331 91.1269V91.0133L234.217 90.8996V90.786L234.104 90.6724" stroke="#374365" stroke-width="0.454615" stroke-miterlimit="10" stroke-linecap="round" stroke-linejoin="round"/>
<path d="M234.673 91.582L233.764 92.0366" stroke="#374365" stroke-width="0.454615" stroke-miterlimit="10" stroke-linecap="round" stroke-linejoin="round"/>
<path d="M196.711 280.702V299.568" stroke="#374365" stroke-width="0.454615" stroke-miterlimit="10" stroke-linecap="round" stroke-linejoin="round"/>
<path d="M196.711 299.568H290.475" stroke="#374365" stroke-width="0.454615" stroke-miterlimit="10" stroke-linecap="round" stroke-linejoin="round"/>
<path d="M290.475 280.702H196.711" stroke="#374365" stroke-width="0.454615" stroke-miterlimit="10" stroke-linecap="round" stroke-linejoin="round"/>
<path d="M196.711 280.702V299.568" stroke="#374365" stroke-width="0.454615" stroke-miterlimit="10" stroke-linecap="round" stroke-linejoin="round"/>
<path d="M196.711 299.568H215.464" stroke="#374365" stroke-width="0.454615" stroke-miterlimit="10" stroke-linecap="round" stroke-linejoin="round"/>
<path d="M215.464 280.702H196.711" stroke="#374365" stroke-width="0.454615" stroke-miterlimit="10" stroke-linecap="round" stroke-linejoin="round"/>
<path d="M215.465 280.702V299.568" stroke="#374365" stroke-width="0.454615" stroke-miterlimit="10" stroke-linecap="round" stroke-linejoin="round"/>
<path d="M252.971 280.702V299.568" stroke="#374365" stroke-width="0.454615" stroke-miterlimit="10" stroke-linecap="round" stroke-linejoin="round"/>
<path d="M222.852 294.909L226.488 285.816" stroke="#374365" stroke-width="0.454615" stroke-miterlimit="10" stroke-linecap="round" stroke-linejoin="round"/>
<path d="M234.898 293.616C234.376 293.616 233.929 293.466 233.559 293.166C233.191 292.863 232.908 292.426 232.709 291.855C232.513 291.284 232.415 290.598 232.415 289.796C232.415 288.998 232.513 288.314 232.709 287.745C232.908 287.174 233.192 286.737 233.562 286.435C233.935 286.13 234.381 285.977 234.898 285.977C235.416 285.977 235.861 286.13 236.231 286.435C236.604 286.737 236.888 287.174 237.084 287.745C237.283 288.314 237.382 288.998 237.382 289.796C237.382 290.598 237.283 291.284 237.084 291.855C236.888 292.426 236.605 292.863 236.235 293.166C235.867 293.466 235.421 293.616 234.898 293.616ZM234.898 293.006C235.472 293.006 235.92 292.726 236.242 292.167C236.564 291.606 236.725 290.815 236.725 289.796C236.725 289.119 236.651 288.54 236.503 288.061C236.358 287.579 236.149 287.212 235.875 286.957C235.604 286.703 235.278 286.576 234.898 286.576C234.33 286.576 233.883 286.859 233.559 287.426C233.235 287.99 233.072 288.78 233.072 289.796C233.072 290.474 233.145 291.053 233.29 291.532C233.438 292.011 233.647 292.377 233.918 292.628C234.192 292.88 234.519 293.006 234.898 293.006ZM239.537 292.498L239.472 292.886C239.431 293.147 239.373 293.435 239.298 293.75C239.223 294.065 239.145 294.364 239.066 294.647C238.986 294.93 238.917 295.158 238.859 295.329H238.361C238.393 295.165 238.433 294.955 238.481 294.701C238.532 294.447 238.584 294.165 238.637 293.855C238.69 293.548 238.739 293.231 238.782 292.904L238.833 292.498H239.537ZM241.111 293.514V293.017L243.539 290.287C243.856 289.928 244.112 289.622 244.305 289.368C244.499 289.114 244.639 288.879 244.727 288.664C244.816 288.448 244.861 288.224 244.861 287.992C244.861 287.709 244.794 287.462 244.661 287.251C244.53 287.039 244.35 286.873 244.12 286.754C243.89 286.636 243.631 286.576 243.343 286.576C243.038 286.576 242.771 286.642 242.541 286.772C242.313 286.903 242.137 287.082 242.011 287.31C241.885 287.537 241.822 287.798 241.822 288.094H241.172C241.172 287.682 241.267 287.318 241.455 287.001C241.647 286.681 241.907 286.431 242.236 286.249C242.568 286.068 242.943 285.977 243.361 285.977C243.775 285.977 244.143 286.067 244.465 286.246C244.787 286.423 245.04 286.663 245.224 286.968C245.408 287.273 245.5 287.615 245.5 287.992C245.5 288.266 245.451 288.531 245.355 288.787C245.26 289.044 245.097 289.329 244.864 289.644C244.632 289.959 244.31 290.343 243.899 290.799L242.054 292.857V292.904H245.732V293.514H241.111Z" fill="#374365"/>
<path d="M252.971 280.702V299.568" stroke="#374365" stroke-width="0.454615" stroke-miterlimit="10" stroke-linecap="round" stroke-linejoin="round"/>
<path d="M271.723 280.702V299.568" stroke="#374365" stroke-width="0.454615" stroke-miterlimit="10" stroke-linecap="round" stroke-linejoin="round"/>
<path d="M260.132 293.879V286.444H262.641C263.125 286.444 263.528 286.528 263.85 286.698C264.174 286.867 264.417 287.098 264.579 287.391C264.742 287.684 264.823 288.017 264.823 288.39C264.823 288.699 264.771 288.964 264.667 289.185C264.562 289.405 264.421 289.583 264.242 289.718C264.063 289.854 263.863 289.952 263.643 290.012V290.07C263.882 290.087 264.115 290.172 264.34 290.325C264.565 290.475 264.75 290.685 264.895 290.956C265.041 291.227 265.113 291.552 265.113 291.929C265.113 292.304 265.03 292.64 264.863 292.935C264.696 293.228 264.439 293.459 264.093 293.628C263.749 293.795 263.311 293.879 262.779 293.879H260.132ZM260.811 293.269H262.779C263.352 293.269 263.776 293.142 264.049 292.888C264.325 292.634 264.463 292.314 264.463 291.929C264.463 291.646 264.394 291.39 264.256 291.16C264.121 290.927 263.928 290.743 263.679 290.608C263.432 290.472 263.142 290.404 262.808 290.404H260.811V293.269ZM260.811 289.802H262.702C262.995 289.802 263.252 289.741 263.472 289.62C263.692 289.499 263.864 289.332 263.988 289.119C264.111 288.906 264.173 288.663 264.173 288.39C264.173 287.995 264.045 287.674 263.788 287.427C263.531 287.178 263.149 287.054 262.641 287.054H260.811V289.802Z" fill="#374365"/>
<path d="M290.477 280.702V299.568" stroke="#374365" stroke-width="0.454615" stroke-miterlimit="10" stroke-linecap="round" stroke-linejoin="round"/>
<path d="M284.556 286.444V287.054H280.893V293.879H280.214V286.444H284.556Z" fill="#374365"/>
<path d="M290.477 280.702V299.568" stroke="#374365" stroke-width="0.454615" stroke-miterlimit="10" stroke-linecap="round" stroke-linejoin="round"/>
<path d="M291.158 64.7598V232.513" stroke="#374365" stroke-width="0.454615" stroke-miterlimit="10" stroke-linecap="round" stroke-linejoin="round"/>
<path d="M128.292 258.312L143.408 267.064" stroke="#374365" stroke-width="0.454615" stroke-miterlimit="10" stroke-linecap="round" stroke-linejoin="round"/>
<path d="M143.408 267.062L183.301 290.134" stroke="#374365" stroke-width="0.454615" stroke-miterlimit="10" stroke-linecap="round" stroke-linejoin="round"/>
<path d="M234.476 276.718V276.221L236.905 273.491C237.222 273.133 237.477 272.826 237.671 272.572C237.865 272.318 238.005 272.083 238.092 271.868C238.182 271.652 238.227 271.429 238.227 271.196C238.227 270.913 238.16 270.666 238.027 270.456C237.896 270.243 237.716 270.077 237.486 269.958C237.256 269.84 236.997 269.78 236.709 269.78C236.404 269.78 236.137 269.846 235.907 269.976C235.679 270.107 235.502 270.286 235.377 270.514C235.251 270.741 235.188 271.003 235.188 271.298H234.538C234.538 270.886 234.632 270.522 234.821 270.205C235.012 269.886 235.272 269.635 235.602 269.454C235.933 269.272 236.308 269.181 236.727 269.181C237.141 269.181 237.509 269.271 237.831 269.45C238.153 269.627 238.406 269.867 238.59 270.172C238.774 270.477 238.866 270.819 238.866 271.196C238.866 271.47 238.817 271.735 238.72 271.991C238.626 272.248 238.463 272.533 238.23 272.848C237.998 273.163 237.676 273.548 237.264 274.003L235.42 276.061V276.108H239.098V276.718H234.476ZM242.945 276.82C242.638 276.817 242.338 276.756 242.045 276.635C241.752 276.511 241.488 276.314 241.254 276.043C241.019 275.769 240.832 275.409 240.694 274.961C240.557 274.513 240.488 273.963 240.488 273.309C240.488 272.704 240.541 272.15 240.647 271.646C240.754 271.143 240.914 270.707 241.127 270.339C241.34 269.972 241.606 269.687 241.925 269.486C242.245 269.283 242.619 269.181 243.047 269.181C243.449 269.181 243.803 269.265 244.111 269.432C244.418 269.596 244.667 269.826 244.859 270.122C245.05 270.417 245.17 270.757 245.218 271.142H244.55C244.482 270.75 244.321 270.427 244.067 270.172C243.813 269.918 243.473 269.791 243.047 269.791C242.437 269.791 241.965 270.074 241.631 270.641C241.297 271.205 241.129 272.006 241.127 273.044H241.174C241.292 272.824 241.445 272.634 241.631 272.474C241.82 272.312 242.034 272.186 242.274 272.097C242.513 272.005 242.765 271.959 243.029 271.959C243.443 271.959 243.822 272.064 244.165 272.274C244.509 272.483 244.784 272.769 244.989 273.135C245.195 273.498 245.298 273.913 245.298 274.38C245.298 274.823 245.2 275.231 245.004 275.604C244.81 275.976 244.537 276.273 244.183 276.493C243.832 276.713 243.42 276.822 242.945 276.82ZM242.945 276.21C243.27 276.21 243.559 276.128 243.813 275.963C244.07 275.799 244.272 275.578 244.419 275.302C244.567 275.024 244.641 274.717 244.641 274.38C244.641 274.044 244.567 273.739 244.419 273.465C244.272 273.192 244.07 272.974 243.813 272.812C243.559 272.65 243.27 272.569 242.945 272.569C242.699 272.569 242.469 272.619 242.256 272.721C242.043 272.82 241.857 272.957 241.7 273.131C241.545 273.303 241.427 273.5 241.344 273.723C241.264 273.946 241.234 274.179 241.254 274.424C241.28 274.765 241.369 275.071 241.519 275.342C241.671 275.611 241.87 275.823 242.114 275.978C242.361 276.133 242.638 276.21 242.945 276.21Z" fill="#374365"/>
<path d="M224.898 279.338L229.558 267.859" stroke="#374365" stroke-width="0.454615" stroke-miterlimit="10" stroke-linecap="round" stroke-linejoin="round"/>
<path d="M231.166 274.12C231.23 273.737 231.23 273.347 231.166 272.964V272.964C231.08 272.447 230.879 271.955 230.579 271.526L230.511 271.429C230.331 271.172 230.121 270.936 229.886 270.727L229.734 270.592C229.393 270.288 228.996 270.052 228.566 269.896V269.896C228.17 269.752 227.751 269.678 227.329 269.678H227.177C226.722 269.678 226.27 269.757 225.843 269.913V269.913C225.443 270.058 225.07 270.268 224.738 270.534L224.606 270.639C224.273 270.905 223.99 271.229 223.771 271.594V271.594C223.54 271.98 223.383 272.406 223.309 272.85L223.3 272.904C223.229 273.327 223.229 273.757 223.3 274.18L223.314 274.265C223.385 274.689 223.526 275.099 223.732 275.476V275.476C223.977 275.925 224.308 276.32 224.707 276.64L224.738 276.664C225.07 276.93 225.443 277.139 225.843 277.285V277.285C226.27 277.44 226.722 277.52 227.177 277.52H227.329C227.751 277.52 228.17 277.446 228.566 277.302V277.302C228.996 277.146 229.393 276.909 229.734 276.605L229.808 276.54C230.095 276.285 230.344 275.992 230.55 275.669L230.627 275.547C230.897 275.124 231.078 274.651 231.16 274.156L231.166 274.12Z" stroke="#374365" stroke-width="0.454615" stroke-miterlimit="10" stroke-linecap="round" stroke-linejoin="round"/>
<path d="M227.674 290.73C227.721 290.461 227.721 290.186 227.674 289.918V289.918C227.612 289.558 227.468 289.218 227.254 288.923L227.197 288.844C227.069 288.667 226.92 288.505 226.754 288.363L226.645 288.27C226.393 288.054 226.102 287.886 225.789 287.776V287.776C225.504 287.676 225.204 287.625 224.902 287.625H224.781C224.455 287.625 224.131 287.68 223.824 287.788V287.788C223.532 287.89 223.259 288.039 223.014 288.228L222.916 288.303C222.681 288.485 222.48 288.707 222.323 288.959V288.959C222.154 289.231 222.039 289.534 221.984 289.85L221.98 289.876C221.928 290.172 221.928 290.475 221.98 290.771L221.988 290.82C222.04 291.122 222.144 291.413 222.295 291.68V291.68C222.47 291.99 222.706 292.262 222.988 292.479L223.018 292.503C223.26 292.689 223.533 292.837 223.821 292.938V292.938C224.129 293.046 224.455 293.102 224.781 293.102H224.902C225.204 293.102 225.504 293.051 225.789 292.951V292.951C226.102 292.841 226.393 292.673 226.645 292.457L226.687 292.421C226.897 292.241 227.081 292.032 227.234 291.801L227.288 291.718C227.481 291.427 227.61 291.099 227.67 290.755L227.674 290.73Z" stroke="#374365" stroke-width="0.454615" stroke-miterlimit="10" stroke-linecap="round" stroke-linejoin="round"/>
<path d="M198.529 290.021H213.873" stroke="#374365" stroke-width="0.454615" stroke-miterlimit="10" stroke-linecap="round" stroke-linejoin="round"/>
<path d="M206.258 297.636V282.407" stroke="#374365" stroke-width="0.454615" stroke-miterlimit="10" stroke-linecap="round" stroke-linejoin="round"/>
<path d="M210.139 290.542C210.203 290.16 210.203 289.769 210.139 289.386V289.386C210.053 288.869 209.852 288.377 209.551 287.948L209.484 287.852C209.304 287.594 209.094 287.358 208.859 287.15L208.707 287.015C208.365 286.711 207.969 286.474 207.539 286.318V286.318C207.142 286.174 206.724 286.1 206.302 286.1H206.15C205.695 286.1 205.243 286.18 204.815 286.335V286.335C204.416 286.481 204.042 286.69 203.71 286.956L203.579 287.061C203.246 287.328 202.963 287.651 202.744 288.017V288.017C202.512 288.402 202.355 288.828 202.281 289.272L202.272 289.327C202.202 289.749 202.202 290.18 202.272 290.602L202.287 290.687C202.357 291.112 202.498 291.521 202.704 291.899V291.899C202.949 292.347 203.281 292.743 203.68 293.062L203.71 293.086C204.042 293.352 204.416 293.562 204.815 293.707V293.707C205.243 293.863 205.695 293.942 206.15 293.942H206.302C206.724 293.942 207.142 293.868 207.539 293.724V293.724C207.969 293.568 208.365 293.332 208.707 293.028L208.781 292.962C209.067 292.707 209.317 292.414 209.523 292.091L209.6 291.969C209.869 291.546 210.051 291.073 210.133 290.578L210.139 290.542Z" stroke="#374365" stroke-width="0.454615" stroke-miterlimit="10" stroke-linecap="round" stroke-linejoin="round"/>
<path d="M128.292 258.312L114.312 250.356" stroke="#374365" stroke-width="0.454615" stroke-miterlimit="10" stroke-linecap="round" stroke-linejoin="round"/>
<path d="M183.301 290.135H196.712" stroke="#374365" stroke-width="0.454615" stroke-miterlimit="10" stroke-linecap="round" stroke-linejoin="round"/>
<path d="M285.471 156.605H284.973L282.243 154.176C281.885 153.859 281.579 153.603 281.325 153.41C281.07 153.216 280.836 153.076 280.62 152.989C280.405 152.899 280.181 152.854 279.949 152.854C279.665 152.854 279.419 152.921 279.208 153.054C278.995 153.185 278.829 153.365 278.711 153.595C278.592 153.825 278.533 154.084 278.533 154.372C278.533 154.677 278.598 154.944 278.729 155.174C278.86 155.402 279.039 155.578 279.266 155.704C279.494 155.83 279.755 155.893 280.05 155.893V156.543C279.639 156.543 279.275 156.449 278.958 156.26C278.638 156.069 278.388 155.808 278.206 155.479C278.024 155.148 277.934 154.772 277.934 154.354C277.934 153.94 278.023 153.572 278.202 153.25C278.379 152.928 278.62 152.675 278.925 152.491C279.23 152.307 279.571 152.215 279.949 152.215C280.222 152.215 280.487 152.264 280.744 152.361C281 152.455 281.286 152.618 281.601 152.851C281.915 153.083 282.3 153.405 282.755 153.816L284.814 155.661H284.861V151.983H285.471V156.605ZM285.572 148.302C285.572 148.716 285.489 149.087 285.322 149.413C285.152 149.738 284.92 149.997 284.625 150.19C284.33 150.382 283.992 150.483 283.612 150.495V149.838C284.006 149.816 284.331 149.661 284.585 149.373C284.837 149.085 284.962 148.728 284.962 148.302C284.962 147.971 284.884 147.676 284.726 147.417C284.567 147.158 284.349 146.955 284.073 146.81C283.795 146.663 283.481 146.589 283.133 146.589C282.77 146.591 282.45 146.67 282.174 146.825C281.896 146.98 281.678 147.19 281.521 147.457C281.363 147.72 281.285 148.017 281.285 148.346C281.282 148.595 281.323 148.84 281.408 149.079C281.493 149.319 281.602 149.519 281.735 149.678L281.648 150.357L278.035 149.911V146.237H278.645V149.341L281.132 149.638V149.602C280.994 149.438 280.882 149.238 280.795 149.003C280.707 148.766 280.664 148.515 280.664 148.252C280.664 147.814 280.769 147.42 280.98 147.072C281.19 146.721 281.481 146.444 281.851 146.24C282.219 146.035 282.643 145.932 283.122 145.932C283.591 145.932 284.011 146.035 284.382 146.24C284.749 146.444 285.04 146.724 285.253 147.083C285.466 147.438 285.572 147.845 285.572 148.302ZM285.572 142.19C285.572 142.713 285.422 143.16 285.122 143.53C284.82 143.898 284.383 144.181 283.812 144.38C283.24 144.576 282.554 144.674 281.753 144.674C280.954 144.674 280.271 144.576 279.702 144.38C279.131 144.181 278.694 143.897 278.391 143.526C278.086 143.154 277.934 142.708 277.934 142.19C277.934 141.672 278.086 141.228 278.391 140.858C278.694 140.485 279.131 140.201 279.702 140.005C280.271 139.806 280.954 139.707 281.753 139.707C282.554 139.707 283.24 139.806 283.812 140.005C284.383 140.201 284.82 140.484 285.122 140.854C285.422 141.222 285.572 141.668 285.572 142.19ZM284.962 142.19C284.962 141.617 284.683 141.169 284.124 140.847C283.562 140.525 282.772 140.364 281.753 140.364C281.075 140.364 280.497 140.438 280.018 140.586C279.536 140.731 279.168 140.94 278.914 141.214C278.66 141.485 278.533 141.81 278.533 142.19C278.533 142.759 278.816 143.206 279.382 143.53C279.946 143.854 280.736 144.016 281.753 144.016C282.431 144.016 283.009 143.944 283.488 143.799C283.968 143.651 284.333 143.442 284.585 143.171C284.837 142.897 284.962 142.57 284.962 142.19Z" fill="#374365"/>
<path d="M135.793 64.7598H293.885" stroke="#374365" stroke-width="0.454615" stroke-miterlimit="10" stroke-linecap="round" stroke-linejoin="round"/>
<path d="M135.793 232.513H293.885" stroke="#374365" stroke-width="0.454615" stroke-miterlimit="10" stroke-linecap="round" stroke-linejoin="round"/>
<path d="M202.641 276.82C202.334 276.817 202.034 276.756 201.741 276.635C201.448 276.511 201.184 276.314 200.95 276.043C200.715 275.769 200.528 275.409 200.39 274.961C200.252 274.513 200.183 273.963 200.183 273.309C200.183 272.704 200.237 272.15 200.343 271.646C200.45 271.143 200.609 270.707 200.822 270.339C201.035 269.972 201.302 269.687 201.621 269.486C201.941 269.283 202.315 269.181 202.743 269.181C203.145 269.181 203.499 269.265 203.807 269.432C204.114 269.596 204.363 269.826 204.555 270.122C204.746 270.417 204.866 270.757 204.914 271.142H204.246C204.178 270.75 204.017 270.427 203.763 270.172C203.509 269.918 203.169 269.791 202.743 269.791C202.133 269.791 201.661 270.074 201.327 270.641C200.993 271.205 200.825 272.006 200.822 273.044H200.87C200.988 272.824 201.141 272.634 201.327 272.474C201.516 272.312 201.73 272.186 201.97 272.097C202.209 272.005 202.461 271.959 202.725 271.959C203.139 271.959 203.518 272.064 203.861 272.274C204.205 272.483 204.48 272.769 204.685 273.135C204.891 273.498 204.994 273.913 204.994 274.38C204.994 274.823 204.896 275.231 204.7 275.604C204.506 275.976 204.233 276.273 203.879 276.493C203.528 276.713 203.116 276.822 202.641 276.82ZM202.641 276.21C202.966 276.21 203.255 276.128 203.509 275.963C203.766 275.799 203.968 275.578 204.115 275.302C204.263 275.024 204.337 274.717 204.337 274.38C204.337 274.044 204.263 273.739 204.115 273.465C203.968 273.192 203.766 272.974 203.509 272.812C203.255 272.65 202.966 272.569 202.641 272.569C202.394 272.569 202.165 272.619 201.952 272.721C201.739 272.82 201.553 272.957 201.396 273.131C201.241 273.303 201.123 273.5 201.04 273.723C200.96 273.946 200.93 274.179 200.95 274.424C200.976 274.765 201.064 275.071 201.215 275.342C201.367 275.611 201.566 275.823 201.81 275.978C202.057 276.133 202.334 276.21 202.641 276.21ZM209.605 271.142L211.043 273.52L212.48 271.142H213.232L211.438 273.93L213.232 276.718H212.48L211.043 274.417L209.605 276.718H208.857L210.629 273.93L208.857 271.142H209.605Z" fill="#374365"/>
<path d="M244.561 50.6665L249.22 39.1875" stroke="#374365" stroke-width="0.454615" stroke-miterlimit="10" stroke-linecap="round" stroke-linejoin="round"/>
<path d="M250.925 44.8711L250.698 43.5072L250.016 42.3707L248.879 41.4615L247.629 41.0068H246.151L244.901 41.4615L243.878 42.3707L243.083 43.5072L242.855 44.8711L243.083 46.2349L243.878 47.4851L244.901 48.3943L246.151 48.8489H247.629L248.879 48.3943L250.016 47.4851L250.698 46.2349L250.925 44.8711Z" stroke="#374365" stroke-width="0.454615" stroke-miterlimit="10" stroke-linecap="round" stroke-linejoin="round"/>
<path d="M256.553 48.2491C256.095 48.2491 255.686 48.1668 255.325 48.0022C254.965 47.8352 254.679 47.6041 254.469 47.3088C254.258 47.0135 254.147 46.6735 254.135 46.2886H254.821C254.833 46.5597 254.916 46.7969 255.071 47.0002C255.226 47.2011 255.432 47.3584 255.689 47.4722C255.945 47.5835 256.231 47.6392 256.545 47.6392C256.889 47.6392 257.192 47.575 257.453 47.4468C257.717 47.3185 257.923 47.143 258.07 46.9203C258.22 46.6952 258.295 46.4411 258.295 46.1579C258.295 45.8578 258.219 45.5928 258.067 45.3628C257.914 45.1329 257.695 44.9538 257.409 44.8255C257.126 44.6972 256.787 44.6331 256.393 44.6331H255.957V44.0232H256.393C256.715 44.0232 256.999 43.9651 257.246 43.8489C257.495 43.7303 257.691 43.5645 257.834 43.3515C257.977 43.1385 258.048 42.888 258.048 42.6C258.048 42.3265 257.987 42.0857 257.863 41.8775C257.74 41.6694 257.566 41.506 257.34 41.3874C257.118 41.2688 256.858 41.2095 256.56 41.2095C256.272 41.2095 256.008 41.2652 255.768 41.3765C255.529 41.4879 255.335 41.6452 255.188 41.8485C255.042 42.0518 254.965 42.2926 254.955 42.571H254.298C254.308 42.1837 254.414 41.8436 254.618 41.5508C254.823 41.2555 255.096 41.0256 255.434 40.861C255.776 40.694 256.153 40.6105 256.567 40.6105C257.005 40.6105 257.384 40.7 257.703 40.8791C258.023 41.0582 258.27 41.2966 258.444 41.5944C258.621 41.8896 258.709 42.2152 258.709 42.571C258.709 42.9945 258.594 43.3576 258.364 43.6601C258.134 43.9602 257.825 44.1684 257.435 44.2846V44.3318C257.909 44.4262 258.282 44.6367 258.553 44.9635C258.827 45.2878 258.963 45.686 258.963 46.1579C258.963 46.5549 258.859 46.9119 258.651 47.2289C258.443 47.5436 258.157 47.7929 257.794 47.9768C257.434 48.1584 257.02 48.2491 256.553 48.2491ZM260.67 48.1475L264.057 41.3693V41.3221H260.154V40.7121H264.769V41.3511L261.385 48.1475H260.67ZM268.252 48.2491C267.778 48.2491 267.355 48.1596 266.985 47.9805C266.615 47.8014 266.324 47.5569 266.114 47.2471C265.903 46.9349 265.798 46.5827 265.798 46.1906C265.798 45.8832 265.862 45.5964 265.99 45.3302C266.119 45.0615 266.295 44.8364 266.52 44.6549C266.746 44.4709 266.998 44.3511 267.279 44.2955V44.2555C266.914 44.149 266.62 43.9397 266.397 43.6274C266.174 43.3128 266.064 42.9558 266.067 42.5564C266.064 42.1861 266.159 41.8545 266.35 41.5617C266.541 41.2688 266.801 41.0377 267.13 40.8682C267.462 40.6964 267.836 40.6105 268.252 40.6105C268.666 40.6105 269.038 40.6964 269.367 40.8682C269.696 41.0377 269.956 41.2688 270.147 41.5617C270.341 41.8545 270.439 42.1861 270.441 42.5564C270.439 42.9534 270.326 43.3104 270.104 43.6274C269.881 43.9421 269.588 44.1515 269.225 44.2555V44.2955C269.506 44.3487 269.758 44.4673 269.98 44.6513C270.203 44.8352 270.38 45.0615 270.51 45.3302C270.641 45.5964 270.706 45.8832 270.706 46.1906C270.706 46.5827 270.6 46.9349 270.387 47.2471C270.176 47.5569 269.886 47.8014 269.516 47.9805C269.148 48.1596 268.727 48.2491 268.252 48.2491ZM268.252 47.6392C268.606 47.6392 268.915 47.5763 269.182 47.4504C269.45 47.3221 269.66 47.1466 269.81 46.924C269.962 46.7013 270.038 46.446 270.038 46.1579C270.038 45.8602 269.96 45.5952 269.802 45.3628C269.645 45.1281 269.432 44.9429 269.163 44.8074C268.895 44.6694 268.591 44.6004 268.252 44.6004C267.913 44.6004 267.608 44.6694 267.337 44.8074C267.069 44.9429 266.856 45.1281 266.698 45.3628C266.543 45.5952 266.466 45.8602 266.466 46.1579C266.466 46.446 266.54 46.7013 266.687 46.924C266.837 47.1466 267.047 47.3221 267.315 47.4504C267.587 47.5763 267.899 47.6392 268.252 47.6392ZM268.252 44.0195C268.543 44.0195 268.803 43.9578 269.033 43.8344C269.263 43.711 269.444 43.5427 269.577 43.3297C269.713 43.1143 269.782 42.8699 269.784 42.5964C269.782 42.3253 269.714 42.0857 269.581 41.8775C269.448 41.667 269.266 41.5036 269.036 41.3874C268.809 41.2688 268.547 41.2095 268.252 41.2095C267.957 41.2095 267.693 41.2688 267.461 41.3874C267.231 41.5036 267.049 41.667 266.916 41.8775C266.785 42.0857 266.721 42.3253 266.724 42.5964C266.721 42.8699 266.787 43.1143 266.92 43.3297C267.055 43.5427 267.238 43.711 267.468 43.8344C267.7 43.9578 267.962 44.0195 268.252 44.0195Z" fill="#374365"/>
<path d="M225.467 58.9632L232.4 52.0303" stroke="#374365" stroke-width="0.454615" stroke-miterlimit="10" stroke-linecap="round" stroke-linejoin="round"/>
<path d="M46.1201 238.309L225.466 58.9639" stroke="#374365" stroke-width="0.454615" stroke-miterlimit="10" stroke-linecap="round" stroke-linejoin="round"/>
<path d="M232.398 52.0303H274.678" stroke="#374365" stroke-width="0.454615" stroke-miterlimit="10" stroke-linecap="round" stroke-linejoin="round"/>
<circle cx="135.732" cy="232.491" r="3.19487" stroke="#374365" stroke-width="1.27795"/>
<circle cx="135.732" cy="64.8972" r="3.19487" stroke="#374365" stroke-width="1.27795"/>
<path d="M14.1081 70.3568L15.6017 70.3569C15.9264 70.3569 16.0896 70.7489 15.8608 70.9793L10.7517 76.1257C10.4785 76.4008 10.0214 76.1168 10.1471 75.7501L12.4792 68.9453C12.584 68.6393 13.0056 68.6107 13.1508 68.8998L13.7819 70.1557C13.8439 70.279 13.9701 70.3568 14.1081 70.3568Z" fill="#374365"/>
<path d="M51.4827 233.085L52.9361 233.429C53.252 233.504 53.3204 233.923 53.0448 234.094L46.887 237.925C46.5578 238.129 46.1785 237.748 46.3853 237.42L50.2229 231.336C50.3954 231.062 50.8122 231.131 50.887 231.446L51.2116 232.814C51.2435 232.948 51.3484 233.053 51.4827 233.085Z" fill="#374365"/>
<path d="M220.098 64.0754L218.645 63.7312C218.329 63.6564 218.261 63.2373 218.536 63.0658L224.694 59.2354C225.023 59.0307 225.403 59.4124 225.196 59.7403L221.358 65.8244C221.186 66.098 220.769 66.0287 220.694 65.7139L220.369 64.3464C220.338 64.2121 220.233 64.1073 220.098 64.0754Z" fill="#374365"/>
<path d="M149.722 270.459L151.041 269.758C151.328 269.606 151.288 269.183 150.978 269.087L144.052 266.939C143.681 266.824 143.411 267.29 143.694 267.555L148.946 272.47C149.182 272.691 149.568 272.518 149.561 272.195L149.529 270.789C149.526 270.651 149.601 270.523 149.722 270.459Z" fill="#374365"/>
<path d="M121.512 254.519L120.193 255.22C119.906 255.372 119.946 255.795 120.256 255.891L127.183 258.038C127.553 258.153 127.824 257.688 127.54 257.423L122.288 252.508C122.052 252.287 121.666 252.46 121.674 252.783L121.706 254.188C121.709 254.326 121.634 254.454 121.512 254.519Z" fill="#374365"/>
<path d="M128.67 3.69827L127.862 2.44247C127.686 2.16951 127.927 1.8201 128.245 1.88767L135.338 3.39708C135.717 3.47778 135.725 4.01583 135.349 4.10871L128.365 5.83205C128.051 5.90954 127.799 5.57059 127.963 5.292L128.678 4.0815C128.748 3.96261 128.745 3.81433 128.67 3.69827Z" fill="#374365"/>
<path d="M290.915 225.382L289.639 224.606C289.362 224.437 289.019 224.687 289.094 225.003L290.787 232.055C290.877 232.432 291.415 232.427 291.498 232.048L293.041 225.022C293.11 224.706 292.764 224.463 292.49 224.634L291.299 225.379C291.182 225.453 291.033 225.454 290.915 225.382Z" fill="#374365"/>
<path d="M290.915 71.8418L289.639 72.6177C289.362 72.7863 289.019 72.5362 289.094 72.2205L290.787 65.1688C290.877 64.7918 291.415 64.797 291.498 65.1757L293.041 72.2017C293.11 72.5177 292.764 72.7611 292.49 72.5896L291.299 71.8442C291.182 71.771 291.033 71.7701 290.915 71.8418Z" fill="#374365"/>
</svg>
